<?xml version="1.0" standalone="no"?>
<!DOCTYPE svg PUBLIC "-//W3C//DTD SVG 1.1//EN" "http://www.w3.org/Graphics/SVG/1.1/DTD/svg11.dtd" >
<svg>
<metadata>
Created by FontForge 20090914 at Fri Jun 17 16:39:54 2016
 By www-data
Copyright (c) 2002, 2005 Parachute&#194;&#168;, www.parachute.gr.  All rights reserved.
</metadata>
<defs>
<font id="PFDinTextCondPro-Regular" horiz-adv-x="1818" >
  <font-face 
    font-family="PF Din Text Cond Pro"
    font-weight="400"
    font-stretch="normal"
    units-per-em="1000"
    panose-1="2 0 0 0 0 0 0 0 0 0"
    ascent="750"
    descent="-250"
    x-height="494"
    cap-height="696"
    bbox="-156 -254.002 1760 936"
    underline-thickness="50"
    underline-position="-50"
    unicode-range="U+0020-U+FB05"
  />
<missing-glyph horiz-adv-x="440" 
d="M0 700h440v-700h-440v700zM360 650h-280l140 -255zM390 95v510l-140 -255zM360 50l-140 255l-140 -255h280zM50 95l140 255l-140 255v-510z" />
    <glyph glyph-name="fj" unicode="fj" horiz-adv-x="435" 
d="M72 495l-0.000976562 90.001c0 26.667 4.16699 49.5 12.5 68.5s19.833 34.5 34.5 46.5s31.5 20.667 50.5 26s39.167 8 60.5 8c64 0 113.333 -19.333 148 -58l-52 -56c-21.333 24.667 -53.333 37 -96 37c-26.667 0 -46 -6.33301 -58 -19s-18 -30.334 -18 -53.001v-90h223
v-563c0 -18.667 -2.66699 -36.167 -8 -52.5s-13.166 -30.5 -23.499 -42.5s-23.5 -21.333 -39.5 -28s-35 -10 -57 -10h-30v75h11.5c6.33301 0 9.83301 0.333008 10.5 1c20 0 34.167 5.5 42.5 16.5s12.5 26.167 12.5 45.5v491h-142v-428h-82v428h-55v67h55z" />
    <glyph glyph-name="ffj" unicode="ffj" horiz-adv-x="661" 
d="M376 495l222.999 -0.00195312v-563c0 -18.667 -2.66699 -36.167 -8 -52.5s-13.333 -30.5 -24 -42.5s-24 -21.333 -40 -28s-35 -10 -57 -10h-30v75h11.5c6.33301 0 9.83301 0.333008 10.5 1c20.667 0 35 6 43 18s12 29.667 12 53v482h-141v-428h-82v428h-140v-428h-82v428
h-55v67h55v81c0 26.667 4.16699 49.334 12.5 68.001s19.833 34 34.5 46s31.5 20.667 50.5 26s39.167 8 60.5 8c20 0 38.5 -2.16699 55.5 -6.5s32.167 -10.166 45.5 -17.499c14.667 14.667 32.334 25.167 53.001 31.5s43.334 9.5 68.001 9.5
c65.333 0 114.666 -19 147.999 -57l-52 -56c-10.667 11.333 -24 20.333 -40 27s-34.667 10 -56 10c-26.667 0 -46 -6.5 -58 -19.5s-18 -30.5 -18 -52.5v-98zM229.999 646.998c-26.667 0 -46 -6.33301 -58 -19s-18 -30.334 -18 -53.001v-80h140v98
c0 14.667 1.33301 27.334 4 38.001c-20 10.667 -42.667 16 -68 16z" />
    <glyph glyph-name="ff" unicode="ff" horiz-adv-x="484" 
d="M230 723c18 0 34.5029 -1.66797 49.5029 -5.00098s29.167 -8 42.5 -14c10.667 11.333 23.667 19.833 39 25.5s32.333 8.5 51 8.5h55v-75h-44c-18.667 0 -31.5 -5.33301 -38.5 -16s-10.5 -24 -10.5 -40v-113h91v-66h-91v-428h-81v428h-140v-428h-81v428h-56v66h56v81
c0 26.667 4.16699 49.334 12.5 68.001s19.666 34 33.999 46s31.166 20.667 50.499 26s39.666 8 60.999 8zM293.003 493.999v112.999v12c0 4.66699 0.333008 9.33398 1 14.001c-18 9.33301 -39.333 14 -64 14c-27.333 0 -47 -6.5 -59 -19.5s-18 -30.5 -18 -52.5v-81h140z" />
    <glyph glyph-name="fi" unicode="fi" horiz-adv-x="435" 
d="M296 0v428.001h-142v-428h-82v428h-55v67h55v90c0 26.667 4.16699 49.5 12.5 68.5s19.833 34.5 34.5 46.5s31.5 20.667 50.5 26s39.167 8 60.5 8c64 0 113.333 -19.333 148 -58l-52 -56c-21.333 24.667 -53.333 37 -96 37c-26.667 0 -46 -6.33301 -58 -19
s-18 -30.334 -18 -53.001v-90h223v-495h-81z" />
    <glyph glyph-name="fl" unicode="fl" horiz-adv-x="464" 
d="M418 -3c-39.333 0 -69.499 8.33301 -90.499 25s-31.5 47.667 -31.5 93v535c-14 4 -26 6.66699 -36 8s-20.333 2 -31 2c-26.667 0 -45.834 -6.66699 -57.501 -20s-17.5 -32.666 -17.5 -57.999v-87h92v-67h-92v-428h-82v428h-55v67h55v90c0 26.667 4 49.667 12 69
s19.167 35.166 33.5 47.499s31.166 21.333 50.499 27s40 8.5 62 8.5c12.667 0 31.334 -1.5 56.001 -4.5s55 -10.167 91 -21.5v-585c0 -18.667 3.5 -32.667 10.5 -42s19.833 -14 38.5 -14h18v-73h-26z" />
    <glyph glyph-name="ffi" unicode="ffi" horiz-adv-x="661" 
d="M517 0l-0.00195312 427.998h-141v-428h-82v428h-140v-428h-82v428h-55v67h55v81c0 26.667 4.16699 49.334 12.5 68.001s19.833 34 34.5 46s31.5 20.667 50.5 26s39.167 8 60.5 8c20 0 38.5 -2.16699 55.5 -6.5s32.167 -10.166 45.5 -17.499
c14.667 14.667 32.334 25.167 53.001 31.5s43.334 9.5 68.001 9.5c65.333 0 115 -19 149 -57l-53 -56c-21.333 24.667 -53.333 37 -96 37c-26.667 0 -46 -6.5 -58 -19.5s-18 -30.5 -18 -52.5v-98h223v-495h-82zM229.998 646.998c-26.667 0 -46 -6.33105 -58 -18.998
s-18 -30.334 -18 -53.001v-80h140v98c0 12.667 1 24.667 3 36c-9.33301 5.33301 -19.5 9.66602 -30.5 12.999s-23.167 5 -36.5 5z" />
    <glyph glyph-name="ffl" unicode="ffl" horiz-adv-x="685" 
d="M230 723c17.333 0 35.167 -1.83496 53.5 -5.50195s34.833 -9.5 49.5 -17.5c14.667 14 32 24.333 52 31s42 10 66 10c12.667 0 31.5 -1.5 56.5 -4.5s55.167 -10.167 90.5 -21.5v-589c0 -18.667 3.5 -32.667 10.5 -42s19.833 -14 38.5 -14h18v-73h-25
c-39.333 0 -69.666 8.33301 -90.999 25s-32 47.667 -32 93v539c-14 4 -25.833 6.66699 -35.5 8s-19.834 2 -30.501 2c-27.333 0 -46.833 -6.66699 -58.5 -20s-17.5 -32.666 -17.5 -57.999v-91h91v-67h-91v-428h-81v428h-140v-428h-82v428h-55v67h55v80
c0 26.667 4.16699 49.334 12.5 68.001s19.833 34 34.5 46s31.5 20.667 50.5 26s39.167 8 60.5 8zM230.001 646.998c-26.667 0 -46 -6.50098 -58 -19.501s-18 -30.5 -18 -52.5v-80h140v94c0 7.33301 0.333008 14.333 1 21s1.66699 13.334 3 20.001
c-20 11.333 -42.667 17 -68 17z" />
    <glyph glyph-name="ft" unicode="ft" horiz-adv-x="473" 
d="M154 428l0.000976562 -428h-82v428h-55v67h55v112c0 41.333 11.167 72 33.5 92s51.166 30 86.499 30h52v-75h-41c-18.667 0 -31.5 -5.5 -38.5 -16.5s-10.5 -24.5 -10.5 -40.5v-102h141v126h81v-126h70v-67h-70v-293c0 -20 4 -35.167 12 -45.5s21 -15.5 39 -15.5h27v-74
h-45c-38 -0 -66.5 10.833 -85.5 32.5s-28.5 48.5 -28.5 80.5v315h-141z" />
    <glyph glyph-name=".notdef" horiz-adv-x="440" 
d="M0 700h440v-700h-440v700zM360 650h-280l140 -255zM390 95v510l-140 -255zM360 50l-140 255l-140 -255h280zM50 95l140 255l-140 255v-510z" />
    <glyph glyph-name="space" unicode=" " horiz-adv-x="210" 
 />
    <glyph glyph-name="exclam" unicode="!" horiz-adv-x="235" 
d="M149 177h-63l-8 519h79zM76 0v89h85v-89h-85z" />
    <glyph glyph-name="quotedbl" unicode="&#x22;" horiz-adv-x="280" 
d="M168 498v198h62v-198h-62zM50 498v198h62v-198h-62z" />
    <glyph glyph-name="numbersign" unicode="#" horiz-adv-x="440" 
d="M11 275h86l24 151h-77v55h86l35 216h57l-35 -216h100l35 216h57l-36 -216h81v-55h-90l-24 -151h81v-55h-90l-35 -220h-57l35 220h-100l-35 -220h-57l36 220h-77v55zM153 275h100l25 151h-100z" />
    <glyph glyph-name="dollar" unicode="$" horiz-adv-x="440" 
d="M200 -5c-42.667 2.66699 -78.6641 15.1719 -107.997 37.5049s-51 49.166 -65 80.499l66 41c9.33301 -20.667 22.666 -38.834 39.999 -54.501s39.666 -25.167 66.999 -28.5v247c-54.667 20.667 -95.167 45.167 -121.5 73.5s-39.5 66.833 -39.5 115.5
c0 52 14 95.167 42 129.5s67.667 53.833 119 58.5v81h44v-81c42 -3.33301 76.167 -15.333 102.5 -36s44.833 -43.334 55.5 -68.001l-67 -44c-8.66699 19.333 -20.5 35.166 -35.5 47.499s-33.5 20.166 -55.5 23.499v-229c31.333 -7.33301 57.5 -17 78.5 -29
s37.667 -26.333 50 -43s21.166 -35.667 26.499 -57s8 -45 8 -71c0 -56.667 -13.667 -102.167 -41 -136.5s-68 -53.5 -122 -57.5v-100h-44v100zM325.003 188.005c0 16.667 -1.66797 31.168 -5.00098 43.501s-8.5 22.833 -15.5 31.5s-15.5 16.167 -25.5 22.5
s-21.667 12.166 -35 17.499v-231c30.667 4.66699 51.834 17.5 63.501 38.5s17.5 46.833 17.5 77.5zM122.002 506.006c0 -25.333 6.66895 -45.667 20.002 -61s32.666 -28.666 57.999 -39.999v214c-26.667 -4.66699 -46.334 -17.334 -59.001 -38.001s-19 -45.667 -19 -75z" />
    <glyph glyph-name="percent" unicode="%" horiz-adv-x="640" 
d="M159 -17h-56l369 731h57zM265 382c0 -33.333 -11 -59.5 -33 -78.5s-48.667 -28.5 -80 -28.5s-58 9.5 -80 28.5s-33 45.167 -33 78.5v210c0 32.667 10.833 58.667 32.5 78s48.5 29 80.5 29c32.667 0 59.667 -9.66699 81 -29s32 -45.333 32 -78v-210zM202 592
c0 14 -4.5 25.667 -13.5 35s-21.167 14 -36.5 14s-27.5 -4.66699 -36.5 -14s-13.5 -21 -13.5 -35v-210c0 -15.333 4.5 -27.5 13.5 -36.5s21.167 -13.5 36.5 -13.5s27.5 4.5 36.5 13.5s13.5 21.167 13.5 36.5v210zM602 99c0 -16.667 -3 -31.334 -9 -44.001
s-14.333 -23.334 -25 -32.001s-22.834 -15.334 -36.501 -20.001s-27.834 -7 -42.501 -7c-15.333 0 -29.666 2.33301 -42.999 7s-25.333 11.334 -36 20.001s-19 19.334 -25 32.001s-9 27.334 -9 44.001v218c0 16 3 30.5 9 43.5s14.333 23.833 25 32.5
s22.667 15.334 36 20.001s27.666 7 42.999 7c14.667 0 28.834 -2.33301 42.501 -7s25.834 -11.334 36.501 -20.001s19 -19.5 25 -32.5s9 -27.5 9 -43.5v-218zM539 317c0 14 -4.5 25 -13.5 33s-21.167 12 -36.5 12s-27.5 -4 -36.5 -12s-13.5 -19 -13.5 -33v-218
c0 -15.333 4.5 -26.833 13.5 -34.5s21.167 -11.5 36.5 -11.5s27.5 3.83301 36.5 11.5s13.5 19.167 13.5 34.5v218z" />
    <glyph glyph-name="ampersand" unicode="&#x26;" horiz-adv-x="548" 
d="M387 65c-24 -25.333 -49.6641 -43.502 -76.9971 -54.502s-56 -16.5 -86 -16.5c-26.667 0 -50.5 4.5 -71.5 13.5s-38.667 21.167 -53 36.5s-25.333 33.666 -33 54.999s-11.5 44.333 -11.5 69c0 42.667 10.167 80.334 30.5 113.001s50.833 64.667 91.5 96
c-8 13.333 -16.333 26.5 -25 39.5s-16.334 26.5 -23.001 40.5s-12.167 28.333 -16.5 43s-6.5 30.334 -6.5 47.001c0 22 3.5 42.5 10.5 61.5s17.167 35.5 30.5 49.5s29.833 25 49.5 33s42.167 12 67.5 12c30.667 0 58.334 -5.16699 83.001 -15.5s46 -27.833 64 -52.5l-58 -48
c-15.333 16.667 -29.5 27.834 -42.5 33.501s-29.167 8.5 -48.5 8.5c-26.667 0 -46.167 -8.33301 -58.5 -25s-18.5 -35.334 -18.5 -56.001c0 -12 3.5 -26.667 10.5 -44s16.167 -36 27.5 -56s24.166 -41 38.499 -63l44.5 -65.5l45 -64l40 -57.5
c9.33301 18.667 16.166 37 20.499 55s8.16602 36.667 11.499 56l75 -6c-4 -28.667 -10.667 -58.167 -20 -88.5s-22 -59.166 -38 -86.499l43.5 -64.5l44.5 -63.5h-95zM346.003 124.998l-63.999 95.9971l-65 96c-26.667 -21.333 -47.167 -43.666 -61.5 -66.999
s-21.5 -49 -21.5 -77c0 -29.333 8.66699 -54.166 26 -74.499s42.333 -30.5 75 -30.5c21.333 0 42.166 5.83301 62.499 17.5s36.5 24.834 48.5 39.501z" />
    <glyph glyph-name="quotesingle" unicode="'" horiz-adv-x="207" 
d="M71 498v198h62v-198h-62z" />
    <glyph glyph-name="parenleft" unicode="(" horiz-adv-x="250" 
d="M204 -115c-21.333 26.667 -41.667 55.668 -61 87.001s-36.5 64.666 -51.5 99.999s-26.833 72.5 -35.5 111.5s-13 79.5 -13 121.5c0 42.667 4.16699 83.5 12.5 122.5s19.833 76 34.5 111s31.5 68 50.5 99s39.167 59.833 60.5 86.5l42 -23
c-18 -27.333 -34.333 -56.833 -49 -88.5s-27.167 -64.5 -37.5 -98.5s-18.333 -68.333 -24 -103s-8.5 -68.667 -8.5 -102c0 -72.667 11 -143.5 33 -212.5s50.333 -130.5 85 -184.5l-38 -27v0z" />
    <glyph glyph-name="parenright" unicode=")" horiz-adv-x="250" 
d="M28 -88c17.333 26.667 33.332 55.4971 47.999 86.4971s27.167 63.5 37.5 97.5s18.333 69 24 105s8.5 72 8.5 108c0 33.333 -2.83301 67.333 -8.5 102s-13.667 68.834 -24 102.501s-22.833 66.334 -37.5 98.001s-31 61.167 -49 88.5l21 12c6.66699 4 13.667 7.66699 21 11
c21.333 -26.667 41.5 -55.5 60.5 -86.5s35.833 -64 50.5 -99s26.167 -72 34.5 -111s12.5 -79.833 12.5 -122.5c0 -42 -4.33301 -82.333 -13 -121s-20.5 -75.667 -35.5 -111s-32.167 -68.666 -51.5 -99.999s-39.666 -60.333 -60.999 -87z" />
    <glyph glyph-name="asterisk" unicode="*" horiz-adv-x="356" 
d="M289 442l-10.998 -8.49805c-4.66699 -3.66699 -9.83398 -7.33398 -15.501 -11.001s-10.834 -7.33398 -15.501 -11.001l-11 -8.5l-61 102l-13 -20.5l-18.5 -30.5l-18 -30.5l-12.5 -21.5l-11.5 8.5l-15.5 11.5c-5.33301 4 -10.5 7.66699 -15.5 11s-8.5 6 -10.5 8l77 92
c-4.66699 1.33301 -12.334 3.33301 -23.001 6l-33 8.5l-32.5 8.5c-10.333 2.66699 -17.833 4.66699 -22.5 6c0.666992 2.66699 1.83398 6.83398 3.50098 12.501l5.5 18l5.5 18c1.66699 5.66699 3.16699 10.167 4.5 13.5l107 -45c0 4.66699 -0.5 12.667 -1.5 24l-3 35.5
c-1 12.333 -2 24 -3 35s-1.5 19.167 -1.5 24.5h64l-10 -119l22 9l31.5 13l31.5 13.5l22 9.5c0.666992 -3.33301 2 -7.83301 4 -13.5s4 -11.667 6 -18s4 -12.333 6 -18s3.33301 -9.83398 4 -12.501l-112 -29z" />
    <glyph glyph-name="plus" unicode="+" horiz-adv-x="440" 
d="M251 263v-178h-61v178h-171v62h171v177h61v-177h170v-62h-170z" />
    <glyph glyph-name="comma" unicode="," horiz-adv-x="223" 
d="M104 -116h-47l28 112h-25v104h95v-102z" />
    <glyph glyph-name="hyphen" unicode="-" horiz-adv-x="369" 
d="M51 222v71h273v-71h-273z" />
    <glyph glyph-name="period" unicode="." horiz-adv-x="218" 
d="M61 0v101h95v-101h-95z" />
    <glyph glyph-name="slash" unicode="/" horiz-adv-x="287" 
d="M65 -42h-63l219 767h63z" />
    <glyph glyph-name="zero" unicode="0" horiz-adv-x="440" 
d="M388 159c0 -26.667 -4.66699 -50.334 -14 -71.001s-21.666 -38 -36.999 -52s-33.166 -24.5 -53.499 -31.5s-41.5 -10.5 -63.5 -10.5s-43 3.5 -63 10.5s-37.833 17.5 -53.5 31.5s-28 31.333 -37 52s-13.5 44.334 -13.5 71.001v377c0 26.667 4.5 50.334 13.5 71.001
s21.333 38 37 52s33.5 24.667 53.5 32s41 11 63 11s43.167 -3.66699 63.5 -11s38.166 -18 53.499 -32s27.666 -31.333 36.999 -52s14 -44.334 14 -71.001v-377zM307 536c0 28 -8 49.667 -24 65s-37 23 -63 23s-47 -7.66699 -63 -23s-24 -37 -24 -65v-377
c0 -28 8 -49.5 24 -64.5s37 -22.5 63 -22.5s47 7.5 63 22.5s24 36.5 24 64.5v377z" />
    <glyph glyph-name="one" unicode="1" horiz-adv-x="440" 
d="M290 0h-81v611l-96 -73l1 86l94 72h82v-696z" />
    <glyph glyph-name="two" unicode="2" horiz-adv-x="440" 
d="M218 625c-26.667 -0.666992 -47.4971 -10.833 -62.4971 -30.5s-23.5 -47.5 -25.5 -83.5l-82 13c4 54 21 97 51 129s70.333 48 121 48c52.667 0 94 -14.333 124 -43s45 -69.334 45 -122.001c0 -24 -4 -48.833 -12 -74.5s-19.667 -50.167 -35 -73.5l-199 -311h238v-77h-334
v75l225 352c11.333 17.333 19.166 36 23.499 56s6.5 37.333 6.5 52c0 11.333 -1.33301 22.333 -4 33s-7.33398 20.334 -14.001 29.001s-15.334 15.5 -26.001 20.5s-24 7.5 -40 7.5z" />
    <glyph glyph-name="three" unicode="3" horiz-adv-x="440" 
d="M130 162c4 -27.333 12.001 -49.501 24.001 -66.501s32.667 -25.5 62 -25.5c33.333 0 57.166 12.167 71.499 36.5s21.5 54.5 21.5 90.5c0 86.667 -31.667 130 -95 130h-41v70h37c33.333 0 57.5 9.33301 72.5 28s22.5 46 22.5 82c0 14.667 -1.33301 29.167 -4 43.5
s-7.33398 27 -14.001 38s-15.667 19.833 -27 26.5s-25.333 10 -42 10c-15.333 0 -28 -2.5 -38 -7.5s-18.167 -11.833 -24.5 -20.5s-11 -18.667 -14 -30s-5.5 -23.333 -7.5 -36l-80 13c2.66699 22 8 42.667 16 62s18.833 36.166 32.5 50.499s29.834 25.5 48.501 33.5
s40.667 12 66 12c34 0 61.833 -5.16699 83.5 -15.5s38.834 -24.166 51.501 -41.499s21.5 -37.666 26.5 -60.999s7.5 -48.333 7.5 -75c0 -13.333 -1 -27.166 -3 -41.499s-5.83301 -28.166 -11.5 -41.499s-13.5 -25.5 -23.5 -36.5s-23 -19.5 -39 -25.5
c18 -4 32.333 -10.833 43 -20.5s18.834 -21.5 24.501 -35.5s9.33398 -29.833 11.001 -47.5s2.5 -36.5 2.5 -56.5c0 -30 -3 -57.833 -9 -83.5s-16 -47.834 -30 -66.501s-32.333 -33.334 -55 -44.001s-50.667 -16 -84 -16c-20.667 0 -40.334 3.16699 -59.001 9.5
s-35.334 15.833 -50.001 28.5s-26.834 28.5 -36.501 47.5s-15.5 41.167 -17.5 66.5z" />
    <glyph glyph-name="four" unicode="4" horiz-adv-x="440" 
d="M360 106v-106h-80v106h-254v78l193 512h84l-194 -514h171v199h80v-199h53v-76h-53z" />
    <glyph glyph-name="five" unicode="5" horiz-adv-x="440" 
d="M244 457c32 0 57.5029 -6.00391 76.5029 -18.0039s33.5 -27.833 43.5 -47.5s16.333 -42.167 19 -67.5s4 -51.333 4 -78c0 -40.667 -2.5 -76.667 -7.5 -108s-13.833 -57.666 -26.5 -78.999s-30.334 -37.5 -53.001 -48.5s-51.334 -16.5 -86.001 -16.5
c-100 0 -156.667 51.667 -170 155l81 13c3.33301 -30.667 11.666 -54.167 24.999 -70.5s35 -24.5 65 -24.5c22 0 39.167 5.33301 51.5 16s21.5 24.334 27.5 41.001s9.5 35.334 10.5 56.001s1.5 41 1.5 61c0 17.333 -0.666992 34.5 -2 51.5s-4.83301 32.333 -10.5 46
s-14.167 24.834 -25.5 33.501s-27 13 -47 13c-18.667 0 -34.667 -4.5 -48 -13.5s-24.333 -21.167 -33 -36.5h-75v361h316v-75h-243l3 -202c16 15.333 32.667 25.5 50 30.5s35 7.5 53 7.5z" />
    <glyph glyph-name="six" unicode="6" horiz-adv-x="440" 
d="M221 332c-20 0 -35.999 -4.33203 -47.999 -12.999s-21 -19.834 -27 -33.501s-10 -28.5 -12 -44.5s-3 -31.333 -3 -46c0 -18.667 1.16699 -35.667 3.5 -51s6.83301 -28.5 13.5 -39.5s15.667 -19.667 27 -26s25.666 -9.5 42.999 -9.5c28.667 0 50.667 10.167 66 30.5
s23 53.5 23 99.5c0 16.667 -1.16699 33 -3.5 49s-6.5 30.333 -12.5 43s-14.667 22.667 -26 30s-26 11 -44 11zM182.001 391.001l3 -1.00098c7.33301 4.66699 16.5 8.16699 27.5 10.5s21.5 3.5 31.5 3.5c26.667 0 49.167 -5.66699 67.5 -17s33.333 -26.166 45 -44.499
s20 -39 25 -62s7.5 -45.833 7.5 -68.5c0 -32 -3.16699 -61.333 -9.5 -88s-16.333 -49.667 -30 -69s-31.5 -34.333 -53.5 -45s-48.667 -16 -80 -16c-58 0 -99.833 17.333 -125.5 52s-38.5 83.667 -38.5 147c0 38.667 3.33301 72.834 10 102.501s16.667 59.167 30 88.5l38 84
l43 94.5l38 83c11.333 24.333 19 41.166 23 50.499h86z" />
    <glyph glyph-name="seven" unicode="7" horiz-adv-x="440" 
d="M179 0h-84l209 620h-178v-94h-75v170h338v-75z" />
    <glyph glyph-name="eight" unicode="8" horiz-adv-x="440" 
d="M395 194c0 -37.333 -4.99805 -68.668 -14.998 -94.001s-23.333 -45.833 -40 -61.5s-35.334 -27 -56.001 -34s-42 -10.5 -64 -10.5c-23.333 0 -45.5 3.5 -66.5 10.5s-39.5 18.333 -55.5 34s-28.833 36.167 -38.5 61.5s-14.5 56.666 -14.5 93.999
c0 87.333 25.667 143.333 77 168c-14.667 8.66699 -26.667 18 -36 28s-16.5 21 -21.5 33s-8.33301 25.5 -10 40.5s-2.5 31.5 -2.5 49.5c0 32.667 4.5 60.834 13.5 84.501s21.333 43.334 37 59.001s33.667 27.167 54 34.5s41.5 11 63.5 11
c23.333 0 45.166 -3.66699 65.499 -11s38.166 -18.666 53.499 -33.999s27.333 -35 36 -59s13 -52.333 13 -85c0 -36.667 -5.16699 -66.834 -15.5 -90.501s-27.166 -43.834 -50.499 -60.501c28.667 -13.333 48 -34.166 58 -62.499s15 -63.5 15 -105.5zM220.002 624.998
c-30.667 0 -52.833 -9.83203 -66.5 -29.499s-20.5 -48.834 -20.5 -87.501c0 -75.333 29 -113 87 -113c28.667 0 50.334 9.33301 65.001 28s22 48.667 22 90c0 36 -6.83301 63.667 -20.5 83s-35.834 29 -66.501 29zM220.003 329.999c-28 0 -50.665 -9.83301 -67.998 -29.5
s-26 -53.167 -26 -100.5c0 -24.667 2.5 -45.334 7.5 -62.001s11.667 -30.167 20 -40.5s18.166 -17.666 29.499 -21.999s23.666 -6.5 36.999 -6.5c32.667 0 56.167 10.667 70.5 32s21.5 55 21.5 101s-7.83301 78.833 -23.5 98.5s-38.5 29.5 -68.5 29.5z" />
    <glyph glyph-name="nine" unicode="9" horiz-adv-x="440" 
d="M222 627c-28.667 0 -50.8369 -9.83496 -66.5039 -29.502s-23.5 -52.5 -23.5 -98.5c0 -17.333 1.16699 -34.166 3.5 -50.499s7 -30.833 14 -43.5s16.5 -22.667 28.5 -30s28 -11 48 -11c16.667 0 30.334 3.66699 41.001 11s19 17 25 29s10.167 26.167 12.5 42.5
s3.5 33.5 3.5 51.5c0 18.667 -1.16699 35.834 -3.5 51.501s-6.66602 29.167 -12.999 40.5s-15.166 20.333 -26.499 27s-25.666 10 -42.999 10zM256.997 304.998l-2.99805 1.00098c-7.33301 -4.66699 -16.333 -8 -27 -10s-21 -3 -31 -3c-26.667 0 -49.334 5.66699 -68.001 17
s-33.667 26.166 -45 44.499s-19.666 38.833 -24.999 61.5s-8 45.334 -8 68.001c0 32 3.33301 61.333 10 88s17 49.667 31 69s32.167 34.333 54.5 45s49.166 16 80.499 16c58 0 99.667 -17.333 125 -52s38 -83.667 38 -147c0.666992 -38.667 -2.83301 -72.834 -10.5 -102.501
s-18.167 -59.167 -31.5 -88.5c-2 -4 -6.83301 -14.333 -14.5 -31l-27 -59l-32.5 -72l-32 -70.5l-25 -55c-6.66699 -15 -10.334 -23.167 -11.001 -24.5h-86z" />
    <glyph glyph-name="colon" unicode=":" horiz-adv-x="216" 
d="M58 0v101h95v-101h-95zM58 292v102h95v-102h-95z" />
    <glyph glyph-name="semicolon" unicode=";" horiz-adv-x="216" 
d="M60 292v102h95v-102h-95zM104 -116h-48l28 112h-24v104h95v-102z" />
    <glyph glyph-name="less" unicode="&#x3c;" horiz-adv-x="440" 
d="M409 74l-382 192v57l382 193v-68l-311 -153l311 -153v-68z" />
    <glyph glyph-name="equal" unicode="=" horiz-adv-x="440" 
d="M19 349v65h402v-65h-402zM19 176v65h402v-65h-402z" />
    <glyph glyph-name="greater" unicode="&#x3e;" horiz-adv-x="440" 
d="M28 142l311 153l-311 153v68l382 -193v-57l-382 -192v68z" />
    <glyph glyph-name="question" unicode="?" horiz-adv-x="434" 
d="M403 525c0 -16 -1.16895 -30.335 -3.50195 -43.002s-5.66602 -24.5 -9.99902 -35.5s-9.66602 -21.5 -15.999 -31.5l-21.5 -33c-7.33301 -10.667 -15.666 -21.5 -24.999 -32.5s-18.166 -22.5 -26.499 -34.5s-15.333 -24.333 -21 -37s-8.5 -25.334 -8.5 -38.001v-60h-83v47
c0 24 2.83301 45.333 8.5 64s15.167 36.667 28.5 54l63 85c17.333 23.333 26.666 47 27.999 71c0 14 -1 28.167 -3 42.5s-6.33301 27.333 -13 39s-16.334 21.167 -29.001 28.5s-29.334 11 -50.001 11c-15.333 0 -29.166 -3.16699 -41.499 -9.5
s-22.666 -14.666 -30.999 -24.999s-14.833 -22.166 -19.5 -35.499s-7.33398 -26.666 -8.00098 -39.999l-83 12c4 30 11.667 56.167 23 78.5s25.333 40.833 42 55.5s35.5 25.5 56.5 32.5s43.167 10.5 66.5 10.5c58 0 102 -16 132 -48s45 -74.667 45 -128z
M185.998 -0.00195312v89h84v-89h-84z" />
    <glyph glyph-name="at" unicode="@" horiz-adv-x="790" 
d="M514 261c0 -20 5 -35.3389 15 -46.0059s21.667 -16 35 -16s26.166 2.33301 38.499 7s23.166 13.834 32.499 27.501s16.833 32.5 22.5 56.5s8.5 55.333 8.5 94c0 41.333 -6.83301 78.166 -20.5 110.499s-32.167 59.5 -55.5 81.5s-50.5 38.833 -81.5 50.5
s-63.833 17.5 -98.5 17.5c-46 0 -87 -8 -123 -24s-66.5 -37.833 -91.5 -65.5s-44 -60.167 -57 -97.5s-19.5 -77.666 -19.5 -120.999c0 -47.333 6.66699 -90.5 20 -129.5s32.5 -72.333 57.5 -100s55.833 -49 92.5 -64s78 -22.5 124 -22.5c18 0 34.833 0.666992 50.5 2
s31 3.66602 46 6.99902s30 7.83301 45 13.5s30.5 12.834 46.5 21.501l23 -58c-31.333 -13.333 -64.166 -24.166 -98.499 -32.499s-70.166 -12.5 -107.499 -12.5c-54.667 0 -104.334 8.33301 -149.001 25s-83 41 -115 73s-56.833 71.167 -74.5 117.5s-26.5 99.5 -26.5 159.5
c0 53.333 8.33301 102.5 25 147.5s40.334 83.833 71.001 116.5s67.834 58.167 111.501 76.5s92.5 27.5 146.5 27.5c49.333 0 94.166 -8 134.499 -24s74.666 -38.167 102.999 -66.5s50.333 -62.166 66 -101.499s23.5 -82 23.5 -128s-4.83301 -84.667 -14.5 -116
s-22.5 -56.666 -38.5 -75.999s-34.5 -33.166 -55.5 -41.499s-43.167 -12.5 -66.5 -12.5c-6 0 -13.667 1.33301 -23 4s-18.666 6.66699 -27.999 12s-17.833 12 -25.5 20s-12.834 17.333 -15.501 28l-3 -1c-8 -14.667 -22 -27 -42 -37s-42 -15 -66 -15
c-36 0 -63.833 10.5 -83.5 31.5s-29.5 48.5 -29.5 82.5c0 14.667 2.16699 29 6.5 43s11.166 26.5 20.499 37.5s21.333 20 36 27s32.334 10.5 53.001 10.5h91v48c0 17.333 -5.83301 31 -17.5 41s-29.167 15 -52.5 15c-15.333 0 -29.166 -3.66699 -41.499 -11
s-21.5 -16.666 -27.5 -27.999l-54 27c11.333 21.333 27.5 38.5 48.5 51.5s45.5 19.5 73.5 19.5c20 0 38.167 -1.83301 54.5 -5.5s30.5 -10 42.5 -19s21.333 -20.833 28 -35.5s10 -33 10 -55v-168zM304 265.994c0 -16 5.66699 -29.5 17 -40.5s29 -16.5 53 -16.5
c50.667 0 76 22.333 76 67v51h-75c-21.333 0 -38.5 -4.66699 -51.5 -14s-19.5 -25 -19.5 -47z" />
    <glyph glyph-name="A" unicode="A" horiz-adv-x="497" 
d="M403 0l-44 158h-222l-43 -158h-85l202 696h75l203 -696h-86zM289 413l-39 154h-4l-39 -153l-51 -181h184z" />
    <glyph glyph-name="B" unicode="B" horiz-adv-x="506" 
d="M465 199c0 -65.333 -16.833 -114.831 -50.5 -148.498s-79.167 -50.5 -136.5 -50.5h-213v696h200c64 0 111.5 -16.5 142.5 -49.5s46.5 -77.5 46.5 -133.5c0 -32 -6 -60.333 -18 -85s-35.667 -45.667 -71 -63v-3c18 -4.66699 33.333 -12.334 46 -23.001
s23 -23.167 31 -37.5s13.833 -30.333 17.5 -48s5.5 -35.834 5.5 -54.501zM148 620.002v-223h109c40 0 69.167 10.333 87.5 31s27.5 48 27.5 82c0 33.333 -9.16699 60 -27.5 80s-47.5 30 -87.5 30h-109zM148 325.002l-0.00195312 -244h121c22 0 40.333 3.33301 55 10
s26.334 15.667 35.001 27s14.834 24.5 18.501 39.5s5.5 31.167 5.5 48.5c0 34.667 -8.83301 63.167 -26.5 85.5s-47.5 33.5 -89.5 33.5h-119z" />
    <glyph glyph-name="C" unicode="C" horiz-adv-x="469" 
d="M446 129c-12 -44 -35.1689 -77.4961 -69.502 -100.496s-75.5 -34.5 -123.5 -34.5c-31.333 0 -59.666 5.16699 -84.999 15.5s-46.666 24.666 -63.999 42.999s-30.666 40.166 -39.999 65.499s-14 53.333 -14 84v292c0 29.333 4.5 56.666 13.5 81.999
s22.167 47.166 39.5 65.499s38.666 32.833 63.999 43.5s54 16 86 16c47.333 0 88.166 -11.667 122.499 -35s57.833 -56 70.5 -98l-79 -31c-6.66699 25.333 -19.5 45.666 -38.5 60.999s-44.167 23 -75.5 23c-19.333 0 -36.5 -3.5 -51.5 -10.5s-27.5 -16.167 -37.5 -27.5
s-17.667 -24.666 -23 -39.999s-8 -31 -8 -47v-296c0 -16.667 2.66699 -32.667 8 -48s13 -28.833 23 -40.5s22.5 -21 37.5 -28s32.167 -10.5 51.5 -10.5c30 0 54.833 7.66699 74.5 23s32.834 36 39.501 62z" />
    <glyph glyph-name="D" unicode="D" horiz-adv-x="521" 
d="M259 696c46.667 0 86.667 -8.50098 120 -25.501s58 -45.5 74 -85.5c10 -26.667 15.5 -59.167 16.5 -97.5s1.5 -82.833 1.5 -133.5c0 -52.667 -0.333008 -98 -1 -136s-6 -70.667 -16 -98c-9.33301 -23.333 -21 -42.666 -35 -57.999s-30 -27.5 -48 -36.5
s-37.667 -15.5 -59 -19.5s-43.333 -6 -66 -6h-182v696h195zM387 466.999c0 54 -11.667 92.833 -35 116.5s-57 35.5 -101 35.5h-103v-541h103c49.333 0 84.333 13.167 105 39.5s31 62.833 31 109.5v240z" />
    <glyph glyph-name="E" unicode="E" horiz-adv-x="455" 
d="M65 0v696h369v-78h-286v-228h245v-75h-245v-234h286v-81h-369z" />
    <glyph glyph-name="F" unicode="F" horiz-adv-x="445" 
d="M148 618v-231h245v-75h-245v-312h-83v696h369v-78h-286z" />
    <glyph glyph-name="G" unicode="G" horiz-adv-x="506" 
d="M253 70c18 0 34.332 3.16504 48.999 9.49805s27.167 14.833 37.5 25.5s18.5 23.334 24.5 38.001s9 30.334 9 47.001v110h-114v74h198v-179c0 -30.667 -5.16699 -58.5 -15.5 -83.5s-24.5 -46.167 -42.5 -63.5s-39.5 -30.833 -64.5 -40.5s-52.167 -14.5 -81.5 -14.5
c-32 0 -60.667 5.16699 -86 15.5s-46.666 24.666 -63.999 42.999s-30.666 40.333 -39.999 66s-14 53.834 -14 84.501v292c0 29.333 4.5 56.666 13.5 81.999s22.333 47.166 40 65.499s39.167 32.833 64.5 43.5s54 16 86 16c47.333 0 88.166 -11.667 122.499 -35
s57.833 -56.666 70.5 -99.999l-80 -27c-6.66699 24.667 -19.667 44.5 -39 59.5s-44 22.5 -74 22.5c-19.333 0 -36.5 -3.5 -51.5 -10.5s-27.667 -16.167 -38 -27.5s-18.166 -24.666 -23.499 -39.999s-8 -31 -8 -47v-299c0 -16.667 2.66699 -32.667 8 -48
s13.166 -28.833 23.499 -40.5s23 -21 38 -28s32.167 -10.5 51.5 -10.5z" />
    <glyph glyph-name="H" unicode="H" horiz-adv-x="532" 
d="M383 0v317h-235v-317h-83v696h83v-306h235v306h84v-696h-84z" />
    <glyph glyph-name="I" unicode="I" horiz-adv-x="217" 
d="M66 0v696h84v-696h-84z" />
    <glyph glyph-name="J" unicode="J" horiz-adv-x="406" 
d="M339 182c0 -34 -5 -62.833 -15 -86.5s-23.833 -43 -41.5 -58s-38 -26 -61 -33s-47.5 -10.5 -73.5 -10.5c-32 0 -60.833 6.16699 -86.5 18.5s-46.834 29.5 -63.501 51.5l65 50c9.33301 -11.333 21.333 -21 36 -29s30.334 -12 47.001 -12c30.667 0 56.5 8.33301 77.5 25
s31.5 45 31.5 85v513h84v-514z" />
    <glyph glyph-name="K" unicode="K" horiz-adv-x="516" 
d="M415 0l-166.001 345l-50.5 -74.5c-16.333 -25 -33.166 -49.5 -50.499 -73.5v-197h-84v696h84v-365c0.666992 0 1.16699 0.166992 1.5 0.5s0.833008 0.5 1.5 0.5l119 182.5l120 181.5h91l-89.5 -135.5l-89.5 -135.5l205 -425h-92z" />
    <glyph glyph-name="L" unicode="L" horiz-adv-x="442" 
d="M65 0v696h83v-615h278v-81h-361z" />
    <glyph glyph-name="M" unicode="M" horiz-adv-x="656" 
d="M514 0v486l-4 -1l-55 -134l-96 -215h-57l-97 219l-53 131l-4 -1v-485h-83v696h84l115 -263l66 -161h3l68 163l113 261h83v-696h-83z" />
    <glyph glyph-name="N" unicode="N" horiz-adv-x="562" 
d="M420 0l-199 366l-71 139h-3v-505h-84v696h81l195 -361l74 -143l4 1v503h83v-696h-80z" />
    <glyph glyph-name="O" unicode="O" horiz-adv-x="497" 
d="M452 203c0 -32 -5.00195 -60.832 -15.002 -86.499s-24 -47.667 -42 -66s-39.5 -32.333 -64.5 -42s-52.5 -14.5 -82.5 -14.5c-36.667 0 -68 6 -94 18s-47.167 28.167 -63.5 48.5s-28.166 43.833 -35.499 70.5s-11 54.667 -11 84v279c0 23.333 3.66699 47.333 11 72
s19 47 35 67s37 36.333 63 49s57.667 19 95 19c35.333 0 65.833 -6 91.5 -18s46.834 -27.833 63.501 -47.5s29 -41.834 37 -66.501s12 -49.667 12 -75v-291zM366.998 493.001c0 10.667 -1.83203 23.333 -5.49902 38s-10 28.667 -19 42s-21.167 24.833 -36.5 34.5
s-35 14.5 -59 14.5s-43.667 -4.5 -59 -13.5s-27.666 -20 -36.999 -33s-15.833 -27.167 -19.5 -42.5s-5.5 -29.333 -5.5 -42l1 -275c0 -20 2.16699 -38.833 6.5 -56.5s11.5 -33 21.5 -46s22.833 -23.333 38.5 -31s34.5 -11.5 56.5 -11.5c16 0 31.167 2.83301 45.5 8.5
s26.666 13.834 36.999 24.501s18.666 23.667 24.999 39s9.5 32.666 9.5 51.999v298z" />
    <glyph glyph-name="P" unicode="P" horiz-adv-x="484" 
d="M466 487c0 -26.667 -3.66699 -52.5 -11 -77.5s-18.833 -47 -34.5 -66s-36.167 -34.333 -61.5 -46s-56 -17.5 -92 -17.5h-119v-280h-83v696h198c64.667 0 114.667 -17.167 150 -51.5s53 -86.833 53 -157.5zM382 488c0 40 -9.33105 71.666 -27.998 94.999
s-49.667 35 -93 35h-113v-260h114c23.333 0 42.666 3.66699 57.999 11s27.666 17 36.999 29s15.833 25.833 19.5 41.5s5.5 31.834 5.5 48.501z" />
    <glyph glyph-name="Q" unicode="Q" horiz-adv-x="506" 
d="M462 204c0 -21.333 -2.33496 -41.333 -7.00195 -60s-11 -35.667 -19 -51l70 -56l-43 -54l-70 56c-36 -30 -81 -45 -135 -45c-36.667 0 -68 6 -94 18s-47.167 28.333 -63.5 49s-28.166 44.334 -35.499 71.001s-11 54.667 -11 84v279c0 23.333 3.66699 47.166 11 71.499
s19 46.5 35 66.5s37 36.333 63 49s57.667 19 95 19c35.333 0 65.833 -6 91.5 -18s46.834 -27.667 63.501 -47s29 -41.333 37 -66s12 -49.667 12 -75v-291zM376.998 494c0 10.667 -1.66699 23.335 -5 38.002s-9.5 28.667 -18.5 42s-21.167 24.666 -36.5 33.999s-35 14 -59 14
c-22.667 0 -41.834 -4.33301 -57.501 -13s-28.167 -19.334 -37.5 -32.001s-16.166 -26.5 -20.499 -41.5s-6.5 -28.833 -6.5 -41.5l1 -277c0 -20 2.16699 -39 6.5 -57s11.5 -33.5 21.5 -46.5s22.833 -23.333 38.5 -31s34.5 -11.5 56.5 -11.5c26 0 48.667 7 68 21l-82 66
l45 53l78 -64c5.33301 16 8 32.333 8 49v298z" />
    <glyph glyph-name="R" unicode="R" horiz-adv-x="506" 
d="M381 0l-116 306h-117v-306h-83v696h218c56.667 0 101.334 -16.833 134.001 -50.5s49 -81.5 49 -143.5c0 -44 -9.83301 -81.833 -29.5 -113.5s-49.834 -55.167 -90.501 -70.5l126 -318h-91zM382 502c0 38.667 -9.16797 68 -27.501 88s-47.166 30 -86.499 30h-120v-241h122
c37.333 0 65.333 11 84 33s28 52 28 90z" />
    <glyph glyph-name="S" unicode="S" horiz-adv-x="478" 
d="M444 190c0 -60.667 -18.1689 -108.669 -54.502 -144.002s-87.166 -53 -152.499 -53c-54 0 -99 11 -135 33s-62.667 52 -80 90l74 43c13.333 -23.333 31.333 -43.333 54 -60s52 -25 88 -25c42.667 0 73.334 11 92.001 33s28 49.667 28 83
c0 18.667 -2.83301 34.5 -8.5 47.5s-13.834 24.167 -24.501 33.5s-23.667 17.5 -39 24.5s-32.333 13.5 -51 19.5c-34.667 10.667 -64.167 21.834 -88.5 33.501s-44.166 25.167 -59.499 40.5s-26.5 32.833 -33.5 52.5s-10.5 42.834 -10.5 69.501c0 28 4.66699 53.667 14 77
s22.833 43.5 40.5 60.5s38.834 30.167 63.501 39.5s52.334 14 83.001 14c51.333 0 92.666 -9.16699 123.999 -27.5s54.666 -41.5 69.999 -69.5l-71 -49c-13.333 23.333 -30 40.166 -50 50.499s-45.667 15.5 -77 15.5c-38.667 0 -67 -10.667 -85 -32s-27 -47.666 -27 -78.999
c0 -18 4 -33.333 12 -46s19 -23.5 33 -32.5s30.333 -17 49 -24s39 -13.833 61 -20.5c30 -9.33301 55.333 -20 76 -32s37.167 -26 49.5 -42s21.333 -34.167 27 -54.5s8.5 -43.5 8.5 -69.5z" />
    <glyph glyph-name="T" unicode="T" horiz-adv-x="403" 
d="M243 620v-620h-83v620h-159v76h401v-76h-159z" />
    <glyph glyph-name="U" unicode="U" horiz-adv-x="519" 
d="M464 696l0.000976562 -493.998c0 -32 -5 -60.833 -15 -86.5s-24 -47.5 -42 -65.5s-39.5 -31.833 -64.5 -41.5s-52.5 -14.5 -82.5 -14.5c-32 0 -60.5 5.16699 -85.5 15.5s-46.333 24.666 -64 42.999s-31.167 40.333 -40.5 66s-14 53.5 -14 83.5v494h83v-497
c0 -16.667 2.83301 -32.5 8.5 -47.5s13.667 -28.333 24 -40s23 -21 38 -28s31.833 -10.5 50.5 -10.5c35.333 0 64.166 11.167 86.499 33.5s33.5 53.166 33.5 92.499v497h84z" />
    <glyph glyph-name="V" unicode="V" horiz-adv-x="469" 
d="M273 0h-78l-181 696h87l82 -325l50 -225h3l51 227l81 323h87z" />
    <glyph glyph-name="W" unicode="W" horiz-adv-x="702" 
d="M545 0h-74l-78 338l-41 191h-3l-40 -187l-78 -342h-74l-138 696h87l58 -319l32 -198h3l42 195l75 322h71l75 -323l42 -194h3l31 194l57 323h88z" />
    <glyph glyph-name="X" unicode="X" horiz-adv-x="450" 
d="M356 0l-131 282l-130 -282h-91l177 361l-165 335h91l118 -259l118 259h91l-166 -335l178 -361h-90z" />
    <glyph glyph-name="Y" unicode="Y" horiz-adv-x="442" 
d="M223 386l51 134l72 176h87l-172 -406v-290h-81v290l-173 406h88l37 -90l37 -90c8 -20 16.167 -41.667 24.5 -65l23.5 -65h6z" />
    <glyph glyph-name="Z" unicode="Z" horiz-adv-x="413" 
d="M27 0v77l271 543h-260v76h350v-72l-271 -545h270v-79h-360z" />
    <glyph glyph-name="bracketleft" unicode="[" horiz-adv-x="236" 
d="M68 -103v801h152v-53h-80v-695h80v-53h-152z" />
    <glyph glyph-name="backslash" unicode="\" horiz-adv-x="264" 
d="M5 714h62l189 -739h-63z" />
    <glyph glyph-name="bracketright" unicode="]" horiz-adv-x="236" 
d="M21 -104v54h79v695h-79v53h150v-802h-150z" />
    <glyph glyph-name="asciicircum" unicode="^" horiz-adv-x="440" 
d="M18 332l177 362h57l178 -362h-68l-139 289l-138 -289h-67z" />
    <glyph glyph-name="underscore" unicode="_" horiz-adv-x="500" 
d="M0 -130v61h500v-61h-500z" />
    <glyph glyph-name="grave" unicode="`" horiz-adv-x="424" 
d="M263 553l-98 167l76 25l70 -173z" />
    <glyph glyph-name="a" unicode="a" horiz-adv-x="426" 
d="M295 38c-11.333 -14.667 -27.167 -25.668 -47.5 -33.001s-43.5 -11 -69.5 -11c-24 0 -45 3.83301 -63 11.5s-32.833 18.167 -44.5 31.5s-20.334 28.833 -26.001 46.5s-8.5 36.167 -8.5 55.5c0 44 13.667 80.5 41 109.5s71 43.5 131 43.5h91v61
c0 22.667 -7.5 40.334 -22.5 53.001s-37.167 19 -66.5 19c-19.333 0 -37.5 -3.5 -54.5 -10.5s-29.167 -19.167 -36.5 -36.5l-31.5 18.5l-31.5 19.5c13.333 27.333 33.833 48.333 61.5 63s58.5 22 92.5 22c23.333 0 45.333 -2.5 66 -7.5s38.834 -13.167 54.501 -24.5
s28 -26.5 37 -45.5s13.5 -42.833 13.5 -71.5v-352h-82v36zM298.999 222.999h-97c-26 0 -47.333 -6.16699 -64 -18.5s-25 -32.5 -25 -60.5c0 -22 7.33301 -39.833 22 -53.5s37 -20.5 67 -20.5c28 0 51.167 6.33301 69.5 19s27.5 34.667 27.5 66v68z" />
    <glyph glyph-name="b" unicode="b" horiz-adv-x="432" 
d="M132 47c-0.666992 0 -0.999023 -0.167969 -0.999023 -0.500977s-0.333008 -0.5 -1 -0.5v-46h-81v726h81v-283h2c15.333 20.667 33 35.334 53 44.001s40 13 60 13c34 0 60.833 -7.16699 80.5 -21.5s34.667 -33 45 -56s16.833 -49.5 19.5 -79.5s4 -60.333 4 -91
c0 -34 -1.66699 -66.667 -5 -98s-10.333 -58.833 -21 -82.5s-25.667 -42.5 -45 -56.5s-45.333 -21 -78 -21c-23.333 0 -44.333 4.16699 -63 12.5s-35.334 21.833 -50.001 40.5zM220.001 419.999c-20.667 0 -37.1689 -5 -49.502 -15s-21.666 -22.833 -27.999 -38.5
s-10.333 -32.834 -12 -51.501s-2.5 -37 -2.5 -55c0 -19.333 0.166992 -40.166 0.5 -62.499s3.33301 -43 9 -62s14.834 -34.667 27.501 -47s31 -18.5 55 -18.5c20 0 36 4.33301 48 13s21.333 21 28 37s11 34.833 13 56.5s3 45.5 3 71.5c0 27.333 -1.16699 51.666 -3.5 72.999
s-7 39.333 -14 54s-16.5 25.834 -28.5 33.501s-27.333 11.5 -46 11.5z" />
    <glyph glyph-name="c" unicode="c" horiz-adv-x="385" 
d="M301 121c11.333 -6.66699 22.668 -12.833 34.001 -18.5s22.666 -11.834 33.999 -18.501c-13.333 -28 -33 -50 -59 -66s-57 -24 -93 -24c-37.333 0 -68 6.33301 -92 19s-43 30.5 -57 53.5s-23.667 50.833 -29 83.5s-8 68.667 -8 108c0 74 15 133 45 177s77 66 141 66
c36 0 66.833 -8.16699 92.5 -24.5s45.167 -38.5 58.5 -66.5l-66 -41c-7.33301 17.333 -18.333 30.833 -33 40.5s-31.667 14.5 -51 14.5c-22 0 -40 -4.33301 -54 -13s-24.833 -20.5 -32.5 -35.5s-12.834 -32.667 -15.501 -53s-4 -42.5 -4 -66.5s1.33301 -47.167 4 -69.5
s7.83398 -42.166 15.501 -59.499s18.334 -31.166 32.001 -41.499s31.5 -15.5 53.5 -15.5c20 0 37.167 5.16699 51.5 15.5s25.166 22.166 32.499 35.499z" />
    <glyph glyph-name="d" unicode="d" horiz-adv-x="433" 
d="M301 47c-14.667 -18.667 -31.334 -32.167 -50.001 -40.5s-39.667 -12.5 -63 -12.5c-32.667 0 -58.834 6.83301 -78.501 20.5s-34.667 32 -45 55s-17.166 49.833 -20.499 80.5s-5 62.667 -5 96c0 30.667 1.83301 61.167 5.5 91.5s11 57.5 22 81.5s26.833 43.5 47.5 58.5
s48 22.5 82 22.5c20 0 38.833 -3.66699 56.5 -11s33.834 -19.333 48.501 -36h2v273h81v-726h-81v46c-0.666992 0 -1 0.166992 -1 0.5s-0.333008 0.5 -1 0.5zM214 420c-20.667 0 -37.167 -4.66895 -49.5 -14.002s-21.666 -21.833 -27.999 -37.5s-10.5 -34 -12.5 -55
s-3 -42.833 -3 -65.5c0 -24 1 -46.667 3 -68s6.33301 -40 13 -56s16 -28.833 28 -38.5s28 -14.5 48 -14.5c24 0 42.333 6.66699 55 20s21.667 29.833 27 49.5s8.16602 40.334 8.49902 62.001s0.5 40.834 0.5 57.501c0 20.667 -1 40.5 -3 59.5s-6 36 -12 51s-15 27 -27 36
s-28 13.5 -48 13.5z" />
    <glyph glyph-name="e" unicode="e" horiz-adv-x="424" 
d="M372 89c-13.333 -29.333 -33.167 -52.4961 -59.5 -69.4961s-56.166 -25.5 -89.499 -25.5s-61.666 4.66699 -84.999 14s-42.5 24.166 -57.5 44.499s-26 46.5 -33 78.5s-10.5 70.667 -10.5 116c0 31.333 2.5 62.166 7.5 92.499s14 57.5 27 81.5s30.833 43.333 53.5 58
s51.667 22 87 22c56 0 98.833 -17.833 128.5 -53.5s44.5 -84.834 44.5 -147.501v-77h-267c0 -22 1.33301 -42.5 4 -61.5s7.66699 -35.5 15 -49.5s17.666 -25 30.999 -33s30.666 -12 51.999 -12c18 0 34.5 5.66699 49.5 17s27.167 24.666 36.5 39.999zM304.999 288.004
c0 45.333 -7.83301 79.5 -23.5 102.5s-38.5 34.5 -68.5 34.5c-34.667 0 -58.5 -12.333 -71.5 -37s-20.167 -58 -21.5 -100h185z" />
    <glyph glyph-name="f" unicode="f" horiz-adv-x="263" 
d="M154 428l0.000976562 -428h-82v428h-55v66h55v113c0 41.333 11.167 72 33.5 92s51.166 30 86.499 30h52v-75h-41c-18.667 0 -31.5 -5.5 -38.5 -16.5s-10.5 -24.5 -10.5 -40.5v-103h90v-66h-90z" />
    <glyph glyph-name="g" unicode="g" horiz-adv-x="441" 
d="M385 -4c0 -61.333 -14.501 -110.5 -43.501 -147.5s-74.833 -55.5 -137.5 -55.5c-32 0 -61 7.66699 -87 23s-45.667 37 -59 65l67 39c7.33301 -13.333 18 -25.166 32 -35.499s30.667 -15.5 50 -15.5c34 0 58.667 10 74 30s23 48 23 84v69h-2
c-15.333 -20.667 -33 -35.334 -53 -44.001s-40 -13 -60 -13c-34 0 -61 7.16699 -81 21.5s-35 33 -45 56s-16.5 49.333 -19.5 79s-4.5 60.167 -4.5 91.5c0 32 1.5 63.5 4.5 94.5s9.5 58.667 19.5 83s25 43.833 45 58.5s47 22 81 22c23.333 0 44.333 -4.16699 63 -12.5
s35.334 -21.833 50.001 -40.5c0.666992 0 1 0.166992 1 0.5s0.333008 0.5 1 0.5v46h81v-499zM210.999 75c20 0 36.166 4.5 48.499 13.5s21.833 21 28.5 36s11.167 32 13.5 51s3.5 38.833 3.5 59.5c0 19.333 -0.166992 40 -0.5 62s-3.16602 42.333 -8.49902 61
s-14.333 34.167 -27 46.5s-31 18.5 -55 18.5c-21.333 0 -38.166 -4.66699 -50.499 -14s-21.5 -22 -27.5 -38s-9.83301 -34.667 -11.5 -56s-2.5 -44 -2.5 -68c0 -26.667 1 -50.667 3 -72s6.33301 -39.333 13 -54s15.667 -26 27 -34s26.666 -12 45.999 -12z" />
    <glyph glyph-name="h" unicode="h" horiz-adv-x="438" 
d="M309 0l0.000976562 322.999c0 30 -7.5 53.667 -22.5 71s-37.5 26 -67.5 26c-28 0 -50.333 -8.66699 -67 -26s-25 -41.666 -25 -72.999v-321h-80v726h81v-287h3c14 19.333 31.333 34.333 52 45s43 16 67 16c20 0 38.5 -3.33301 55.5 -10s31.667 -16.5 44 -29.5
s22.166 -28.667 29.499 -47s11 -39.5 11 -63.5v-350h-81z" />
    <glyph glyph-name="i" unicode="i" horiz-adv-x="197" 
d="M58 615v81h81v-81h-81zM58 0v495h81v-495h-81z" />
    <glyph glyph-name="j" unicode="j" horiz-adv-x="210" 
d="M65 615v81h81v-81h-81zM146 -73c0 -18.667 -2.66602 -36.001 -7.99902 -52.001s-13.5 -30 -24.5 -42s-24.667 -21.333 -41 -28s-35.5 -10 -57.5 -10h-27v75c1.33301 0 4.66602 -0.166992 9.99902 -0.5s8.33301 -0.166016 9 0.500977c20.667 0.666992 35.5 7.5 44.5 20.5
s13.5 31.167 13.5 54.5v550h81v-568z" />
    <glyph glyph-name="k" unicode="k" horiz-adv-x="440" 
d="M345 0l-131 241l-78 -108v-133h-81v726h81v-470h2l176 239h93l-141 -189l169 -306h-90z" />
    <glyph glyph-name="l" unicode="l" horiz-adv-x="227" 
d="M185 -3c-39.333 0 -70.333 8.33301 -93 25s-33.667 47.667 -33 93v611h81v-598c0 -18.667 3.66699 -32.667 11 -42s20.333 -14 39 -14h17v-75h-22z" />
    <glyph glyph-name="m" unicode="m" horiz-adv-x="702" 
d="M649 0l-81.0029 0.00195312v294c0 18 -1.33301 34.667 -4 50s-7.16699 28.5 -13.5 39.5s-15.166 19.667 -26.499 26s-25.666 9.5 -42.999 9.5c-32 0 -55 -11.167 -69 -33.5s-21 -52.5 -21 -90.5v-295h-81v294c0 18 -1.33301 34.5 -4 49.5s-7.33398 28.167 -14.001 39.5
s-15.667 20.166 -27 26.499s-25.666 9.5 -42.999 9.5c-32 0 -55 -11.667 -69 -35s-21 -54 -21 -92v-292h-80v494h81v-53h2c28 39.333 66.333 59 115 59c27.333 0 51.333 -5.83301 72 -17.5s37 -26.834 49 -45.501h1c19.333 22 39.833 38 61.5 48s46.834 15 75.501 15
c20 0 38.5 -3.66699 55.5 -11s31.833 -17.5 44.5 -30.5s22.5 -28.667 29.5 -47s10.5 -38.833 10.5 -61.5v-350z" />
    <glyph glyph-name="n" unicode="n" horiz-adv-x="436" 
d="M308 0l0.000976562 323c0 30 -7.66699 53.5 -23 70.5s-38 25.5 -68 25.5c-27.333 0 -49.333 -8.83301 -66 -26.5s-25 -41.5 -25 -71.5v-321h-80v495h81v-55h3c14 19.333 31.333 34.166 52 44.499s43 15.5 67 15.5c20 0 38.5 -3.5 55.5 -10.5s31.667 -17 44 -30
s22.166 -28.667 29.499 -47s11 -39.166 11 -62.499v-350h-81z" />
    <glyph glyph-name="o" unicode="o" horiz-adv-x="438" 
d="M222 501c39.333 0 70.335 -7.83594 93.002 -23.5029s40.667 -35.167 54 -58.5c4.66699 -8 8.66699 -18.5 12 -31.5s6 -27.333 8 -43s3.5 -32 4.5 -49s1.5 -33.167 1.5 -48.5c0 -9.33301 -0.333008 -20.666 -1 -33.999s-1.83398 -27.333 -3.50098 -42
s-3.5 -28.667 -5.5 -42s-4.33301 -24 -7 -32c-6 -19.333 -14.833 -35.666 -26.5 -48.999s-25 -24 -40 -32s-31 -13.833 -48 -17.5s-34.5 -5.5 -52.5 -5.5c-38 0 -69.167 8 -93.5 24s-42.5 36.667 -54.5 62c-8.66699 18 -14.667 41.833 -18 71.5s-5 60.834 -5 93.501
c0 31.333 1.5 61.333 4.5 90s8.16699 52 15.5 70c13.333 30 33.666 53.667 60.999 71s61 26 101 26zM220.002 427.997c-19.333 0 -36.668 -4.66504 -52.001 -13.998s-26.666 -23.333 -33.999 -42c-4.66699 -12.667 -8.16699 -30.834 -10.5 -54.501s-3.5 -51.167 -3.5 -82.5
c0 -22 0.5 -42.667 1.5 -62s4.16699 -35.666 9.5 -48.999c7.33301 -18 18 -32 32 -42s31.667 -15 53 -15c20.667 0 38.834 5 54.501 15s27.167 26 34.5 48c3.33301 9.33301 5.66602 25.166 6.99902 47.499s2 47.166 2 74.499c0 23.333 -0.666992 45.5 -2 66.5
s-4 37.5 -8 49.5c-7.33301 20 -18.333 35 -33 45s-31.667 15 -51 15z" />
    <glyph glyph-name="p" unicode="p" horiz-adv-x="432" 
d="M127 448c14.667 18.667 31.333 32.166 50 40.499s39.667 12.5 63 12.5c32.667 0 58.667 -6.83301 78 -20.5s34.333 -32 45 -55s17.667 -49.833 21 -80.5s5 -62.667 5 -96c0 -31.333 -1.83301 -62.166 -5.5 -92.499s-11.167 -57.5 -22.5 -81.5s-27.333 -43.333 -48 -58
s-47.667 -22 -81 -22c-41.333 0 -76.333 16.333 -105 49h-2v-244h-81v695h81v-46c0.666992 0 1 -0.166992 1 -0.5s0.333008 -0.5 1 -0.5zM213.999 74.999c20.667 0 36.999 4.66602 48.999 13.999s21.333 21.833 28 37.5s11 33.834 13 54.501s3 42.667 3 66
c0 24 -1 46.667 -3 68s-6.16699 40 -12.5 56s-15.5 28.833 -27.5 38.5s-28.333 14.5 -49 14.5c-24 0 -42.333 -6.16699 -55 -18.5s-21.667 -27.833 -27 -46.5s-8.16602 -39.167 -8.49902 -61.5s-0.5 -43.166 -0.5 -62.499c0 -18 0.833008 -36.333 2.5 -55
s5.5 -35.834 11.5 -51.501s15 -28.5 27 -38.5s28.333 -15 49 -15z" />
    <glyph glyph-name="q" unicode="q" horiz-adv-x="440" 
d="M307 448c0.666992 0 0.996094 0.167969 0.996094 0.500977s0.333008 0.5 1 0.5v46h81v-697h-81v254h-2c-15.333 -20.667 -33 -35.334 -53 -44.001s-40 -13 -60 -13c-34 0 -61 7.16699 -81 21.5s-35.167 33 -45.5 56s-17 49.333 -20 79s-4.5 60.167 -4.5 91.5
c0 32 1.83301 63.5 5.5 94.5s10.834 58.667 21.501 83s25.834 43.833 45.501 58.5s45.834 22 78.501 22c23.333 0 44.333 -4.16699 63 -12.5s35.334 -21.833 50.001 -40.5zM218.996 75.001c20 0 36 5 48 15s21.167 22.833 27.5 38.5s10.5 32.834 12.5 51.501s3 37 3 55
c0 19.333 -0.166992 40.166 -0.5 62.499s-3.16602 43 -8.49902 62s-14.333 34.667 -27 47s-31 18.5 -55 18.5c-20 0 -36 -4.83301 -48 -14.5s-21.333 -22.667 -28 -39s-11 -35.166 -13 -56.499s-3 -44 -3 -68c0 -23.333 0.833008 -45.333 2.5 -66
s5.66699 -38.834 12 -54.501s15.666 -28.167 27.999 -37.5s28.833 -14 49.5 -14z" />
    <glyph glyph-name="r" unicode="r" horiz-adv-x="311" 
d="M142 435c15.333 26 32.668 43.5 52.001 52.5s42.333 13.5 69 13.5c19.333 -1.33301 34.333 -5 45 -11l-18 -87c-16 7.33301 -32.333 11 -49 11c-30.667 0 -55.334 -8.5 -74.001 -25.5s-28 -44.167 -28 -81.5v-307h-80v494h80v-59h3z" />
    <glyph glyph-name="s" unicode="s" horiz-adv-x="405" 
d="M93 136c10.667 -21.333 24.8311 -37.999 42.498 -49.999s39.834 -18 66.501 -18c28 0 49.833 5.83301 65.5 17.5s23.5 30.5 23.5 56.5c0 12.667 -2.33301 23 -7 31s-11.167 14.667 -19.5 20s-18.166 9.83301 -29.499 13.5l-37 11.5c-24 6 -45.667 12.833 -65 20.5
s-36 17 -50 28s-24.667 24 -32 39s-11 33.167 -11 54.5c0 44 14.333 78.5 43 103.5s68 37.5 118 37.5c44.667 0 79.5 -8.33301 104.5 -25s43.167 -40 54.5 -70l-63 -39c-19.333 40 -51.666 60 -96.999 60c-30 0 -50.833 -6.83301 -62.5 -20.5s-17.5 -29.167 -17.5 -46.5
c0 -11.333 3 -20.666 9 -27.999s14.167 -13.5 24.5 -18.5s22.333 -9.5 36 -13.5l42.5 -12c23.333 -5.33301 43.666 -11.833 60.999 -19.5s31.833 -17.334 43.5 -29.001s20.334 -25.5 26.001 -41.5s8.5 -35.333 8.5 -58c0 -44.667 -15 -80.334 -45 -107.001s-72 -40 -126 -40
c-42.667 0 -78.334 9 -107.001 27s-50.667 44 -66 78z" />
    <glyph glyph-name="t" unicode="t" horiz-adv-x="255" 
d="M185 0c-38 0 -66.5 10.833 -85.5 32.5s-28.5 48.5 -28.5 80.5v316h-55v66h55v127h81v-127h70v-66h-70v-293c0 -20.667 4 -36.167 12 -46.5s21 -15.5 39 -15.5h27v-74h-45z" />
    <glyph glyph-name="u" unicode="u" horiz-adv-x="442" 
d="M309 0l-0.00195312 53.001h-3c-14 -20 -31.5 -34.833 -52.5 -44.5s-43.167 -14.5 -66.5 -14.5c-20 0 -38.667 3.5 -56 10.5s-32.166 17 -44.499 30s-22.166 28.667 -29.499 47s-11 39.166 -11 62.499v350h81v-323c0 -30 8.16699 -53.833 24.5 -71.5
s38.5 -26.5 66.5 -26.5c27.333 0 49.333 9 66 27s25 42.333 25 73v321h80v-494h-80z" />
    <glyph glyph-name="v" unicode="v" horiz-adv-x="395" 
d="M201 116c2 6 5.16602 17.1689 9.49902 33.502l13.5 52l13 51.5c4 16 7 27 9 33c2.66699 8.66699 6.66699 22.834 12 42.501l16 62l15.5 61.5c5 19.333 9.16699 33.666 12.5 42.999h87c-5.33301 -14 -11.833 -33.833 -19.5 -59.5l-26 -87l-29.5 -101l-29.5 -101
l-26.5 -87.5c-8 -26 -14.333 -45.667 -19 -59h-82c-5.33301 13.333 -12 33 -20 59l-26 87.5l-29.5 101l-29.5 101c-9.33301 32.333 -18.166 61.333 -26.499 87l-19.5 59.5h87c2.66699 -8.66699 6.66699 -22.834 12 -42.501l17 -62.5l16.5 -62.5
c5 -19.667 9.16699 -33.834 12.5 -42.501l47 -169h3z" />
    <glyph glyph-name="w" unicode="w" horiz-adv-x="635" 
d="M490 0l-79 -0.000976562l-32.5 119.5c-11 39.667 -21.5 79.834 -31.5 120.501l-31 115h-2l-16 -64.5l-16 -63.5l-60 -227h-80l-134 495h86l32.5 -131l31.5 -131l24 -102h4l25 101l33 130.5l34 132.5h79l32.5 -128l31.5 -128l27 -113h4l25 108l30.5 130.5l30.5 130.5h87z
" />
    <glyph glyph-name="x" unicode="x" horiz-adv-x="394" 
d="M295 0l-97 190l-98 -190h-91l145 254l-138 241h91l91 -181l90 181h91l-138 -242l145 -253h-91z" />
    <glyph glyph-name="y" unicode="y" horiz-adv-x="384" 
d="M206 -99c-10.667 -35.333 -26.999 -61.333 -48.999 -78s-48.667 -25 -80 -25h-26v70h24c31.333 0 52.666 23.667 63.999 71l21 73l-159 483h86l61 -198l47 -167h3l44 167l58 198h84z" />
    <glyph glyph-name="z" unicode="z" horiz-adv-x="370" 
d="M29 0v71l222 352h-208v71h299v-69l-221 -349h221v-76h-313z" />
    <glyph glyph-name="braceleft" unicode="{" horiz-adv-x="246" 
d="M178 -103c-25.333 0 -46.667 9.66797 -64 29.001s-26 45.333 -26 78v139c0 35.333 -5.5 64.666 -16.5 87.999s-29.167 36.666 -54.5 39.999v51c12.667 2 23.5 6.83301 32.5 14.5s16.333 17.334 22 29.001s9.83398 25 12.501 40s4 30.5 4 46.5v137
c0 33.333 8.66699 59.666 26 78.999s38.666 29 63.999 29h56v-54h-30c-8.66699 0 -15.834 -2.66699 -21.501 -8s-10.334 -12.166 -14.001 -20.499s-6.16699 -17.666 -7.5 -27.999s-2 -20.5 -2 -30.5v-126c0 -21.333 -2.5 -39.833 -7.5 -55.5s-11.167 -28.834 -18.5 -39.501
s-14.833 -18.834 -22.5 -24.501s-14.167 -9.5 -19.5 -11.5v-3c5.33301 -2 11.833 -5.83301 19.5 -11.5s15.167 -13.834 22.5 -24.501s13.5 -23.667 18.5 -39s7.5 -33.333 7.5 -54v-130c0 -10 0.666992 -20.167 2 -30.5s3.83301 -19.666 7.5 -27.999
s8.33398 -15.166 14.001 -20.499s12.834 -8 21.501 -8h30v-53h-56z" />
    <glyph glyph-name="bar" unicode="|" horiz-adv-x="207" 
d="M72 -162v878h64v-878h-64z" />
    <glyph glyph-name="braceright" unicode="}" horiz-adv-x="246" 
d="M232 271c-25.333 -3.33301 -43.3359 -16.666 -54.0029 -39.999s-16 -52.666 -16 -87.999v-139c0 -32.667 -8.66699 -58.667 -26 -78s-38.666 -29 -63.999 -29h-57v53h31c8.66699 0 15.834 2.66699 21.501 8s10.334 12.166 14.001 20.499s6.16699 17.666 7.5 27.999
s2 20.5 2 30.5v130c0 20.667 2.5 38.667 7.5 54s11.167 28.333 18.5 39s14.833 18.834 22.5 24.501s14.167 9.5 19.5 11.5v3c-5.33301 2 -11.833 5.83301 -19.5 11.5s-15.167 13.834 -22.5 24.501s-13.5 23.834 -18.5 39.501s-7.5 34.167 -7.5 55.5v126
c0 10 -0.5 20.167 -1.5 30.5s-3 19.666 -6 27.999s-7.5 15.166 -13.5 20.499s-14 8 -24 8h-31v52h56c28 0 50.167 -9.66699 66.5 -29s24.5 -45 24.5 -77v-137c0 -16 1.33301 -31.5 4 -46.5s6.66699 -28.333 12 -40s12.5 -21.334 21.5 -29.001s19.833 -12.5 32.5 -14.5v-51v0
z" />
    <glyph glyph-name="asciitilde" unicode="~" horiz-adv-x="440" 
d="M423 289c-15.333 -25.333 -32.1729 -46 -50.5059 -62s-41.166 -24 -68.499 -24c-12.667 0 -26 3 -40 9s-28.333 12.5 -43 19.5s-29.167 13.5 -43.5 19.5s-28.5 9 -42.5 9c-15.333 0 -27.166 -3.66699 -35.499 -11s-19.166 -18.666 -32.499 -33.999l-49 34
c14.667 25.333 31.834 45.166 51.501 59.499s41.834 21.5 66.501 21.5c16 0 31.167 -2.83301 45.5 -8.5s28.5 -12 42.5 -19s27.667 -13.333 41 -19s26.666 -8.5 39.999 -8.5c14.667 0 26.334 4.16699 35.001 12.5s19.334 20.5 32.001 36.5l51 -35v0z" />
    <glyph glyph-name="exclamdown" unicode="&#xa1;" horiz-adv-x="235" 
d="M157 0h-79l8 519h63zM161 696v-89h-85v89h85z" />
    <glyph glyph-name="cent" unicode="&#xa2;" horiz-adv-x="440" 
d="M204 -117l0.00195312 113.001c-30 4 -55 13 -75 27s-35.667 32.333 -47 55s-19.333 49.167 -24 79.5s-7 63.833 -7 100.5c0 66.667 12.333 121.5 37 164.5s63.334 68.167 116.001 75.5v103h45v-101c33.333 -2 61.666 -11 84.999 -27s41.333 -37 54 -63l-66 -41
c-14.667 32.667 -39 50.667 -73 54v-353c17.333 2.66699 32 8.83398 44 18.501s21.333 20.5 28 32.5c11.333 -6.66699 22.666 -12.834 33.999 -18.501s22.666 -11.834 33.999 -18.501c-12.667 -26 -31 -47 -55 -63s-52.333 -24.667 -85 -26v-112h-45zM132.002 256.001
c0 -20.667 1 -40.833 3 -60.5s5.66699 -37.5 11 -53.5s12.666 -29.833 21.999 -41.5s21.333 -20.167 36 -25.5v344c-15.333 -4 -27.666 -11 -36.999 -21s-16.5 -22.167 -21.5 -36.5s-8.5 -30.5 -10.5 -48.5s-3 -37 -3 -57z" />
    <glyph glyph-name="sterling" unicode="&#xa3;" horiz-adv-x="440" 
d="M32 364l61 0.00390625c-3.33301 16.667 -7.33301 32.167 -12 46.5l-13 41c-4 13 -7.5 26.167 -10.5 39.5s-4.5 27.666 -4.5 42.999c0 23.333 3.83301 45.166 11.5 65.499s18.667 38 33 53s31.833 26.833 52.5 35.5s43.667 13 69 13c42 0 79.833 -10 113.5 -30
s58.834 -53.667 75.501 -101l-76 -29c-14.667 33.333 -31 55.5 -49 66.5s-38.333 16.5 -61 16.5c-20.667 0 -39.334 -7.83301 -56.001 -23.5s-25 -38.5 -25 -68.5c0 -12.667 1.5 -25.334 4.5 -38.001s6.5 -25.834 10.5 -39.501l12.5 -43
c4.33301 -15 7.83301 -30.833 10.5 -47.5h127v-66h-121c0 -44 -4.5 -83.333 -13.5 -118s-23.167 -69.667 -42.5 -105h262v-75h-360v67c19.333 30.667 35.5 61.5 48.5 92.5s20.833 66.5 23.5 106.5l2 32h-73v66z" />
    <glyph glyph-name="currency" unicode="&#xa4;" horiz-adv-x="556" 
d="M142 319c0 -18 3.66699 -35.167 11 -51.5s17 -30.5 29 -42.5s26 -21.5 42 -28.5s33 -10.5 51 -10.5c18.667 0 36.167 3.5 52.5 10.5s30.5 16.5 42.5 28.5s21.5 26 28.5 42s10.5 33.333 10.5 52s-3.5 36.167 -10.5 52.5s-16.5 30.5 -28.5 42.5s-26.167 21.5 -42.5 28.5
s-33.833 10.5 -52.5 10.5c-18 0 -35 -3.5 -51 -10.5s-30.167 -16.5 -42.5 -28.5s-22 -26.167 -29 -42.5s-10.5 -33.833 -10.5 -52.5zM40 505l49.0049 48.999l68 -68c19.333 12.667 38.666 22.167 57.999 28.5s39.666 9.5 60.999 9.5s41.666 -3.16699 60.999 -9.5
s38.666 -15.833 57.999 -28.5l67 68l49 -50l-68 -67c25.333 -38.667 38 -78 38 -118c0 -41.333 -12.667 -80.666 -38 -117.999l68 -66l-49 -50l-67 68c-37.333 -26 -77 -39 -119 -39c-42.667 0 -82.334 13 -119.001 39l-68 -68l-49 49l69 67c-14 18 -23.833 37 -29.5 57
s-8.5 40.333 -8.5 61c0 40 12.667 79.333 38 118z" />
    <glyph glyph-name="yen" unicode="&#xa5;" horiz-adv-x="440" 
d="M283 347h111v-51h-130l-5 -15v-64h135v-52h-135v-165h-76v165h-134v52h134v63l-5 16h-129v51h109l-137 349h82l57.5 -157.5l57.5 -157.5h4l57 157.5l56 157.5h83z" />
    <glyph glyph-name="brokenbar" unicode="&#xa6;" horiz-adv-x="207" 
d="M72 297v419h64v-419h-64zM136 256v-418h-64v418h64z" />
    <glyph glyph-name="section" unicode="&#xa7;" horiz-adv-x="445" 
d="M413 289c0 -22.667 -4.66602 -43.6621 -13.999 -62.9951s-22.666 -36 -39.999 -50c11.333 -14 20.5 -29.167 27.5 -45.5s10.5 -33.833 10.5 -52.5c0 -46 -16.167 -83 -48.5 -111s-76.833 -42 -133.5 -42c-32.667 0 -64.167 6.5 -94.5 19.5s-55.166 29.5 -74.499 49.5
c8 8 15.667 16.333 23 25s15 17 23 25c19.333 -19.333 39.166 -32.666 59.499 -39.999s41.833 -11 64.5 -11c32.667 0 58 7 76 21s27 34.333 27 61c0 23.333 -10 43.166 -30 59.499s-49 33.166 -87 50.499c-24 10 -45.333 20.167 -64 30.5s-34.334 21.666 -47.001 33.999
s-22.167 26.166 -28.5 41.499s-9.5 33.333 -9.5 54c0 21.333 5.33301 42 16 62s24.667 36.667 42 50c-13.333 13.333 -23.666 27.666 -30.999 42.999s-11 33.666 -11 54.999s4.16699 41 12.5 59s19.833 33.5 34.5 46.5s32.167 23.167 52.5 30.5s42.166 11 65.499 11
c64.667 0 118.667 -20 162 -60c-7.33301 -9.33301 -15 -18.333 -23 -27l-24 -27c-21.333 18 -41.5 30.167 -60.5 36.5s-37.5 9.5 -55.5 9.5c-27.333 0 -48.5 -7 -63.5 -21s-22.5 -31.333 -22.5 -52c0 -12 3 -22.833 9 -32.5s14 -18.334 24 -26.001s21.667 -15 35 -22
s27.666 -13.833 42.999 -20.5c18.667 -8.66699 37.167 -18 55.5 -28s34.833 -21.833 49.5 -35.5s26.667 -29.167 36 -46.5s14 -37.666 14 -60.999zM339.001 290.005c0 23.333 -9.99902 42 -29.999 56s-48 28.667 -84 44c-8.66699 4 -17.5 7.66699 -26.5 11
s-18.167 7.66602 -27.5 12.999c-13.333 -5.33301 -23.833 -13.5 -31.5 -24.5s-11.5 -23.833 -11.5 -38.5c0 -10 2.83301 -19.5 8.5 -28.5s13 -17.5 22 -25.5s19.333 -15.167 31 -21.5s23.5 -12.166 35.5 -17.499l40 -17.5c13.333 -5.66699 25.666 -11.834 36.999 -18.501
c12.667 6.66699 22 15.834 28 27.501s9 24.167 9 37.5v3z" />
    <glyph glyph-name="dieresis" unicode="&#xa8;" horiz-adv-x="427" 
d="M257 593v84h78v-84h-78zM90 593v84h79v-84h-79z" />
    <glyph glyph-name="copyright" unicode="&#xa9;" horiz-adv-x="753" 
d="M499 207c-7.33301 -28 -22.167 -49.834 -44.5 -65.501s-47.833 -23.5 -76.5 -23.5c-40 0 -71.333 12.167 -94 36.5s-34 55.5 -34 93.5v176c0 36 11.167 66.333 33.5 91s53.833 37 94.5 37c28.667 0 54 -7.66699 76 -23s37 -37 45 -65l-56 -22
c-4 15.333 -11.5 27.833 -22.5 37.5s-25.167 14.5 -42.5 14.5c-22.667 0 -39.667 -7.16699 -51 -21.5s-17 -30.166 -17 -47.499v-179c0 -18 5.66699 -34.333 17 -49s28.333 -22 51 -22c16 0 29.833 4.83301 41.5 14.5s19.5 22.5 23.5 38.5zM375.999 -8.00098
c-50 0 -94.999 8.83301 -134.999 26.5s-74.167 42.167 -102.5 73.5s-50 68.166 -65 110.499s-22.5 88.5 -22.5 138.5s7.66699 96.5 23 139.5s37.166 80.167 65.499 111.5s62.5 55.833 102.5 73.5s84.667 26.5 134 26.5c48.667 0 93.167 -8.83301 133.5 -26.5
s74.666 -42.167 102.999 -73.5s50.333 -68.5 66 -111.5s23.5 -89.5 23.5 -139.5s-7.83301 -96.167 -23.5 -138.5s-37.667 -79.166 -66 -110.499s-62.666 -55.833 -102.999 -73.5s-84.833 -26.5 -133.5 -26.5zM376 635.999c-41.333 0 -78.3311 -7.66699 -110.998 -23
s-60.334 -36.166 -83.001 -62.499s-40.167 -57.5 -52.5 -93.5s-18.5 -74.667 -18.5 -116s6.33301 -79.666 19 -114.999s30.5 -66.333 53.5 -93s50.833 -47.5 83.5 -62.5s69 -22.5 109 -22.5c40.667 0 77.5 7.5 110.5 22.5s60.833 35.833 83.5 62.5s40.167 57.667 52.5 93
s18.5 73.666 18.5 114.999s-6.16699 80 -18.5 116s-30 67.167 -53 93.5s-50.833 47.166 -83.5 62.499s-69.334 23 -110.001 23z" />
    <glyph glyph-name="ordfeminine" unicode="&#xaa;" horiz-adv-x="294" 
d="M145 610c17.333 0 33.5 -1.5 48.5 -4.5s28 -8.33301 39 -16s19.5 -18 25.5 -31s9 -29.167 9 -48.5v-231h-66v32c-9.33301 -11.333 -20.666 -20.166 -33.999 -26.499s-28.666 -9.5 -45.999 -9.5s-32.333 2.66699 -45 8s-23 12.5 -31 21.5s-14 19.5 -18 31.5
s-6 24.667 -6 38c0 12.667 1.83301 25.167 5.5 37.5s9.66699 23.166 18 32.499s19.166 17 32.499 23s29.666 9 48.999 9h75v34c0 13.333 -4.16699 23.5 -12.5 30.5s-22.833 10.5 -43.5 10.5c-28.667 0 -48.667 -10.333 -60 -31l-51 29c9.33301 19.333 23.833 34.333 43.5 45
s42.167 16 67.5 16zM85 377c0 -28.667 17.333 -43 52 -43c18 0 33.167 3.83301 45.5 11.5s18.5 20.5 18.5 38.5v37h-61c-16.667 0 -30 -3.5 -40 -10.5s-15 -18.167 -15 -33.5z" />
    <glyph glyph-name="guillemotleft" unicode="&#xab;" horiz-adv-x="447" 
d="M328 46l-117 186l117 186h78l-114 -186l114 -186h-78zM161 46l-117 186l117 186h78l-115 -186l115 -186h-78z" />
    <glyph glyph-name="logicalnot" unicode="&#xac;" horiz-adv-x="440" 
d="M420 85h-62v178h-339v62h402z" />
    <glyph glyph-name="sfthyphen" unicode="&#xad;" horiz-adv-x="369" 
d="M51 222v71h273v-71h-273z" />
    <glyph glyph-name="registered" unicode="&#xae;" horiz-adv-x="523" 
d="M261 278c-30.667 0 -58.334 5.33301 -83.001 16s-45.834 25.5 -63.501 44.5s-31.167 41.5 -40.5 67.5s-14 54.333 -14 85s4.66699 59.167 14 85.5s22.833 49 40.5 68s38.834 34 63.501 45s52.334 16.5 83.001 16.5c30 0 57.167 -5.5 81.5 -16.5s45.333 -26 63 -45
s31.167 -41.667 40.5 -68s14 -54.833 14 -85.5s-4.66699 -59 -14 -85s-22.833 -48.5 -40.5 -67.5s-38.667 -33.833 -63 -44.5s-51.5 -16 -81.5 -16zM261 670c-25.333 0 -47.832 -4.66406 -67.499 -13.9971s-36.334 -22 -50.001 -38s-24.167 -34.833 -31.5 -56.5
s-11 -44.834 -11 -69.501c0 -25.333 3.83301 -48.833 11.5 -70.5s18.5 -40.334 32.5 -56.001s30.833 -27.834 50.5 -36.501s41.5 -13 65.5 -13c24.667 0 46.834 4.5 66.501 13.5s36.167 21.333 49.5 37s23.666 34.167 30.999 55.5s11 44.666 11 69.999
c0 24.667 -3.66699 47.834 -11 69.501s-18 40.5 -32 56.5s-30.667 28.667 -50 38s-41 14 -65 14zM305.001 362.003l-21.999 52.501l-22 52.5h-33v-105h-42v255h73c24.667 0 45 -5.5 61 -16.5s24 -30.5 24 -58.5c0 -32.667 -13.667 -55.667 -41 -69l25.5 -55
c8.33301 -18.667 16.166 -37.334 23.499 -56.001h-47zM302.002 542.004c0 15.333 -4.16602 25.333 -12.499 30s-20.833 7 -37.5 7h-24v-75h32c13.333 0 23.666 3 30.999 9s11 15.667 11 29z" />
    <glyph glyph-name="macron" unicode="&#xaf;" horiz-adv-x="426" 
d="M100 588v75h248v-75h-248z" />
    <glyph glyph-name="degree" unicode="&#xb0;" horiz-adv-x="333" 
d="M286 584c0 -16 -3.16699 -31.167 -9.5 -45.5s-14.833 -26.833 -25.5 -37.5s-23.167 -19 -37.5 -25s-29.5 -9 -45.5 -9s-31.167 3 -45.5 9s-26.833 14.333 -37.5 25s-19 23.167 -25 37.5s-9 29.5 -9 45.5s3 31.167 9 45.5s14.333 26.833 25 37.5s23.167 19 37.5 25
s29.5 9 45.5 9s31.167 -3 45.5 -9s26.833 -14.333 37.5 -25s19.167 -23.167 25.5 -37.5s9.5 -29.5 9.5 -45.5zM236 584c0 19.333 -6.5 35.5 -19.5 48.5s-29.167 19.5 -48.5 19.5c-18.667 0 -34.667 -6.5 -48 -19.5s-20 -29.167 -20 -48.5s6.66699 -35.666 20 -48.999
s29.333 -20 48 -20c19.333 0 35.5 6.66699 48.5 20s19.5 29.666 19.5 48.999z" />
    <glyph glyph-name="plusminus" unicode="&#xb1;" horiz-adv-x="440" 
d="M253 278v-169h-61v169h-168v62h168v169h61v-169h168v-62h-168zM24 0v62h397v-62h-397z" />
    <glyph glyph-name="twosuperior" unicode="&#xb2;" horiz-adv-x="279" 
d="M26 371l-0.00195312 52.0039l145 203c13.333 19.333 20 39.666 20 60.999c0 11.333 -3.66699 21.833 -11 31.5s-19.666 14.5 -36.999 14.5c-15.333 0 -27.666 -5.83301 -36.999 -17.5s-14.666 -28.167 -15.999 -49.5l-64 9c2.66699 35.333 14.167 63.333 34.5 84
s48.166 31 83.499 31s63 -8.83301 83 -26.5s30 -42.834 30 -75.501c0 -14.667 -2.5 -29.834 -7.5 -45.501s-12.833 -30.834 -23.5 -45.501l-121 -167h148v-59h-227z" />
    <glyph glyph-name="threesuperior" unicode="&#xb3;" horiz-adv-x="281" 
d="M141 788c20.667 0 38.165 -3.00293 52.498 -9.00293s25.833 -14 34.5 -24s15 -21.667 19 -35s6 -27.333 6 -42c0 -17.333 -2.33301 -34 -7 -50s-16 -29.667 -34 -41c17.333 -10 28.833 -22.667 34.5 -38s8.5 -34.666 8.5 -57.999c0 -38 -9.5 -68.5 -28.5 -91.5
s-48.5 -34.5 -88.5 -34.5c-34 0 -60.667 8.5 -80 25.5s-30.333 42.833 -33 77.5l64 8c2 -37.333 18.667 -56 50 -56c21.333 0 35.5 7.83301 42.5 23.5s10.5 32.834 10.5 51.501s-4.16699 33.834 -12.5 45.501s-23.166 17.5 -44.499 17.5h-32v53h30c22 0 36.833 6 44.5 18
s11.5 27 11.5 45s-3.83301 32 -11.5 42s-20.167 15 -37.5 15c-13.333 0 -24.666 -5 -33.999 -15s-15.333 -23.667 -18 -41l-64 9c3.33301 30 15.333 54.833 36 74.5s47.667 29.5 81 29.5z" />
    <glyph glyph-name="acute" unicode="&#xb4;" horiz-adv-x="424" 
d="M165 572l70 173l76 -25l-98 -167z" />
    <glyph glyph-name="mu" unicode="&#xb5;" horiz-adv-x="454" 
d="M320 52l-3.00098 -0.000976562c-14 -19.333 -31.5 -33.666 -52.5 -42.999s-43.167 -14 -66.5 -14c-21.333 0 -41 5 -59 15l-1 -212h-81v696h81v-294c0 -18 1.66699 -34.5 5 -49.5s8.5 -28.167 15.5 -39.5s16.333 -20.166 28 -26.499s25.834 -9.5 42.501 -9.5
c17.333 0 31.833 3.16699 43.5 9.5s21 15.333 28 27s12 25.667 15 42s4.5 34.166 4.5 53.499v287h80v-494h-80v52z" />
    <glyph glyph-name="mu" unicode="&#x3bc;" horiz-adv-x="454" 
d="M320 52l-3.00098 -0.000976562c-14 -19.333 -31.5 -33.666 -52.5 -42.999s-43.167 -14 -66.5 -14c-21.333 0 -41 5 -59 15l-1 -212h-81v696h81v-294c0 -18 1.66699 -34.5 5 -49.5s8.5 -28.167 15.5 -39.5s16.333 -20.166 28 -26.499s25.834 -9.5 42.501 -9.5
c17.333 0 31.833 3.16699 43.5 9.5s21 15.333 28 27s12 25.667 15 42s4.5 34.166 4.5 53.499v287h80v-494h-80v52z" />
    <glyph glyph-name="paragraph" unicode="&#xb6;" horiz-adv-x="485" 
d="M206 324h-2.99805c-30.667 0 -56.334 5.66699 -77.001 17s-37.334 26 -50.001 44s-21.667 37.667 -27 59s-8 42 -8 62c0 18.667 2.16699 39.667 6.5 63s12.666 45 24.999 65s29.833 36.833 52.5 50.5s52.334 20.5 89.001 20.5h226v-65h-36v-722h-63v722h-72v-722h-63v406
z" />
    <glyph glyph-name="periodcentered" unicode="&#xb7;" horiz-adv-x="215" 
d="M59 223v101h95v-101h-95z" />
    <glyph glyph-name="cedilla" unicode="&#xb8;" horiz-adv-x="431" 
d="M236 26l-22.002 -73.001c17.333 -1.33301 31.666 -4.66602 42.999 -9.99902s20.5 -12 27.5 -20s11.833 -16.333 14.5 -25s4 -17 4 -25s-1.66699 -16.667 -5 -26s-8.66602 -17.833 -15.999 -25.5s-17 -14 -29 -19s-26.333 -7.5 -43 -7.5h-14
c-6.66699 0 -14.167 0.5 -22.5 1.5s-17.166 2.66699 -26.499 5s-18 5.5 -26 9.5l14 37c12.667 -6 24.834 -9.66699 36.501 -11s22.167 -2 31.5 -2c11.333 0 21.5 3.33301 30.5 10s13.5 15.667 13.5 27c0 13.333 -5.16699 24 -15.5 32s-26.5 11.333 -48.5 10l-18 15l30 100z
" />
    <glyph glyph-name="onesuperior" unicode="&#xb9;" horiz-adv-x="241" 
d="M173 371h-63v350l-62 -43v65l64 45h61v-417z" />
    <glyph glyph-name="ordmasculine" unicode="&#xba;" horiz-adv-x="302" 
d="M154 610c27.333 0 49.501 -5.16406 66.501 -15.4971s30.167 -23.833 39.5 -40.5c11.333 -20 17 -56.333 17 -109c0 -26.667 -1.16699 -49.334 -3.5 -68.001s-7.16602 -34.334 -14.499 -47.001c-11.333 -19.333 -26.833 -33.5 -46.5 -42.5s-40.834 -13.5 -63.501 -13.5
c-30 0 -54.667 6.16699 -74 18.5s-32.666 29.166 -39.999 50.499c-4 11.333 -6.66699 26 -8 44s-2 35.667 -2 53s0.666992 34 2 50s4.66602 30.667 9.99902 44c9.33301 24.667 23.166 43.5 41.499 56.5s43.5 19.5 75.5 19.5zM152.001 552.003
c-21.333 0 -36.998 -7.66406 -46.998 -22.9971c-4.66699 -6.66699 -8.33398 -18.834 -11.001 -36.501s-4 -37.167 -4 -58.5c0 -12 0.166992 -23.333 0.5 -34s2.16602 -20 5.49902 -28c4 -12.667 10.333 -22.5 19 -29.5s20.667 -10.5 36 -10.5
c27.333 0 45.666 12.333 54.999 37c3.33301 7.33301 5.33301 17.666 6 30.999s1 28.666 1 45.999c0 16 -0.5 29.333 -1.5 40s-2.5 19.667 -4.5 27c-7.33301 26 -25.666 39 -54.999 39z" />
    <glyph glyph-name="guillemotright" unicode="&#xbb;" horiz-adv-x="447" 
d="M45 46l114 186l-114 186h78l117 -186l-117 -186h-78zM212 46l115 186l-115 186h78l117 -186l-117 -186h-78z" />
    <glyph glyph-name="onequarter" unicode="&#xbc;" horiz-adv-x="640" 
d="M549 62v-62h-63v62h-162v53l124 302h67l-123 -299h94v116h63v-116h35v-56h-35zM130 -17h-56l369 731h57zM181 279h-63v350l-62 -43v65l64 45h61v-417z" />
    <glyph glyph-name="onehalf" unicode="&#xbd;" horiz-adv-x="640" 
d="M358 0l-0.00195312 52.0039l145 203c13.333 19.333 20 39.666 20 60.999c0 11.333 -3.66699 21.833 -11 31.5s-19.666 14.5 -36.999 14.5c-15.333 0 -27.666 -5.83301 -36.999 -17.5s-14.666 -28.167 -15.999 -49.5l-64 9c2.66699 35.333 14.167 63.333 34.5 84
s48.166 31 83.499 31s63 -8.83301 83 -26.5s30 -42.834 30 -75.501c0 -14.667 -2.5 -29.834 -7.5 -45.501s-12.833 -30.834 -23.5 -45.501l-121 -167h148v-59h-227zM125.998 -16.9961h-56l369 731h57zM174.998 279.004h-63v350l-62 -43v65l64 45h61v-417z" />
    <glyph glyph-name="threequarters" unicode="&#xbe;" horiz-adv-x="640" 
d="M143 698c20.667 0 38.165 -3.00293 52.498 -9.00293s25.833 -14 34.5 -24s15 -21.667 19 -35s6 -27.333 6 -42c0 -17.333 -2.33301 -34 -7 -50s-16 -29.667 -34 -41c17.333 -10 28.833 -22.667 34.5 -38s8.5 -34.666 8.5 -57.999c0 -38 -9.5 -68.5 -28.5 -91.5
s-48.5 -34.5 -88.5 -34.5c-34 0 -60.667 8.5 -80 25.5s-30.333 42.833 -33 77.5l64 8c2 -37.333 18.667 -56 50 -56c21.333 0 35.5 7.83301 42.5 23.5s10.5 32.834 10.5 51.501s-4.16699 33.834 -12.5 45.501s-23.166 17.5 -44.499 17.5h-32v53h30c22 0 36.833 6 44.5 18
s11.5 27 11.5 45s-3.83301 32 -11.5 42s-20.167 15 -37.5 15c-13.333 0 -24.666 -5 -33.999 -15s-15.333 -23.667 -18 -41l-64 9c3.33301 30 15.333 54.833 36 74.5s47.667 29.5 81 29.5zM573.998 61.9971v-62h-63v62h-162v53l124 302h67l-123 -299h94v116h63v-116h35v-56
h-35zM167.998 -17.0029h-56l369 731h57z" />
    <glyph glyph-name="questiondown" unicode="&#xbf;" horiz-adv-x="434" 
d="M56 -33c0 16 1.17285 30.3359 3.50586 43.0029s5.66602 24.5 9.99902 35.5s9.66602 21.5 15.999 31.5l21.5 33c7.33301 10.667 15.666 21.5 24.999 32.5s18.166 22.5 26.499 34.5s15.333 24.167 21 36.5s8.5 25.166 8.5 38.499v60h83v-47
c0 -24 -2.83301 -45.333 -8.5 -64s-15.167 -36.667 -28.5 -54l-35 -46c-10.667 -14 -20 -27.167 -28 -39.5s-14.5 -24.166 -19.5 -35.499s-7.83301 -23 -8.5 -35c0 -14 1 -28.167 3 -42.5s6.33301 -27.333 13 -39s16.167 -21.167 28.5 -28.5s29.166 -11 50.499 -11
c15.333 0 29.166 3.16699 41.499 9.5s22.666 14.666 30.999 24.999s14.833 22.166 19.5 35.499s7.33398 26.666 8.00098 39.999l83 -12c-4 -30 -11.667 -56.167 -23 -78.5s-25.333 -40.833 -42 -55.5s-35.5 -25.5 -56.5 -32.5s-43.167 -10.5 -66.5 -10.5
c-58 0 -102 16 -132 48s-45 74.667 -45 128zM273.006 492.003v-89h-84v89h84z" />
    <glyph glyph-name="Agrave" unicode="&#xc0;" horiz-adv-x="497" 
d="M403 0l-44 158h-222l-43 -158h-85l202 696h75l203 -696h-86zM289 413l-39 154h-4l-39 -153l-51 -181h184zM253 738l-170 103l59 61l148 -122z" />
    <glyph glyph-name="Aacute" unicode="&#xc1;" horiz-adv-x="497" 
d="M403 0l-44 158h-222l-43 -158h-85l202 696h75l203 -696h-86zM289 413l-39 154h-4l-39 -153l-51 -181h184zM225 766l145 118l54 -59l-166 -98z" />
    <glyph glyph-name="Acircumflex" unicode="&#xc2;" horiz-adv-x="497" 
d="M403 0l-44 158h-222l-43 -158h-85l202 696h75l203 -696h-86zM289 413l-39 154h-4l-39 -153l-51 -181h184zM248 813l-130 -80l-31 33l140 123h50l133 -121l-32 -35z" />
    <glyph glyph-name="Atilde" unicode="&#xc3;" horiz-adv-x="497" 
d="M403 0l-44 158h-222l-43 -158h-85l202 696h75l203 -696h-86zM289 413l-39 154h-4l-39 -153l-51 -181h184zM181 859c10.667 0 21.3359 -2.16895 32.0029 -6.50195s21 -9.16602 31 -14.499s20 -10.166 30 -14.499s19.667 -6.5 29 -6.5c18 0 37 14 57 42l45 -28
c-13.333 -27.333 -28.5 -47.833 -45.5 -61.5s-34.5 -20.5 -52.5 -20.5c-11.333 0 -22.333 2.16699 -33 6.5s-21.167 9 -31.5 14l-30 14c-9.66699 4.33301 -18.834 6.5 -27.501 6.5c-10 0 -19.5 -3 -28.5 -9s-18.833 -15.667 -29.5 -29l-44 25
c11.333 22.667 25.666 42 42.999 58s35.666 24 54.999 24z" />
    <glyph glyph-name="Adieresis" unicode="&#xc4;" horiz-adv-x="497" 
d="M403 0l-44 158h-222l-43 -158h-85l202 696h75l203 -696h-86zM289 413l-39 154h-4l-39 -153l-51 -181h184zM292 748v84h78v-84h-78zM125 748v84h79v-84h-79z" />
    <glyph glyph-name="Aring" unicode="&#xc5;" horiz-adv-x="497" 
d="M403 0l-44 158h-222l-43 -158h-85l202 696h75l203 -696h-86zM289 413l-39 154h-4l-39 -153l-51 -181h184zM249 719c-25.333 0 -46.501 8.16699 -63.501 24.5s-25.5 36.166 -25.5 59.499c0 12 2.33301 23.167 7 33.5s11 19.333 19 27s17.333 13.834 28 18.501
s22.334 7 35.001 7c11.333 0 22.166 -2.33301 32.499 -7s19.333 -10.834 27 -18.501s13.834 -16.667 18.501 -27s7 -21.5 7 -33.5c0 -23.333 -8.33301 -43.166 -25 -59.499s-36.667 -24.5 -60 -24.5zM248.999 848c-13.333 0 -24.5 -4.33301 -33.5 -13
s-13.5 -19.334 -13.5 -32.001c0 -12 4.5 -22.167 13.5 -30.5s20.167 -12.5 33.5 -12.5c12 0 22.333 4.16699 31 12.5s13 18.5 13 30.5c0 12.667 -4.33301 23.334 -13 32.001s-19 13 -31 13z" />
    <glyph glyph-name="AE" unicode="&#xc6;" horiz-adv-x="801" 
d="M395 193h-206l-96 -193h-86l173 348l174 348h411v-78h-286v-228h245v-75h-245v-235h286v-80h-370v193zM226 268h169v349h-1z" />
    <glyph glyph-name="Ccedilla" unicode="&#xc7;" horiz-adv-x="469" 
d="M446 129c-11.333 -41.333 -32.834 -73.3291 -64.501 -95.9961s-69.5 -35.334 -113.5 -38.001l-12 -42c17.333 -1.33301 31.666 -4.66602 42.999 -9.99902s20.5 -12 27.5 -20s11.833 -16.333 14.5 -25s4 -17 4 -25s-1.66699 -16.667 -5 -26
s-8.66602 -17.833 -15.999 -25.5s-17 -14 -29 -19s-26.333 -7.5 -43 -7.5h-14c-6.66699 0 -14.167 0.5 -22.5 1.5s-17.166 2.66699 -26.499 5s-18 5.5 -26 9.5l14 37c12.667 -6 24.834 -9.66699 36.501 -11s22.167 -2 31.5 -2c11.333 0 21.5 3.33301 30.5 10
s13.5 15.667 13.5 27c0 13.333 -5.16699 24 -15.5 32s-26.5 11.333 -48.5 10l-18 15l20 67c-56 5.33301 -99.5 26.666 -130.5 63.999s-46.5 84.666 -46.5 141.999v292c0 29.333 4.5 56.666 13.5 81.999s22.167 47.166 39.5 65.499s38.666 32.833 63.999 43.5s54 16 86 16
c47.333 0 88.166 -11.667 122.499 -35s57.833 -56 70.5 -98l-79 -31c-6.66699 25.333 -19.5 45.666 -38.5 60.999s-44.167 23 -75.5 23c-19.333 0 -36.5 -3.5 -51.5 -10.5s-27.5 -16.167 -37.5 -27.5s-17.667 -24.666 -23 -39.999s-8 -31 -8 -47v-296
c0 -16.667 2.66699 -32.667 8 -48s13 -28.833 23 -40.5s22.5 -21 37.5 -28s32.167 -10.5 51.5 -10.5c30 0 54.833 7.66699 74.5 23s32.834 36 39.501 62z" />
    <glyph glyph-name="Egrave" unicode="&#xc8;" horiz-adv-x="455" 
d="M65 0v696h369v-78h-286v-228h245v-75h-245v-234h286v-81h-369zM260 738l-170 103l59 61l148 -122z" />
    <glyph glyph-name="Eacute" unicode="&#xc9;" horiz-adv-x="455" 
d="M65 0v696h369v-78h-286v-228h245v-75h-245v-234h286v-81h-369zM175 766l145 118l54 -59l-166 -98z" />
    <glyph glyph-name="Ecircumflex" unicode="&#xca;" horiz-adv-x="455" 
d="M65 0v696h369v-78h-286v-228h245v-75h-245v-234h286v-81h-369zM248 813l-130 -80l-31 33l140 123h50l133 -121l-32 -35z" />
    <glyph glyph-name="Edieresis" unicode="&#xcb;" horiz-adv-x="455" 
d="M65 0v696h369v-78h-286v-228h245v-75h-245v-234h286v-81h-369zM294 763v84h78v-84h-78zM127 763v84h79v-84h-79z" />
    <glyph glyph-name="Igrave" unicode="&#xcc;" horiz-adv-x="217" 
d="M66 0v696h84v-696h-84zM116 738l-170 103l59 61l148 -122z" />
    <glyph glyph-name="Iacute" unicode="&#xcd;" horiz-adv-x="217" 
d="M66 0v696h84v-696h-84zM78 766l145 118l54 -59l-166 -98z" />
    <glyph glyph-name="Icircumflex" unicode="&#xce;" horiz-adv-x="217" 
d="M66 0v696h84v-696h-84zM104 813l-130 -80l-31 33l140 123h50l133 -121l-32 -35z" />
    <glyph glyph-name="Idieresis" unicode="&#xcf;" horiz-adv-x="217" 
d="M66 0v696h84v-696h-84zM149 763v84h78v-84h-78zM-18 763v84h79v-84h-79z" />
    <glyph glyph-name="Eth" unicode="&#xd0;" horiz-adv-x="521" 
d="M6 391l58 -0.000976562v305h195c46.667 0 86.667 -8.5 120 -25.5s58 -45.5 74 -85.5c10 -26.667 15.5 -59.167 16.5 -97.5s1.5 -82.833 1.5 -133.5c0 -52.667 -0.333008 -98 -1 -136s-6 -70.667 -16 -98c-9.33301 -23.333 -21 -42.666 -35 -57.999s-30 -27.5 -48 -36.5
s-37.667 -15.5 -59 -19.5s-43.333 -6 -66 -6h-182v328h-58v63zM387 466.999c0 54 -11.667 92.833 -35 116.5s-57 35.5 -101 35.5h-103v-228h121v-63h-121v-250h103c49.333 0 84.333 13.167 105 39.5s31 62.833 31 109.5v240z" />
    <glyph glyph-name="Ntilde" unicode="&#xd1;" horiz-adv-x="562" 
d="M420 0l-199 366l-71 139h-3v-505h-84v696h81l195 -361l74 -143l4 1v503h83v-696h-80zM216 857c10.667 0 21.3359 -2.16895 32.0029 -6.50195s21 -9.16602 31 -14.499s20 -10.166 30 -14.499s19.667 -6.5 29 -6.5c18 0 37 14 57 42l45 -28
c-13.333 -27.333 -28.5 -47.833 -45.5 -61.5s-34.5 -20.5 -52.5 -20.5c-11.333 0 -22.333 2.16699 -33 6.5s-21.167 9 -31.5 14l-30 14c-9.66699 4.33301 -18.834 6.5 -27.501 6.5c-10 0 -19.5 -3 -28.5 -9s-18.833 -15.667 -29.5 -29l-44 25
c11.333 22.667 25.666 42 42.999 58s35.666 24 54.999 24z" />
    <glyph glyph-name="Ograve" unicode="&#xd2;" horiz-adv-x="497" 
d="M452 203c0 -32 -5.00195 -60.832 -15.002 -86.499s-24 -47.667 -42 -66s-39.5 -32.333 -64.5 -42s-52.5 -14.5 -82.5 -14.5c-36.667 0 -68 6 -94 18s-47.167 28.167 -63.5 48.5s-28.166 43.833 -35.499 70.5s-11 54.667 -11 84v279c0 23.333 3.66699 47.333 11 72
s19 47 35 67s37 36.333 63 49s57.667 19 95 19c35.333 0 65.833 -6 91.5 -18s46.834 -27.833 63.501 -47.5s29 -41.834 37 -66.501s12 -49.667 12 -75v-291zM366.998 493.001c0 10.667 -1.83203 23.333 -5.49902 38s-10 28.667 -19 42s-21.167 24.833 -36.5 34.5
s-35 14.5 -59 14.5s-43.667 -4.5 -59 -13.5s-27.666 -20 -36.999 -33s-15.833 -27.167 -19.5 -42.5s-5.5 -29.333 -5.5 -42l1 -275c0 -20 2.16699 -38.833 6.5 -56.5s11.5 -33 21.5 -46s22.833 -23.333 38.5 -31s34.5 -11.5 56.5 -11.5c16 0 31.167 2.83301 45.5 8.5
s26.666 13.834 36.999 24.501s18.666 23.667 24.999 39s9.5 32.666 9.5 51.999v298zM311.999 738l-170 103l59 61l148 -122z" />
    <glyph glyph-name="Oacute" unicode="&#xd3;" horiz-adv-x="497" 
d="M452 203c0 -32 -5.00195 -60.832 -15.002 -86.499s-24 -47.667 -42 -66s-39.5 -32.333 -64.5 -42s-52.5 -14.5 -82.5 -14.5c-36.667 0 -68 6 -94 18s-47.167 28.167 -63.5 48.5s-28.166 43.833 -35.499 70.5s-11 54.667 -11 84v279c0 23.333 3.66699 47.333 11 72
s19 47 35 67s37 36.333 63 49s57.667 19 95 19c35.333 0 65.833 -6 91.5 -18s46.834 -27.833 63.501 -47.5s29 -41.834 37 -66.501s12 -49.667 12 -75v-291zM366.998 493.001c0 10.667 -1.83203 23.333 -5.49902 38s-10 28.667 -19 42s-21.167 24.833 -36.5 34.5
s-35 14.5 -59 14.5s-43.667 -4.5 -59 -13.5s-27.666 -20 -36.999 -33s-15.833 -27.167 -19.5 -42.5s-5.5 -29.333 -5.5 -42l1 -275c0 -20 2.16699 -38.833 6.5 -56.5s11.5 -33 21.5 -46s22.833 -23.333 38.5 -31s34.5 -11.5 56.5 -11.5c16 0 31.167 2.83301 45.5 8.5
s26.666 13.834 36.999 24.501s18.666 23.667 24.999 39s9.5 32.666 9.5 51.999v298zM174.999 766l145 118l54 -59l-166 -98z" />
    <glyph glyph-name="Ocircumflex" unicode="&#xd4;" horiz-adv-x="497" 
d="M452 203c0 -32 -5.00195 -60.832 -15.002 -86.499s-24 -47.667 -42 -66s-39.5 -32.333 -64.5 -42s-52.5 -14.5 -82.5 -14.5c-36.667 0 -68 6 -94 18s-47.167 28.167 -63.5 48.5s-28.166 43.833 -35.499 70.5s-11 54.667 -11 84v279c0 23.333 3.66699 47.333 11 72
s19 47 35 67s37 36.333 63 49s57.667 19 95 19c35.333 0 65.833 -6 91.5 -18s46.834 -27.833 63.501 -47.5s29 -41.834 37 -66.501s12 -49.667 12 -75v-291zM366.998 493.001c0 10.667 -1.83203 23.333 -5.49902 38s-10 28.667 -19 42s-21.167 24.833 -36.5 34.5
s-35 14.5 -59 14.5s-43.667 -4.5 -59 -13.5s-27.666 -20 -36.999 -33s-15.833 -27.167 -19.5 -42.5s-5.5 -29.333 -5.5 -42l1 -275c0 -20 2.16699 -38.833 6.5 -56.5s11.5 -33 21.5 -46s22.833 -23.333 38.5 -31s34.5 -11.5 56.5 -11.5c16 0 31.167 2.83301 45.5 8.5
s26.666 13.834 36.999 24.501s18.666 23.667 24.999 39s9.5 32.666 9.5 51.999v298zM247.999 813l-130 -80l-31 33l140 123h50l133 -121l-32 -35z" />
    <glyph glyph-name="Otilde" unicode="&#xd5;" horiz-adv-x="497" 
d="M452 203c0 -32 -5.00195 -60.832 -15.002 -86.499s-24 -47.667 -42 -66s-39.5 -32.333 -64.5 -42s-52.5 -14.5 -82.5 -14.5c-36.667 0 -68 6 -94 18s-47.167 28.167 -63.5 48.5s-28.166 43.833 -35.499 70.5s-11 54.667 -11 84v279c0 23.333 3.66699 47.333 11 72
s19 47 35 67s37 36.333 63 49s57.667 19 95 19c35.333 0 65.833 -6 91.5 -18s46.834 -27.833 63.501 -47.5s29 -41.834 37 -66.501s12 -49.667 12 -75v-291zM366.998 493.001c0 10.667 -1.83203 23.333 -5.49902 38s-10 28.667 -19 42s-21.167 24.833 -36.5 34.5
s-35 14.5 -59 14.5s-43.667 -4.5 -59 -13.5s-27.666 -20 -36.999 -33s-15.833 -27.167 -19.5 -42.5s-5.5 -29.333 -5.5 -42l1 -275c0 -20 2.16699 -38.833 6.5 -56.5s11.5 -33 21.5 -46s22.833 -23.333 38.5 -31s34.5 -11.5 56.5 -11.5c16 0 31.167 2.83301 45.5 8.5
s26.666 13.834 36.999 24.501s18.666 23.667 24.999 39s9.5 32.666 9.5 51.999v298zM182.999 859c10.667 0 21.3359 -2.16895 32.0029 -6.50195s21 -9.16602 31 -14.499s20 -10.166 30 -14.499s19.667 -6.5 29 -6.5c18 0 37 14 57 42l45 -28
c-13.333 -27.333 -28.5 -47.833 -45.5 -61.5s-34.5 -20.5 -52.5 -20.5c-11.333 0 -22.333 2.16699 -33 6.5s-21.167 9 -31.5 14l-30 14c-9.66699 4.33301 -18.834 6.5 -27.501 6.5c-10 0 -19.5 -3 -28.5 -9s-18.833 -15.667 -29.5 -29l-44 25
c11.333 22.667 25.666 42 42.999 58s35.666 24 54.999 24z" />
    <glyph glyph-name="Odieresis" unicode="&#xd6;" horiz-adv-x="497" 
d="M452 203c0 -32 -5.00195 -60.832 -15.002 -86.499s-24 -47.667 -42 -66s-39.5 -32.333 -64.5 -42s-52.5 -14.5 -82.5 -14.5c-36.667 0 -68 6 -94 18s-47.167 28.167 -63.5 48.5s-28.166 43.833 -35.499 70.5s-11 54.667 -11 84v279c0 23.333 3.66699 47.333 11 72
s19 47 35 67s37 36.333 63 49s57.667 19 95 19c35.333 0 65.833 -6 91.5 -18s46.834 -27.833 63.501 -47.5s29 -41.834 37 -66.501s12 -49.667 12 -75v-291zM366.998 493.001c0 10.667 -1.83203 23.333 -5.49902 38s-10 28.667 -19 42s-21.167 24.833 -36.5 34.5
s-35 14.5 -59 14.5s-43.667 -4.5 -59 -13.5s-27.666 -20 -36.999 -33s-15.833 -27.167 -19.5 -42.5s-5.5 -29.333 -5.5 -42l1 -275c0 -20 2.16699 -38.833 6.5 -56.5s11.5 -33 21.5 -46s22.833 -23.333 38.5 -31s34.5 -11.5 56.5 -11.5c16 0 31.167 2.83301 45.5 8.5
s26.666 13.834 36.999 24.501s18.666 23.667 24.999 39s9.5 32.666 9.5 51.999v298zM289.999 748v84h78v-84h-78zM122.999 748v84h79v-84h-79z" />
    <glyph glyph-name="multiply" unicode="&#xd7;" horiz-adv-x="484" 
d="M294 284l146 -146l-44 -44l-146 146l-150 -149l-43 43l150 150l-146 146l43 44l146 -146l149 150l44 -44z" />
    <glyph glyph-name="Oslash" unicode="&#xd8;" horiz-adv-x="497" 
d="M452 203c0 -32 -4.99805 -60.834 -14.998 -86.501s-24 -47.667 -42 -66s-39.5 -32.333 -64.5 -42s-52.5 -14.5 -82.5 -14.5c-32 0 -60 4.66699 -84 14s-44 22 -60 38l-28 -50l-37 25l35 64c-10.667 18.667 -18.334 39 -23.001 61s-7 45 -7 69v279
c0 23.333 3.66699 47.333 11 72s19 47 35 67s37 36.333 63 49s57.667 19 95 19c30.667 0 57.5 -4.66699 80.5 -14s42.833 -21.666 59.5 -36.999l28 51l39 -24l-36 -64c11.333 -18 19.666 -37.167 24.999 -57.5s8 -40.833 8 -61.5v-291zM367.002 492.999
c0 3.33301 -0.165039 6.83301 -0.498047 10.5s-0.833008 7.5 -1.5 11.5l-218 -391c9.33301 -16.667 22.5 -29.667 39.5 -39s38.167 -14 63.5 -14c16 0 31.167 2.83301 45.5 8.5s26.666 13.834 36.999 24.501s18.666 23.667 24.999 39s9.5 32.666 9.5 51.999v298z
M127.004 215.999l-0.00195312 -17.001c0 -5.33301 0.666992 -10.666 2 -15.999l215 388c-9.33301 14 -21.666 26 -36.999 36s-35.333 15 -60 15c-24 0 -43.667 -4.5 -59 -13.5s-27.666 -20 -36.999 -33s-15.833 -27.167 -19.5 -42.5s-5.5 -29.333 -5.5 -42z" />
    <glyph glyph-name="Ugrave" unicode="&#xd9;" horiz-adv-x="519" 
d="M464 696l0.000976562 -493.998c0 -32 -5 -60.833 -15 -86.5s-24 -47.5 -42 -65.5s-39.5 -31.833 -64.5 -41.5s-52.5 -14.5 -82.5 -14.5c-32 0 -60.5 5.16699 -85.5 15.5s-46.333 24.666 -64 42.999s-31.167 40.333 -40.5 66s-14 53.5 -14 83.5v494h83v-497
c0 -16.667 2.83301 -32.5 8.5 -47.5s13.667 -28.333 24 -40s23 -21 38 -28s31.833 -10.5 50.5 -10.5c35.333 0 64.166 11.167 86.499 33.5s33.5 53.166 33.5 92.499v497h84zM314.001 738.002l-170 103l59 61l148 -122z" />
    <glyph glyph-name="Uacute" unicode="&#xda;" horiz-adv-x="519" 
d="M464 696l0.000976562 -493.998c0 -32 -5 -60.833 -15 -86.5s-24 -47.5 -42 -65.5s-39.5 -31.833 -64.5 -41.5s-52.5 -14.5 -82.5 -14.5c-32 0 -60.5 5.16699 -85.5 15.5s-46.333 24.666 -64 42.999s-31.167 40.333 -40.5 66s-14 53.5 -14 83.5v494h83v-497
c0 -16.667 2.83301 -32.5 8.5 -47.5s13.667 -28.333 24 -40s23 -21 38 -28s31.833 -10.5 50.5 -10.5c35.333 0 64.166 11.167 86.499 33.5s33.5 53.166 33.5 92.499v497h84zM175.001 766.002l145 118l54 -59l-166 -98z" />
    <glyph glyph-name="Ucircumflex" unicode="&#xdb;" horiz-adv-x="519" 
d="M464 696l0.000976562 -493.998c0 -32 -5 -60.833 -15 -86.5s-24 -47.5 -42 -65.5s-39.5 -31.833 -64.5 -41.5s-52.5 -14.5 -82.5 -14.5c-32 0 -60.5 5.16699 -85.5 15.5s-46.333 24.666 -64 42.999s-31.167 40.333 -40.5 66s-14 53.5 -14 83.5v494h83v-497
c0 -16.667 2.83301 -32.5 8.5 -47.5s13.667 -28.333 24 -40s23 -21 38 -28s31.833 -10.5 50.5 -10.5c35.333 0 64.166 11.167 86.499 33.5s33.5 53.166 33.5 92.499v497h84zM254.001 813.002l-130 -80l-31 33l140 123h50l133 -121l-32 -35z" />
    <glyph glyph-name="Udieresis" unicode="&#xdc;" horiz-adv-x="519" 
d="M464 696l0.000976562 -493.998c0 -32 -5 -60.833 -15 -86.5s-24 -47.5 -42 -65.5s-39.5 -31.833 -64.5 -41.5s-52.5 -14.5 -82.5 -14.5c-32 0 -60.5 5.16699 -85.5 15.5s-46.333 24.666 -64 42.999s-31.167 40.333 -40.5 66s-14 53.5 -14 83.5v494h83v-497
c0 -16.667 2.83301 -32.5 8.5 -47.5s13.667 -28.333 24 -40s23 -21 38 -28s31.833 -10.5 50.5 -10.5c35.333 0 64.166 11.167 86.499 33.5s33.5 53.166 33.5 92.499v497h84zM307.001 748.002v84h78v-84h-78zM140.001 748.002v84h79v-84h-79z" />
    <glyph glyph-name="Yacute" unicode="&#xdd;" horiz-adv-x="442" 
d="M223 386l51 134l72 176h87l-172 -406v-290h-81v290l-173 406h88l37 -90l37 -90c8 -20 16.167 -41.667 24.5 -65l23.5 -65h6zM143 766l145 118l54 -59l-166 -98z" />
    <glyph glyph-name="Thorn" unicode="&#xde;" horiz-adv-x="484" 
d="M464 357c0 -26.667 -3.66699 -52.5 -11 -77.5s-18.833 -47 -34.5 -66s-36.167 -34.333 -61.5 -46s-56 -17.5 -92 -17.5h-119l2 -150h-83v726h83l-2 -160h115c64.667 0 114.667 -17.167 150 -51.5s53 -86.833 53 -157.5zM380 358c0 40 -9.33105 71.666 -27.998 94.999
s-49.667 35 -93 35h-113v-260h114c23.333 0 42.666 3.66699 57.999 11s27.666 17 36.999 29s15.833 25.833 19.5 41.5s5.5 31.834 5.5 48.501z" />
    <glyph glyph-name="germandbls" unicode="&#xdf;" horiz-adv-x="446" 
d="M316 421c20.667 -8.66699 36.4971 -20.002 47.4971 -34.002s19.167 -29.667 24.5 -47s8.5 -36 9.5 -56s1.5 -40 1.5 -60c0 -29.333 -2 -57.666 -6 -84.999s-11.833 -51.666 -23.5 -72.999s-28.167 -38.5 -49.5 -51.5s-49.666 -19.5 -84.999 -19.5h-29v67h20
c24 0 42.167 6 54.5 18s21 27.167 26 45.5s7.66699 38.166 8 59.499s0.5 41.666 0.5 60.999c0 16.667 -1.16699 33.167 -3.5 49.5s-6.5 31 -12.5 44s-14.167 23.333 -24.5 31s-23.5 11.5 -39.5 11.5h-24v70h19c14.667 0 26.667 3 36 9s16.5 13.833 21.5 23.5
s8.5 20.5 10.5 32.5s3 23.667 3 35c0 30.667 -6.16699 55.5 -18.5 74.5s-33.833 28.5 -64.5 28.5c-18.667 0 -33.5 -3.33301 -44.5 -10s-19.5 -15.5 -25.5 -26.5s-10 -23.333 -12 -37s-3 -27.5 -3 -41.5v-540h-80v536c0 58.667 13.833 105.334 41.5 140.001
s69.834 52 126.501 52c54 0 94.333 -15.5 121 -46.5s40 -71.833 40 -122.5c0 -30 -4.66699 -57.667 -14 -83s-26.666 -43.666 -51.999 -54.999z" />
    <glyph glyph-name="agrave" unicode="&#xe0;" horiz-adv-x="426" 
d="M305 38c-11.333 -14.667 -27.167 -25.668 -47.5 -33.001s-43.5 -11 -69.5 -11c-24 0 -45 3.83301 -63 11.5s-32.833 18.167 -44.5 31.5s-20.334 28.833 -26.001 46.5s-8.5 36.167 -8.5 55.5c0 44 13.667 80.5 41 109.5s71 43.5 131 43.5h91v61
c0 22.667 -7.5 40.334 -22.5 53.001s-37.167 19 -66.5 19c-19.333 0 -37.5 -3.5 -54.5 -10.5s-29.167 -19.167 -36.5 -36.5l-31.5 18.5l-31.5 19.5c13.333 27.333 33.833 48.333 61.5 63s58.5 22 92.5 22c23.333 0 45.333 -2.5 66 -7.5s38.834 -13.167 54.501 -24.5
s28 -26.5 37 -45.5s13.5 -42.833 13.5 -71.5v-352h-82v36zM308.999 222.999h-97c-26 0 -47.333 -6.16699 -64 -18.5s-25 -32.5 -25 -60.5c0 -22 7.33301 -39.833 22 -53.5s37 -20.5 67 -20.5c28 0 51.167 6.33301 69.5 19s27.5 34.667 27.5 66v68zM212.999 552.999l-98 167
l76 25l70 -173z" />
    <glyph glyph-name="aacute" unicode="&#xe1;" horiz-adv-x="426" 
d="M305 38c-11.333 -14.667 -27.167 -25.668 -47.5 -33.001s-43.5 -11 -69.5 -11c-24 0 -45 3.83301 -63 11.5s-32.833 18.167 -44.5 31.5s-20.334 28.833 -26.001 46.5s-8.5 36.167 -8.5 55.5c0 44 13.667 80.5 41 109.5s71 43.5 131 43.5h91v61
c0 22.667 -7.5 40.334 -22.5 53.001s-37.167 19 -66.5 19c-19.333 0 -37.5 -3.5 -54.5 -10.5s-29.167 -19.167 -36.5 -36.5l-31.5 18.5l-31.5 19.5c13.333 27.333 33.833 48.333 61.5 63s58.5 22 92.5 22c23.333 0 45.333 -2.5 66 -7.5s38.834 -13.167 54.501 -24.5
s28 -26.5 37 -45.5s13.5 -42.833 13.5 -71.5v-352h-82v36zM308.999 222.999h-97c-26 0 -47.333 -6.16699 -64 -18.5s-25 -32.5 -25 -60.5c0 -22 7.33301 -39.833 22 -53.5s37 -20.5 67 -20.5c28 0 51.167 6.33301 69.5 19s27.5 34.667 27.5 66v68zM207.999 571.999l70 173
l76 -25l-98 -167z" />
    <glyph glyph-name="acircumflex" unicode="&#xe2;" horiz-adv-x="426" 
d="M305 38c-11.333 -14.667 -27.167 -25.668 -47.5 -33.001s-43.5 -11 -69.5 -11c-24 0 -45 3.83301 -63 11.5s-32.833 18.167 -44.5 31.5s-20.334 28.833 -26.001 46.5s-8.5 36.167 -8.5 55.5c0 44 13.667 80.5 41 109.5s71 43.5 131 43.5h91v61
c0 22.667 -7.5 40.334 -22.5 53.001s-37.167 19 -66.5 19c-19.333 0 -37.5 -3.5 -54.5 -10.5s-29.167 -19.167 -36.5 -36.5l-31.5 18.5l-31.5 19.5c13.333 27.333 33.833 48.333 61.5 63s58.5 22 92.5 22c23.333 0 45.333 -2.5 66 -7.5s38.834 -13.167 54.501 -24.5
s28 -26.5 37 -45.5s13.5 -42.833 13.5 -71.5v-352h-82v36zM308.999 222.999h-97c-26 0 -47.333 -6.16699 -64 -18.5s-25 -32.5 -25 -60.5c0 -22 7.33301 -39.833 22 -53.5s37 -20.5 67 -20.5c28 0 51.167 6.33301 69.5 19s27.5 34.667 27.5 66v68zM217.999 652.999
l-125 -101l-37 33l141 146h50l133 -144l-37 -34z" />
    <glyph glyph-name="atilde" unicode="&#xe3;" horiz-adv-x="426" 
d="M305 38c-11.333 -14.667 -27.167 -25.668 -47.5 -33.001s-43.5 -11 -69.5 -11c-24 0 -45 3.83301 -63 11.5s-32.833 18.167 -44.5 31.5s-20.334 28.833 -26.001 46.5s-8.5 36.167 -8.5 55.5c0 44 13.667 80.5 41 109.5s71 43.5 131 43.5h91v61
c0 22.667 -7.5 40.334 -22.5 53.001s-37.167 19 -66.5 19c-19.333 0 -37.5 -3.5 -54.5 -10.5s-29.167 -19.167 -36.5 -36.5l-31.5 18.5l-31.5 19.5c13.333 27.333 33.833 48.333 61.5 63s58.5 22 92.5 22c23.333 0 45.333 -2.5 66 -7.5s38.834 -13.167 54.501 -24.5
s28 -26.5 37 -45.5s13.5 -42.833 13.5 -71.5v-352h-82v36zM308.999 222.999h-97c-26 0 -47.333 -6.16699 -64 -18.5s-25 -32.5 -25 -60.5c0 -22 7.33301 -39.833 22 -53.5s37 -20.5 67 -20.5c28 0 51.167 6.33301 69.5 19s27.5 34.667 27.5 66v68zM161.999 688.999
c10.667 0 21.3359 -2.16895 32.0029 -6.50195s21 -9.16602 31 -14.499s20 -10.166 30 -14.499s19.667 -6.5 29 -6.5c18 0 37 14 57 42l45 -28c-13.333 -27.333 -28.5 -47.833 -45.5 -61.5s-34.5 -20.5 -52.5 -20.5c-11.333 0 -22.333 2.16699 -33 6.5s-21.167 9 -31.5 14
l-30 14c-9.66699 4.33301 -18.834 6.5 -27.501 6.5c-10 0 -19.5 -3 -28.5 -9s-18.833 -15.667 -29.5 -29l-44 25c11.333 22.667 25.666 42 42.999 58s35.666 24 54.999 24z" />
    <glyph glyph-name="adieresis" unicode="&#xe4;" horiz-adv-x="426" 
d="M305 38c-11.333 -14.667 -27.167 -25.668 -47.5 -33.001s-43.5 -11 -69.5 -11c-24 0 -45 3.83301 -63 11.5s-32.833 18.167 -44.5 31.5s-20.334 28.833 -26.001 46.5s-8.5 36.167 -8.5 55.5c0 44 13.667 80.5 41 109.5s71 43.5 131 43.5h91v61
c0 22.667 -7.5 40.334 -22.5 53.001s-37.167 19 -66.5 19c-19.333 0 -37.5 -3.5 -54.5 -10.5s-29.167 -19.167 -36.5 -36.5l-31.5 18.5l-31.5 19.5c13.333 27.333 33.833 48.333 61.5 63s58.5 22 92.5 22c23.333 0 45.333 -2.5 66 -7.5s38.834 -13.167 54.501 -24.5
s28 -26.5 37 -45.5s13.5 -42.833 13.5 -71.5v-352h-82v36zM308.999 222.999h-97c-26 0 -47.333 -6.16699 -64 -18.5s-25 -32.5 -25 -60.5c0 -22 7.33301 -39.833 22 -53.5s37 -20.5 67 -20.5c28 0 51.167 6.33301 69.5 19s27.5 34.667 27.5 66v68zM262.999 592.999v84h78
v-84h-78zM95.999 592.999v84h79v-84h-79z" />
    <glyph glyph-name="aring" unicode="&#xe5;" horiz-adv-x="426" 
d="M305 38c-11.333 -14.667 -27.167 -25.668 -47.5 -33.001s-43.5 -11 -69.5 -11c-24 0 -45 3.83301 -63 11.5s-32.833 18.167 -44.5 31.5s-20.334 28.833 -26.001 46.5s-8.5 36.167 -8.5 55.5c0 44 13.667 80.5 41 109.5s71 43.5 131 43.5h91v61
c0 22.667 -7.5 40.334 -22.5 53.001s-37.167 19 -66.5 19c-19.333 0 -37.5 -3.5 -54.5 -10.5s-29.167 -19.167 -36.5 -36.5l-31.5 18.5l-31.5 19.5c13.333 27.333 33.833 48.333 61.5 63s58.5 22 92.5 22c23.333 0 45.333 -2.5 66 -7.5s38.834 -13.167 54.501 -24.5
s28 -26.5 37 -45.5s13.5 -42.833 13.5 -71.5v-352h-82v36zM308.999 222.999h-97c-26 0 -47.333 -6.16699 -64 -18.5s-25 -32.5 -25 -60.5c0 -22 7.33301 -39.833 22 -53.5s37 -20.5 67 -20.5c28 0 51.167 6.33301 69.5 19s27.5 34.667 27.5 66v68zM219.999 550.999
c-25.333 0 -46.501 8.16699 -63.501 24.5s-25.5 36.166 -25.5 59.499c0 12 2.33301 23.167 7 33.5s11 19.333 19 27s17.333 13.834 28 18.501s22.334 7 35.001 7c11.333 0 22.166 -2.33301 32.499 -7s19.333 -10.834 27 -18.501s13.834 -16.667 18.501 -27s7 -21.5 7 -33.5
c0 -23.333 -8.33301 -43.166 -25 -59.499s-36.667 -24.5 -60 -24.5zM219.998 679.999c-13.333 0 -24.5 -4.33301 -33.5 -13s-13.5 -19.334 -13.5 -32.001c0 -12 4.5 -22.167 13.5 -30.5s20.167 -12.5 33.5 -12.5c12 0 22.333 4.16699 31 12.5s13 18.5 13 30.5
c0 12.667 -4.33301 23.334 -13 32.001s-19 13 -31 13z" />
    <glyph glyph-name="ae" unicode="&#xe6;" horiz-adv-x="690" 
d="M637 82c-13.333 -29.333 -32.9932 -51.333 -58.9932 -66s-55.667 -22 -89 -22c-36.667 0 -67.167 5.5 -91.5 16.5s-44.166 28.833 -59.499 53.5c-14.667 -16 -29.334 -28.667 -44.001 -38s-28.834 -16.333 -42.501 -21s-26.834 -7.66699 -39.501 -9s-24 -2 -34 -2
c-24 0 -45 3.83301 -63 11.5s-32.833 18.167 -44.5 31.5s-20.334 28.833 -26.001 46.5s-8.5 36.167 -8.5 55.5c0 44 13.667 80.5 41 109.5s71 43.5 131 43.5h91v61c0 22.667 -7.5 40.334 -22.5 53.001s-37.167 19 -66.5 19c-19.333 0 -37.5 -3.5 -54.5 -10.5
s-29.167 -19.167 -36.5 -36.5l-31.5 18.5l-31.5 19.5c13.333 27.333 33.833 48.333 61.5 63s58.5 22 92.5 22c30 0 57.667 -4.16699 83 -12.5s45.666 -22.5 60.999 -42.5c13.333 17.333 30 30.833 50 40.5s44.667 14.5 74 14.5c56 0 98.833 -17.833 128.5 -53.5
s44.5 -84.834 44.5 -147.501v-77h-267c0 -22 1.33301 -42.5 4 -61.5s7.66699 -35.5 15 -49.5s17.666 -25 30.999 -33s30.666 -12 51.999 -12c18 0 34.667 4.5 50 13.5s27.666 21.167 36.999 36.5zM299.007 223h-97c-26 0 -47.333 -6.16699 -64 -18.5s-25 -32.5 -25 -60.5
c0 -22 7.33301 -39.833 22 -53.5s37 -20.5 67 -20.5c28 0 51.167 6.33301 69.5 19s27.5 34.667 27.5 66v68zM571.007 288c0 45.333 -7.83301 79.5 -23.5 102.5s-38.5 34.5 -68.5 34.5c-34.667 0 -58.5 -12.333 -71.5 -37s-20.167 -58 -21.5 -100h185z" />
    <glyph glyph-name="ccedilla" unicode="&#xe7;" horiz-adv-x="385" 
d="M301 121c11.333 -6.66699 22.6689 -12.834 34.002 -18.501s22.666 -11.834 33.999 -18.501c-12.667 -26.667 -31.167 -48 -55.5 -64s-53.5 -24.667 -87.5 -26l-12 -41c17.333 -1.33301 31.666 -4.66602 42.999 -9.99902s20.5 -12 27.5 -20s11.833 -16.333 14.5 -25
s4 -17 4 -25s-1.66699 -16.667 -5 -26s-8.66602 -17.833 -15.999 -25.5s-17 -14 -29 -19s-26.333 -7.5 -43 -7.5h-14c-6.66699 0 -14.167 0.5 -22.5 1.5s-17.166 2.66699 -26.499 5s-18 5.5 -26 9.5l14 37c12.667 -6 24.834 -9.66699 36.501 -11s22.167 -2 31.5 -2
c11.333 0 21.5 3.33301 30.5 10s13.5 15.667 13.5 27c0 13.333 -5.16699 24 -15.5 32s-26.5 11.333 -48.5 10l-18 15l20 67c-30.667 3.33301 -55.834 12 -75.501 26s-35.334 32.5 -47.001 55.5s-19.834 49.667 -24.501 80s-7 63.833 -7 100.5c0 74 15 133 45 177
s77 66 141 66c36 0 66.833 -8.16699 92.5 -24.5s45.167 -38.5 58.5 -66.5l-66 -41c-7.33301 17.333 -18.333 30.833 -33 40.5s-31.667 14.5 -51 14.5c-22 0 -40 -4.33301 -54 -13s-24.833 -20.5 -32.5 -35.5s-12.834 -32.667 -15.501 -53s-4 -42.5 -4 -66.5
s1.33301 -47.167 4 -69.5s7.83398 -42.166 15.501 -59.499s18.334 -31.166 32.001 -41.499s31.5 -15.5 53.5 -15.5c20 0 37.167 5.16699 51.5 15.5s25.166 22.166 32.499 35.499z" />
    <glyph glyph-name="egrave" unicode="&#xe8;" horiz-adv-x="424" 
d="M372 89c-13.333 -29.333 -33.167 -52.4961 -59.5 -69.4961s-56.166 -25.5 -89.499 -25.5s-61.666 4.66699 -84.999 14s-42.5 24.166 -57.5 44.499s-26 46.5 -33 78.5s-10.5 70.667 -10.5 116c0 31.333 2.5 62.166 7.5 92.499s14 57.5 27 81.5s30.833 43.333 53.5 58
s51.667 22 87 22c56 0 98.833 -17.833 128.5 -53.5s44.5 -84.834 44.5 -147.501v-77h-267c0 -22 1.33301 -42.5 4 -61.5s7.66699 -35.5 15 -49.5s17.666 -25 30.999 -33s30.666 -12 51.999 -12c18 0 34.5 5.66699 49.5 17s27.167 24.666 36.5 39.999zM304.999 288.004
c0 45.333 -7.83301 79.5 -23.5 102.5s-38.5 34.5 -68.5 34.5c-34.667 0 -58.5 -12.333 -71.5 -37s-20.167 -58 -21.5 -100h185zM206.999 553.004l-98 167l76 25l70 -173z" />
    <glyph glyph-name="eacute" unicode="&#xe9;" horiz-adv-x="424" 
d="M372 89c-13.333 -29.333 -33.167 -52.4961 -59.5 -69.4961s-56.166 -25.5 -89.499 -25.5s-61.666 4.66699 -84.999 14s-42.5 24.166 -57.5 44.499s-26 46.5 -33 78.5s-10.5 70.667 -10.5 116c0 31.333 2.5 62.166 7.5 92.499s14 57.5 27 81.5s30.833 43.333 53.5 58
s51.667 22 87 22c56 0 98.833 -17.833 128.5 -53.5s44.5 -84.834 44.5 -147.501v-77h-267c0 -22 1.33301 -42.5 4 -61.5s7.66699 -35.5 15 -49.5s17.666 -25 30.999 -33s30.666 -12 51.999 -12c18 0 34.5 5.66699 49.5 17s27.167 24.666 36.5 39.999zM304.999 288.004
c0 45.333 -7.83301 79.5 -23.5 102.5s-38.5 34.5 -68.5 34.5c-34.667 0 -58.5 -12.333 -71.5 -37s-20.167 -58 -21.5 -100h185zM173.999 572.004l70 173l76 -25l-98 -167z" />
    <glyph glyph-name="ecircumflex" unicode="&#xea;" horiz-adv-x="424" 
d="M372 89c-13.333 -29.333 -33.167 -52.4961 -59.5 -69.4961s-56.166 -25.5 -89.499 -25.5s-61.666 4.66699 -84.999 14s-42.5 24.166 -57.5 44.499s-26 46.5 -33 78.5s-10.5 70.667 -10.5 116c0 31.333 2.5 62.166 7.5 92.499s14 57.5 27 81.5s30.833 43.333 53.5 58
s51.667 22 87 22c56 0 98.833 -17.833 128.5 -53.5s44.5 -84.834 44.5 -147.501v-77h-267c0 -22 1.33301 -42.5 4 -61.5s7.66699 -35.5 15 -49.5s17.666 -25 30.999 -33s30.666 -12 51.999 -12c18 0 34.5 5.66699 49.5 17s27.167 24.666 36.5 39.999zM304.999 288.004
c0 45.333 -7.83301 79.5 -23.5 102.5s-38.5 34.5 -68.5 34.5c-34.667 0 -58.5 -12.333 -71.5 -37s-20.167 -58 -21.5 -100h185zM213.999 653.004l-125 -101l-37 33l141 146h50l133 -144l-37 -34z" />
    <glyph glyph-name="edieresis" unicode="&#xeb;" horiz-adv-x="424" 
d="M372 89c-13.333 -29.333 -33.167 -52.4961 -59.5 -69.4961s-56.166 -25.5 -89.499 -25.5s-61.666 4.66699 -84.999 14s-42.5 24.166 -57.5 44.499s-26 46.5 -33 78.5s-10.5 70.667 -10.5 116c0 31.333 2.5 62.166 7.5 92.499s14 57.5 27 81.5s30.833 43.333 53.5 58
s51.667 22 87 22c56 0 98.833 -17.833 128.5 -53.5s44.5 -84.834 44.5 -147.501v-77h-267c0 -22 1.33301 -42.5 4 -61.5s7.66699 -35.5 15 -49.5s17.666 -25 30.999 -33s30.666 -12 51.999 -12c18 0 34.5 5.66699 49.5 17s27.167 24.666 36.5 39.999zM304.999 288.004
c0 45.333 -7.83301 79.5 -23.5 102.5s-38.5 34.5 -68.5 34.5c-34.667 0 -58.5 -12.333 -71.5 -37s-20.167 -58 -21.5 -100h185zM259.999 593.004v84h78v-84h-78zM92.999 593.004v84h79v-84h-79z" />
    <glyph glyph-name="igrave" unicode="&#xec;" horiz-adv-x="200" 
d="M58 0v495h81v-495h-81zM77 553l-98 167l76 25l70 -173z" />
    <glyph glyph-name="iacute" unicode="&#xed;" horiz-adv-x="200" 
d="M58 0v495h81v-495h-81zM59 572l70 173l76 -25l-98 -167z" />
    <glyph glyph-name="icircumflex" unicode="&#xee;" horiz-adv-x="274" 
d="M96 0v495h81v-495h-81zM137 653l-125 -101l-37 33l141 146h50l133 -144l-37 -34z" />
    <glyph glyph-name="idieresis" unicode="&#xef;" horiz-adv-x="205" 
d="M62 0v495h81v-495h-81zM147 593v84h78v-84h-78zM-20 593v84h79v-84h-79z" />
    <glyph glyph-name="eth" unicode="&#xf0;" horiz-adv-x="440" 
d="M208 478c6 0 13.666 -0.670898 22.999 -2.00391s19.166 -4 29.499 -8s20.333 -9.5 30 -16.5s18.167 -16.167 25.5 -27.5h3c-0.666992 23.333 -2.5 48.333 -5.5 75s-9.83301 49 -20.5 67l-63 -45l-24 34l63 46c-11.333 15.333 -28.166 28.333 -50.499 39
s-48.166 18.667 -77.499 24l11 65c25.333 -2.66699 47.5 -6.66699 66.5 -12s35.5 -11.666 49.5 -18.999s26.167 -15.333 36.5 -24s19.166 -17 26.499 -25l34 25l34 25l27 -34l-70 -51c16 -25.333 26.833 -63 32.5 -113s8.5 -113 8.5 -189
c0 -41.333 -1.66699 -81.166 -5 -119.499s-11.166 -72.166 -23.499 -101.499s-31 -52.833 -56 -70.5s-59.167 -26.5 -102.5 -26.5c-32.667 0 -60.167 5.16699 -82.5 15.5s-40.333 25.333 -54 45s-23.5 43.834 -29.5 72.501s-9 61.667 -9 99c0 33.333 2.5 65.333 7.5 96
s14 57.5 27 80.5s30.667 41.333 53 55s50.833 20.5 85.5 20.5zM213.999 405.996c-13.333 0 -25.665 -2.16602 -36.998 -6.49902s-21.5 -12.833 -30.5 -25.5s-16.333 -30.334 -22 -53.001s-8.83398 -52.334 -9.50098 -89.001c0 -52.667 6.66699 -93.5 20 -122.5
s38.666 -43.5 75.999 -43.5c14.667 0 28.167 2.83301 40.5 8.5s23 15.334 32 29.001s15.833 31.667 20.5 54s7 50.5 7 84.5c0 59.333 -8.16699 101.5 -24.5 126.5s-40.5 37.5 -72.5 37.5z" />
    <glyph glyph-name="ntilde" unicode="&#xf1;" horiz-adv-x="436" 
d="M308 0l0.000976562 323c0 30 -7.66699 53.5 -23 70.5s-38 25.5 -68 25.5c-27.333 0 -49.333 -8.83301 -66 -26.5s-25 -41.5 -25 -71.5v-321h-80v495h81v-55h3c14 19.333 31.333 34.166 52 44.499s43 15.5 67 15.5c20 0 38.5 -3.5 55.5 -10.5s31.667 -17 44 -30
s22.166 -28.667 29.499 -47s11 -39.166 11 -62.499v-350h-81zM145.001 689c10.667 0 21.3359 -2.16895 32.0029 -6.50195s21 -9.16602 31 -14.499s20 -10.166 30 -14.499s19.667 -6.5 29 -6.5c18 0 37 14 57 42l45 -28c-13.333 -27.333 -28.5 -47.833 -45.5 -61.5
s-34.5 -20.5 -52.5 -20.5c-11.333 0 -22.333 2.16699 -33 6.5s-21.167 9 -31.5 14l-30 14c-9.66699 4.33301 -18.834 6.5 -27.501 6.5c-10 0 -19.5 -3 -28.5 -9s-18.833 -15.667 -29.5 -29l-44 25c11.333 22.667 25.666 42 42.999 58s35.666 24 54.999 24z" />
    <glyph glyph-name="ograve" unicode="&#xf2;" horiz-adv-x="438" 
d="M222 501c39.333 0 70.335 -7.83594 93.002 -23.5029s40.667 -35.167 54 -58.5c4.66699 -8 8.66699 -18.5 12 -31.5s6 -27.333 8 -43s3.5 -32 4.5 -49s1.5 -33.167 1.5 -48.5c0 -9.33301 -0.333008 -20.666 -1 -33.999s-1.83398 -27.333 -3.50098 -42
s-3.5 -28.667 -5.5 -42s-4.33301 -24 -7 -32c-6 -19.333 -14.833 -35.666 -26.5 -48.999s-25 -24 -40 -32s-31 -13.833 -48 -17.5s-34.5 -5.5 -52.5 -5.5c-38 0 -69.167 8 -93.5 24s-42.5 36.667 -54.5 62c-8.66699 18 -14.667 41.833 -18 71.5s-5 60.834 -5 93.501
c0 31.333 1.5 61.333 4.5 90s8.16699 52 15.5 70c13.333 30 33.666 53.667 60.999 71s61 26 101 26zM220.002 427.997c-19.333 0 -36.668 -4.66504 -52.001 -13.998s-26.666 -23.333 -33.999 -42c-4.66699 -12.667 -8.16699 -30.834 -10.5 -54.501s-3.5 -51.167 -3.5 -82.5
c0 -22 0.5 -42.667 1.5 -62s4.16699 -35.666 9.5 -48.999c7.33301 -18 18 -32 32 -42s31.667 -15 53 -15c20.667 0 38.834 5 54.501 15s27.167 26 34.5 48c3.33301 9.33301 5.66602 25.166 6.99902 47.499s2 47.166 2 74.499c0 23.333 -0.666992 45.5 -2 66.5
s-4 37.5 -8 49.5c-7.33301 20 -18.333 35 -33 45s-31.667 15 -51 15zM201 552.999l-98 167l76 25l70 -173z" />
    <glyph glyph-name="oacute" unicode="&#xf3;" horiz-adv-x="438" 
d="M222 501c39.333 0 70.335 -7.83594 93.002 -23.5029s40.667 -35.167 54 -58.5c4.66699 -8 8.66699 -18.5 12 -31.5s6 -27.333 8 -43s3.5 -32 4.5 -49s1.5 -33.167 1.5 -48.5c0 -9.33301 -0.333008 -20.666 -1 -33.999s-1.83398 -27.333 -3.50098 -42
s-3.5 -28.667 -5.5 -42s-4.33301 -24 -7 -32c-6 -19.333 -14.833 -35.666 -26.5 -48.999s-25 -24 -40 -32s-31 -13.833 -48 -17.5s-34.5 -5.5 -52.5 -5.5c-38 0 -69.167 8 -93.5 24s-42.5 36.667 -54.5 62c-8.66699 18 -14.667 41.833 -18 71.5s-5 60.834 -5 93.501
c0 31.333 1.5 61.333 4.5 90s8.16699 52 15.5 70c13.333 30 33.666 53.667 60.999 71s61 26 101 26zM220.002 427.997c-19.333 0 -36.668 -4.66504 -52.001 -13.998s-26.666 -23.333 -33.999 -42c-4.66699 -12.667 -8.16699 -30.834 -10.5 -54.501s-3.5 -51.167 -3.5 -82.5
c0 -22 0.5 -42.667 1.5 -62s4.16699 -35.666 9.5 -48.999c7.33301 -18 18 -32 32 -42s31.667 -15 53 -15c20.667 0 38.834 5 54.501 15s27.167 26 34.5 48c3.33301 9.33301 5.66602 25.166 6.99902 47.499s2 47.166 2 74.499c0 23.333 -0.666992 45.5 -2 66.5
s-4 37.5 -8 49.5c-7.33301 20 -18.333 35 -33 45s-31.667 15 -51 15zM172 571.999l70 173l76 -25l-98 -167z" />
    <glyph glyph-name="ocircumflex" unicode="&#xf4;" horiz-adv-x="438" 
d="M222 501c39.333 0 70.335 -7.83594 93.002 -23.5029s40.667 -35.167 54 -58.5c4.66699 -8 8.66699 -18.5 12 -31.5s6 -27.333 8 -43s3.5 -32 4.5 -49s1.5 -33.167 1.5 -48.5c0 -9.33301 -0.333008 -20.666 -1 -33.999s-1.83398 -27.333 -3.50098 -42
s-3.5 -28.667 -5.5 -42s-4.33301 -24 -7 -32c-6 -19.333 -14.833 -35.666 -26.5 -48.999s-25 -24 -40 -32s-31 -13.833 -48 -17.5s-34.5 -5.5 -52.5 -5.5c-38 0 -69.167 8 -93.5 24s-42.5 36.667 -54.5 62c-8.66699 18 -14.667 41.833 -18 71.5s-5 60.834 -5 93.501
c0 31.333 1.5 61.333 4.5 90s8.16699 52 15.5 70c13.333 30 33.666 53.667 60.999 71s61 26 101 26zM220.002 427.997c-19.333 0 -36.668 -4.66504 -52.001 -13.998s-26.666 -23.333 -33.999 -42c-4.66699 -12.667 -8.16699 -30.834 -10.5 -54.501s-3.5 -51.167 -3.5 -82.5
c0 -22 0.5 -42.667 1.5 -62s4.16699 -35.666 9.5 -48.999c7.33301 -18 18 -32 32 -42s31.667 -15 53 -15c20.667 0 38.834 5 54.501 15s27.167 26 34.5 48c3.33301 9.33301 5.66602 25.166 6.99902 47.499s2 47.166 2 74.499c0 23.333 -0.666992 45.5 -2 66.5
s-4 37.5 -8 49.5c-7.33301 20 -18.333 35 -33 45s-31.667 15 -51 15zM215 652.999l-125 -101l-37 33l141 146h50l133 -144l-37 -34z" />
    <glyph glyph-name="otilde" unicode="&#xf5;" horiz-adv-x="438" 
d="M222 501c39.333 0 70.335 -7.83594 93.002 -23.5029s40.667 -35.167 54 -58.5c4.66699 -8 8.66699 -18.5 12 -31.5s6 -27.333 8 -43s3.5 -32 4.5 -49s1.5 -33.167 1.5 -48.5c0 -9.33301 -0.333008 -20.666 -1 -33.999s-1.83398 -27.333 -3.50098 -42
s-3.5 -28.667 -5.5 -42s-4.33301 -24 -7 -32c-6 -19.333 -14.833 -35.666 -26.5 -48.999s-25 -24 -40 -32s-31 -13.833 -48 -17.5s-34.5 -5.5 -52.5 -5.5c-38 0 -69.167 8 -93.5 24s-42.5 36.667 -54.5 62c-8.66699 18 -14.667 41.833 -18 71.5s-5 60.834 -5 93.501
c0 31.333 1.5 61.333 4.5 90s8.16699 52 15.5 70c13.333 30 33.666 53.667 60.999 71s61 26 101 26zM220.002 427.997c-19.333 0 -36.668 -4.66504 -52.001 -13.998s-26.666 -23.333 -33.999 -42c-4.66699 -12.667 -8.16699 -30.834 -10.5 -54.501s-3.5 -51.167 -3.5 -82.5
c0 -22 0.5 -42.667 1.5 -62s4.16699 -35.666 9.5 -48.999c7.33301 -18 18 -32 32 -42s31.667 -15 53 -15c20.667 0 38.834 5 54.501 15s27.167 26 34.5 48c3.33301 9.33301 5.66602 25.166 6.99902 47.499s2 47.166 2 74.499c0 23.333 -0.666992 45.5 -2 66.5
s-4 37.5 -8 49.5c-7.33301 20 -18.333 35 -33 45s-31.667 15 -51 15zM154 688.999c10.667 0 21.3359 -2.16895 32.0029 -6.50195s21 -9.16602 31 -14.499s20 -10.166 30 -14.499s19.667 -6.5 29 -6.5c18 0 37 14 57 42l45 -28c-13.333 -27.333 -28.5 -47.833 -45.5 -61.5
s-34.5 -20.5 -52.5 -20.5c-11.333 0 -22.333 2.16699 -33 6.5s-21.167 9 -31.5 14l-30 14c-9.66699 4.33301 -18.834 6.5 -27.501 6.5c-10 0 -19.5 -3 -28.5 -9s-18.833 -15.667 -29.5 -29l-44 25c11.333 22.667 25.666 42 42.999 58s35.666 24 54.999 24z" />
    <glyph glyph-name="odieresis" unicode="&#xf6;" horiz-adv-x="438" 
d="M222 501c39.333 0 70.335 -7.83594 93.002 -23.5029s40.667 -35.167 54 -58.5c4.66699 -8 8.66699 -18.5 12 -31.5s6 -27.333 8 -43s3.5 -32 4.5 -49s1.5 -33.167 1.5 -48.5c0 -9.33301 -0.333008 -20.666 -1 -33.999s-1.83398 -27.333 -3.50098 -42
s-3.5 -28.667 -5.5 -42s-4.33301 -24 -7 -32c-6 -19.333 -14.833 -35.666 -26.5 -48.999s-25 -24 -40 -32s-31 -13.833 -48 -17.5s-34.5 -5.5 -52.5 -5.5c-38 0 -69.167 8 -93.5 24s-42.5 36.667 -54.5 62c-8.66699 18 -14.667 41.833 -18 71.5s-5 60.834 -5 93.501
c0 31.333 1.5 61.333 4.5 90s8.16699 52 15.5 70c13.333 30 33.666 53.667 60.999 71s61 26 101 26zM220.002 427.997c-19.333 0 -36.668 -4.66504 -52.001 -13.998s-26.666 -23.333 -33.999 -42c-4.66699 -12.667 -8.16699 -30.834 -10.5 -54.501s-3.5 -51.167 -3.5 -82.5
c0 -22 0.5 -42.667 1.5 -62s4.16699 -35.666 9.5 -48.999c7.33301 -18 18 -32 32 -42s31.667 -15 53 -15c20.667 0 38.834 5 54.501 15s27.167 26 34.5 48c3.33301 9.33301 5.66602 25.166 6.99902 47.499s2 47.166 2 74.499c0 23.333 -0.666992 45.5 -2 66.5
s-4 37.5 -8 49.5c-7.33301 20 -18.333 35 -33 45s-31.667 15 -51 15zM260 592.999v84h78v-84h-78zM93 592.999v84h79v-84h-79z" />
    <glyph glyph-name="divide" unicode="&#xf7;" horiz-adv-x="440" 
d="M277 463c0 -15.333 -5.33301 -28.333 -16 -39s-23.334 -16 -38.001 -16c-15.333 0 -28.333 5.33301 -39 16s-16 23.667 -16 39s5.33301 28.333 16 39s23.667 16 39 16c14.667 0 27.334 -5.33301 38.001 -16s16 -23.667 16 -39zM19 263v62h406v-62h-406zM223 179
c14.667 0 27.334 -5.16699 38.001 -15.5s16 -23.166 16 -38.499s-5.33301 -28.333 -16 -39s-23.334 -16 -38.001 -16c-15.333 0 -28.333 5.33301 -39 16s-16 23.667 -16 39s5.33301 28.166 16 38.499s23.667 15.5 39 15.5z" />
    <glyph glyph-name="oslash" unicode="&#xf8;" horiz-adv-x="438" 
d="M222 501c24 0 45.335 -3.50195 64.002 -10.502s34.667 -16.167 48 -27.5l28 41l35 -26l-33 -49l6 -10c4.66699 -8.66699 8.66699 -19.5 12 -32.5s6 -27.333 8 -43s3.33301 -31.834 4 -48.501s1 -32.667 1 -48c0 -9.33301 -0.333008 -20.666 -1 -33.999
s-1.83398 -27.333 -3.50098 -42s-3.5 -28.667 -5.5 -42s-4.33301 -24 -7 -32c-6 -19.333 -14.833 -35.666 -26.5 -48.999s-25 -24 -40 -32s-31 -13.833 -48 -17.5s-34.5 -5.5 -52.5 -5.5c-25.333 0 -47.5 3.5 -66.5 10.5s-35.167 16.833 -48.5 29.5l-23 -34l-33 26l29 43
l-6 11c-8.66699 18 -14.667 41.833 -18 71.5s-5 60.834 -5 93.501c0 31.333 1.5 61.333 4.5 90s8.16699 52 15.5 70c13.333 30 33.666 53.667 60.999 71s61 26 101 26zM314.002 251.998c0 17.333 -0.333008 34.334 -1 51.001s-2 31.334 -4 44.001l-167 -245
c16 -23.333 40.667 -35 74 -35c20.667 0 38.834 5 54.501 15s27.167 26 34.5 48c3.33301 9.33301 5.66602 25.166 6.99902 47.499s2 47.166 2 74.499zM220.002 427.999c-19.333 0 -36.5 -4.66699 -51.5 -14s-26.5 -23.333 -34.5 -42c-5.33301 -12 -9 -30 -11 -54
s-3 -51.667 -3 -83c0 -15.333 0.166992 -30.333 0.5 -45s1.5 -28 3.5 -40l165 246c-8 10.667 -18 18.667 -30 24s-25 8 -39 8z" />
    <glyph glyph-name="ugrave" unicode="&#xf9;" horiz-adv-x="442" 
d="M309 0l-0.00195312 53.001h-3c-14 -20 -31.5 -34.833 -52.5 -44.5s-43.167 -14.5 -66.5 -14.5c-20 0 -38.667 3.5 -56 10.5s-32.166 17 -44.499 30s-22.166 28.667 -29.499 47s-11 39.166 -11 62.499v350h81v-323c0 -30 8.16699 -53.833 24.5 -71.5
s38.5 -26.5 66.5 -26.5c27.333 0 49.333 9 66 27s25 42.333 25 73v321h80v-494h-80zM211.998 553.001l-98 167l76 25l70 -173z" />
    <glyph glyph-name="uacute" unicode="&#xfa;" horiz-adv-x="442" 
d="M309 0l-0.00195312 53.001h-3c-14 -20 -31.5 -34.833 -52.5 -44.5s-43.167 -14.5 -66.5 -14.5c-20 0 -38.667 3.5 -56 10.5s-32.166 17 -44.499 30s-22.166 28.667 -29.499 47s-11 39.166 -11 62.499v350h81v-323c0 -30 8.16699 -53.833 24.5 -71.5
s38.5 -26.5 66.5 -26.5c27.333 0 49.333 9 66 27s25 42.333 25 73v321h80v-494h-80zM176.998 572.001l70 173l76 -25l-98 -167z" />
    <glyph glyph-name="ucircumflex" unicode="&#xfb;" horiz-adv-x="442" 
d="M309 0l-0.00195312 53.001h-3c-14 -20 -31.5 -34.833 -52.5 -44.5s-43.167 -14.5 -66.5 -14.5c-20 0 -38.667 3.5 -56 10.5s-32.166 17 -44.499 30s-22.166 28.667 -29.499 47s-11 39.166 -11 62.499v350h81v-323c0 -30 8.16699 -53.833 24.5 -71.5
s38.5 -26.5 66.5 -26.5c27.333 0 49.333 9 66 27s25 42.333 25 73v321h80v-494h-80zM214.998 653.001l-125 -101l-37 33l141 146h50l133 -144l-37 -34z" />
    <glyph glyph-name="udieresis" unicode="&#xfc;" horiz-adv-x="442" 
d="M309 0l-0.00195312 53.001h-3c-14 -20 -31.5 -34.833 -52.5 -44.5s-43.167 -14.5 -66.5 -14.5c-20 0 -38.667 3.5 -56 10.5s-32.166 17 -44.499 30s-22.166 28.667 -29.499 47s-11 39.166 -11 62.499v350h81v-323c0 -30 8.16699 -53.833 24.5 -71.5
s38.5 -26.5 66.5 -26.5c27.333 0 49.333 9 66 27s25 42.333 25 73v321h80v-494h-80zM256.998 593.001v84h78v-84h-78zM89.998 593.001v84h79v-84h-79z" />
    <glyph glyph-name="yacute" unicode="&#xfd;" horiz-adv-x="384" 
d="M206 -99c-10.667 -35.333 -26.999 -61.333 -48.999 -78s-48.667 -25 -80 -25h-26v70h24c31.333 0 52.666 23.667 63.999 71l21 73l-159 483h86l61 -198l47 -167h3l44 167l58 198h84zM167.001 572l70 173l76 -25l-98 -167z" />
    <glyph glyph-name="thorn" unicode="&#xfe;" horiz-adv-x="432" 
d="M127 448c14.667 18.667 31.333 32.166 50 40.499s39.667 12.5 63 12.5c32.667 0 58.667 -6.83301 78 -20.5s34.333 -32 45 -55s17.667 -49.833 21 -80.5s5 -62.667 5 -96c0 -31.333 -1.83301 -62.166 -5.5 -92.499s-11.167 -57.5 -22.5 -81.5s-27.333 -43.333 -48 -58
s-47.667 -22 -81 -22c-41.333 0 -76.333 16.333 -105 49h-2v-244h-81v901h81v-252c0.666992 0 1 -0.166992 1 -0.5s0.333008 -0.5 1 -0.5zM213.999 74.999c20.667 0 36.999 4.66602 48.999 13.999s21.333 21.833 28 37.5s11 33.834 13 54.501s3 42.667 3 66
c0 24 -1 46.667 -3 68s-6.16699 40 -12.5 56s-15.5 28.833 -27.5 38.5s-28.333 14.5 -49 14.5c-24 0 -42.333 -6.16699 -55 -18.5s-21.667 -27.833 -27 -46.5s-8.16602 -39.167 -8.49902 -61.5s-0.5 -43.166 -0.5 -62.499c0 -18 0.833008 -36.333 2.5 -55
s5.5 -35.834 11.5 -51.501s15 -28.5 27 -38.5s28.333 -15 49 -15z" />
    <glyph glyph-name="ydieresis" unicode="&#xff;" horiz-adv-x="384" 
d="M206 -99c-10.667 -35.333 -26.999 -61.333 -48.999 -78s-48.667 -25 -80 -25h-26v70h24c31.333 0 52.666 23.667 63.999 71l21 73l-159 483h86l61 -198l47 -167h3l44 167l58 198h84zM240.001 593v84h78v-84h-78zM73.001 593v84h79v-84h-79z" />
    <glyph glyph-name="Amacron" unicode="&#x100;" horiz-adv-x="497" 
d="M403 0l-44 158h-222l-43 -158h-85l202 696h75l203 -696h-86zM289 413l-39 154h-4l-39 -153l-51 -181h184zM123 763v75h248v-75h-248z" />
    <glyph glyph-name="amacron" unicode="&#x101;" horiz-adv-x="426" 
d="M305 38c-11.333 -14.667 -27.167 -25.668 -47.5 -33.001s-43.5 -11 -69.5 -11c-24 0 -45 3.83301 -63 11.5s-32.833 18.167 -44.5 31.5s-20.334 28.833 -26.001 46.5s-8.5 36.167 -8.5 55.5c0 44 13.667 80.5 41 109.5s71 43.5 131 43.5h91v61
c0 22.667 -7.5 40.334 -22.5 53.001s-37.167 19 -66.5 19c-19.333 0 -37.5 -3.5 -54.5 -10.5s-29.167 -19.167 -36.5 -36.5l-31.5 18.5l-31.5 19.5c13.333 27.333 33.833 48.333 61.5 63s58.5 22 92.5 22c23.333 0 45.333 -2.5 66 -7.5s38.834 -13.167 54.501 -24.5
s28 -26.5 37 -45.5s13.5 -42.833 13.5 -71.5v-352h-82v36zM308.999 222.999h-97c-26 0 -47.333 -6.16699 -64 -18.5s-25 -32.5 -25 -60.5c0 -22 7.33301 -39.833 22 -53.5s37 -20.5 67 -20.5c28 0 51.167 6.33301 69.5 19s27.5 34.667 27.5 66v68zM99.999 587.999v75h248
v-75h-248z" />
    <glyph glyph-name="Abreve" unicode="&#x102;" horiz-adv-x="497" 
d="M403 0l-44 158h-222l-43 -158h-85l202 696h75l203 -696h-86zM289 413l-39 154h-4l-39 -153l-51 -181h184zM179 876c0.666992 -6.66699 2.66699 -13.667 6 -21s8 -14.166 14 -20.499s13.167 -11.5 21.5 -15.5s17.5 -6 27.5 -6c11.333 0 21.333 2 30 6s16 9.16699 22 15.5
s10.5 13.166 13.5 20.499s4.5 14.333 4.5 21h67c-1.33301 -13.333 -4.5 -27.333 -9.5 -42s-12.667 -28.167 -23 -40.5s-24 -22.666 -41 -30.999s-38.167 -12.5 -63.5 -12.5c-26 0 -47.667 4.16699 -65 12.5s-31.333 18.666 -42 30.999s-18.5 25.833 -23.5 40.5
s-7.5 28.667 -7.5 42h69z" />
    <glyph glyph-name="abreve" unicode="&#x103;" horiz-adv-x="426" 
d="M305 38c-11.333 -14.667 -27.167 -25.668 -47.5 -33.001s-43.5 -11 -69.5 -11c-24 0 -45 3.83301 -63 11.5s-32.833 18.167 -44.5 31.5s-20.334 28.833 -26.001 46.5s-8.5 36.167 -8.5 55.5c0 44 13.667 80.5 41 109.5s71 43.5 131 43.5h91v61
c0 22.667 -7.5 40.334 -22.5 53.001s-37.167 19 -66.5 19c-19.333 0 -37.5 -3.5 -54.5 -10.5s-29.167 -19.167 -36.5 -36.5l-31.5 18.5l-31.5 19.5c13.333 27.333 33.833 48.333 61.5 63s58.5 22 92.5 22c23.333 0 45.333 -2.5 66 -7.5s38.834 -13.167 54.501 -24.5
s28 -26.5 37 -45.5s13.5 -42.833 13.5 -71.5v-352h-82v36zM308.999 222.999h-97c-26 0 -47.333 -6.16699 -64 -18.5s-25 -32.5 -25 -60.5c0 -22 7.33301 -39.833 22 -53.5s37 -20.5 67 -20.5c28 0 51.167 6.33301 69.5 19s27.5 34.667 27.5 66v68zM144.999 698.999
c0.666992 -6.66699 2.66699 -13.667 6 -21s8 -14.166 14 -20.499s13.167 -11.5 21.5 -15.5s17.5 -6 27.5 -6c11.333 0 21.333 2 30 6s16 9.16699 22 15.5s10.5 13.166 13.5 20.499s4.5 14.333 4.5 21h67c-1.33301 -13.333 -4.5 -27.333 -9.5 -42s-12.667 -28.167 -23 -40.5
s-24 -22.666 -41 -30.999s-38.167 -12.5 -63.5 -12.5c-26 0 -47.667 4.16699 -65 12.5s-31.333 18.666 -42 30.999s-18.5 25.833 -23.5 40.5s-7.5 28.667 -7.5 42h69z" />
    <glyph glyph-name="Aogonek" unicode="&#x104;" horiz-adv-x="497" 
d="M366 -92c0 13.333 2.83398 27.5 8.50098 42.5s15.167 31.833 28.5 50.5l-44 157h-222l-43 -158h-85l202 696h75l203 -696h-27c-20.667 -29.333 -31 -55 -31 -77c0 -14 4.16699 -24.833 12.5 -32.5s20.166 -11.5 35.499 -11.5c14.667 0 33.667 5.33301 57 16l20 -50
c-13.333 -7.33301 -28 -13.333 -44 -18s-32.333 -7 -49 -7c-28.667 0 -52 8.66699 -70 26s-27 38 -27 62zM289.001 413l-39 154h-4l-39 -153l-51 -181h184z" />
    <glyph glyph-name="aogonek" unicode="&#x105;" horiz-adv-x="426" 
d="M262 -91c0 13.333 3 27.832 9 43.499s16 33.167 30 52.5h8v31l-4 2c-11.333 -14.667 -27.166 -25.667 -47.499 -33s-43.5 -11 -69.5 -11c-24 0 -45 3.83301 -63 11.5s-32.833 18.167 -44.5 31.5s-20.334 28.833 -26.001 46.5s-8.5 36.167 -8.5 55.5
c0 44 13.667 80.5 41 109.5s71 43.5 131 43.5h91v61c0 22.667 -7.5 40.334 -22.5 53.001s-37.167 19 -66.5 19c-19.333 0 -37.5 -3.5 -54.5 -10.5s-29.167 -19.167 -36.5 -36.5l-31.5 18.5l-31.5 19.5c13.333 27.333 33.833 48.333 61.5 63s58.5 22 92.5 22
c23.333 0 45.333 -2.5 66 -7.5s38.834 -13.167 54.501 -24.5s28 -26.5 37 -45.5s13.5 -42.833 13.5 -71.5v-352h-33c-20.667 -28.667 -31 -54 -31 -76c0 -14 4.16699 -24.833 12.5 -32.5s20.166 -11.5 35.499 -11.5c14.667 0 33.667 5.33301 57 16l20 -50
c-13.333 -7.33301 -28 -13.333 -44 -18s-32.333 -7 -49 -7c-28.667 0 -52 8.66699 -70 26s-27 38 -27 62zM309 222.999h-97c-26 0 -47.333 -6.16699 -64 -18.5s-25 -32.5 -25 -60.5c0 -22 7.33301 -39.833 22 -53.5s37 -20.5 67 -20.5c28 0 51.167 6.33301 69.5 19
s27.5 34.667 27.5 66v68z" />
    <glyph glyph-name="Cacute" unicode="&#x106;" horiz-adv-x="469" 
d="M446 129c-12 -44 -35.1689 -77.4961 -69.502 -100.496s-75.5 -34.5 -123.5 -34.5c-31.333 0 -59.666 5.16699 -84.999 15.5s-46.666 24.666 -63.999 42.999s-30.666 40.166 -39.999 65.499s-14 53.333 -14 84v292c0 29.333 4.5 56.666 13.5 81.999
s22.167 47.166 39.5 65.499s38.666 32.833 63.999 43.5s54 16 86 16c47.333 0 88.166 -11.667 122.499 -35s57.833 -56 70.5 -98l-79 -31c-6.66699 25.333 -19.5 45.666 -38.5 60.999s-44.167 23 -75.5 23c-19.333 0 -36.5 -3.5 -51.5 -10.5s-27.5 -16.167 -37.5 -27.5
s-17.667 -24.666 -23 -39.999s-8 -31 -8 -47v-296c0 -16.667 2.66699 -32.667 8 -48s13 -28.833 23 -40.5s22.5 -21 37.5 -28s32.167 -10.5 51.5 -10.5c30 0 54.833 7.66699 74.5 23s32.834 36 39.501 62zM178.998 766.004l145 118l54 -59l-166 -98z" />
    <glyph glyph-name="cacute" unicode="&#x107;" horiz-adv-x="385" 
d="M301 121c11.333 -6.66699 22.668 -12.833 34.001 -18.5s22.666 -11.834 33.999 -18.501c-13.333 -28 -33 -50 -59 -66s-57 -24 -93 -24c-37.333 0 -68 6.33301 -92 19s-43 30.5 -57 53.5s-23.667 50.833 -29 83.5s-8 68.667 -8 108c0 74 15 133 45 177s77 66 141 66
c36 0 66.833 -8.16699 92.5 -24.5s45.167 -38.5 58.5 -66.5l-66 -41c-7.33301 17.333 -18.333 30.833 -33 40.5s-31.667 14.5 -51 14.5c-22 0 -40 -4.33301 -54 -13s-24.833 -20.5 -32.5 -35.5s-12.834 -32.667 -15.501 -53s-4 -42.5 -4 -66.5s1.33301 -47.167 4 -69.5
s7.83398 -42.166 15.501 -59.499s18.334 -31.166 32.001 -41.499s31.5 -15.5 53.5 -15.5c20 0 37.167 5.16699 51.5 15.5s25.166 22.166 32.499 35.499zM165.002 572.001l70 173l76 -25l-98 -167z" />
    <glyph glyph-name="Ccircumflex" unicode="&#x108;" horiz-adv-x="469" 
d="M446 129c-12 -44 -35.1689 -77.4961 -69.502 -100.496s-75.5 -34.5 -123.5 -34.5c-31.333 0 -59.666 5.16699 -84.999 15.5s-46.666 24.666 -63.999 42.999s-30.666 40.166 -39.999 65.499s-14 53.333 -14 84v292c0 29.333 4.5 56.666 13.5 81.999
s22.167 47.166 39.5 65.499s38.666 32.833 63.999 43.5s54 16 86 16c47.333 0 88.166 -11.667 122.499 -35s57.833 -56 70.5 -98l-79 -31c-6.66699 25.333 -19.5 45.666 -38.5 60.999s-44.167 23 -75.5 23c-19.333 0 -36.5 -3.5 -51.5 -10.5s-27.5 -16.167 -37.5 -27.5
s-17.667 -24.666 -23 -39.999s-8 -31 -8 -47v-296c0 -16.667 2.66699 -32.667 8 -48s13 -28.833 23 -40.5s22.5 -21 37.5 -28s32.167 -10.5 51.5 -10.5c30 0 54.833 7.66699 74.5 23s32.834 36 39.501 62zM249.998 813.004l-130 -80l-31 33l140 123h50l133 -121l-32 -35z
" />
    <glyph glyph-name="ccircumflex" unicode="&#x109;" horiz-adv-x="385" 
d="M301 121c11.333 -6.66699 22.668 -12.833 34.001 -18.5s22.666 -11.834 33.999 -18.501c-13.333 -28 -33 -50 -59 -66s-57 -24 -93 -24c-37.333 0 -68 6.33301 -92 19s-43 30.5 -57 53.5s-23.667 50.833 -29 83.5s-8 68.667 -8 108c0 74 15 133 45 177s77 66 141 66
c36 0 66.833 -8.16699 92.5 -24.5s45.167 -38.5 58.5 -66.5l-66 -41c-7.33301 17.333 -18.333 30.833 -33 40.5s-31.667 14.5 -51 14.5c-22 0 -40 -4.33301 -54 -13s-24.833 -20.5 -32.5 -35.5s-12.834 -32.667 -15.501 -53s-4 -42.5 -4 -66.5s1.33301 -47.167 4 -69.5
s7.83398 -42.166 15.501 -59.499s18.334 -31.166 32.001 -41.499s31.5 -15.5 53.5 -15.5c20 0 37.167 5.16699 51.5 15.5s25.166 22.166 32.499 35.499zM215.002 653.001l-125 -101l-37 33l141 146h50l133 -144l-37 -34z" />
    <glyph glyph-name="Cdotaccent" unicode="&#x10a;" horiz-adv-x="469" 
d="M446 129c-12 -44 -35.1689 -77.4961 -69.502 -100.496s-75.5 -34.5 -123.5 -34.5c-31.333 0 -59.666 5.16699 -84.999 15.5s-46.666 24.666 -63.999 42.999s-30.666 40.166 -39.999 65.499s-14 53.333 -14 84v292c0 29.333 4.5 56.666 13.5 81.999
s22.167 47.166 39.5 65.499s38.666 32.833 63.999 43.5s54 16 86 16c47.333 0 88.166 -11.667 122.499 -35s57.833 -56 70.5 -98l-79 -31c-6.66699 25.333 -19.5 45.666 -38.5 60.999s-44.167 23 -75.5 23c-19.333 0 -36.5 -3.5 -51.5 -10.5s-27.5 -16.167 -37.5 -27.5
s-17.667 -24.666 -23 -39.999s-8 -31 -8 -47v-296c0 -16.667 2.66699 -32.667 8 -48s13 -28.833 23 -40.5s22.5 -21 37.5 -28s32.167 -10.5 51.5 -10.5c30 0 54.833 7.66699 74.5 23s32.834 36 39.501 62zM215.998 763.004v84h78v-84h-78z" />
    <glyph glyph-name="cdotaccent" unicode="&#x10b;" horiz-adv-x="385" 
d="M301 121c11.333 -6.66699 22.668 -12.833 34.001 -18.5s22.666 -11.834 33.999 -18.501c-13.333 -28 -33 -50 -59 -66s-57 -24 -93 -24c-37.333 0 -68 6.33301 -92 19s-43 30.5 -57 53.5s-23.667 50.833 -29 83.5s-8 68.667 -8 108c0 74 15 133 45 177s77 66 141 66
c36 0 66.833 -8.16699 92.5 -24.5s45.167 -38.5 58.5 -66.5l-66 -41c-7.33301 17.333 -18.333 30.833 -33 40.5s-31.667 14.5 -51 14.5c-22 0 -40 -4.33301 -54 -13s-24.833 -20.5 -32.5 -35.5s-12.834 -32.667 -15.501 -53s-4 -42.5 -4 -66.5s1.33301 -47.167 4 -69.5
s7.83398 -42.166 15.501 -59.499s18.334 -31.166 32.001 -41.499s31.5 -15.5 53.5 -15.5c20 0 37.167 5.16699 51.5 15.5s25.166 22.166 32.499 35.499zM173.002 595.001v84h78v-84h-78z" />
    <glyph glyph-name="Ccaron" unicode="&#x10c;" horiz-adv-x="469" 
d="M446 129c-12 -44 -35.1689 -77.4961 -69.502 -100.496s-75.5 -34.5 -123.5 -34.5c-31.333 0 -59.666 5.16699 -84.999 15.5s-46.666 24.666 -63.999 42.999s-30.666 40.166 -39.999 65.499s-14 53.333 -14 84v292c0 29.333 4.5 56.666 13.5 81.999
s22.167 47.166 39.5 65.499s38.666 32.833 63.999 43.5s54 16 86 16c47.333 0 88.166 -11.667 122.499 -35s57.833 -56 70.5 -98l-79 -31c-6.66699 25.333 -19.5 45.666 -38.5 60.999s-44.167 23 -75.5 23c-19.333 0 -36.5 -3.5 -51.5 -10.5s-27.5 -16.167 -37.5 -27.5
s-17.667 -24.666 -23 -39.999s-8 -31 -8 -47v-296c0 -16.667 2.66699 -32.667 8 -48s13 -28.833 23 -40.5s22.5 -21 37.5 -28s32.167 -10.5 51.5 -10.5c30 0 54.833 7.66699 74.5 23s32.834 36 39.501 62zM385.998 891.004l32 -34l-133 -122h-50l-140 124l31 33l130 -81z
" />
    <glyph glyph-name="ccaron" unicode="&#x10d;" horiz-adv-x="385" 
d="M301 121c11.333 -6.66699 22.668 -12.833 34.001 -18.5s22.666 -11.834 33.999 -18.501c-13.333 -28 -33 -50 -59 -66s-57 -24 -93 -24c-37.333 0 -68 6.33301 -92 19s-43 30.5 -57 53.5s-23.667 50.833 -29 83.5s-8 68.667 -8 108c0 74 15 133 45 177s77 66 141 66
c36 0 66.833 -8.16699 92.5 -24.5s45.167 -38.5 58.5 -66.5l-66 -41c-7.33301 17.333 -18.333 30.833 -33 40.5s-31.667 14.5 -51 14.5c-22 0 -40 -4.33301 -54 -13s-24.833 -20.5 -32.5 -35.5s-12.834 -32.667 -15.501 -53s-4 -42.5 -4 -66.5s1.33301 -47.167 4 -69.5
s7.83398 -42.166 15.501 -59.499s18.334 -31.166 32.001 -41.499s31.5 -15.5 53.5 -15.5c20 0 37.167 5.16699 51.5 15.5s25.166 22.166 32.499 35.499zM341.002 734.001l37 -35l-133 -144h-50l-141 146l37 33l125 -100z" />
    <glyph glyph-name="Dcaron" unicode="&#x10e;" horiz-adv-x="521" 
d="M259 696c46.667 0 86.667 -8.50098 120 -25.501s58 -45.5 74 -85.5c10 -26.667 15.5 -59.167 16.5 -97.5s1.5 -82.833 1.5 -133.5c0 -52.667 -0.333008 -98 -1 -136s-6 -70.667 -16 -98c-9.33301 -23.333 -21 -42.666 -35 -57.999s-30 -27.5 -48 -36.5
s-37.667 -15.5 -59 -19.5s-43.333 -6 -66 -6h-182v696h195zM387 466.999c0 54 -11.667 92.833 -35 116.5s-57 35.5 -101 35.5h-103v-541h103c49.333 0 84.333 13.167 105 39.5s31 62.833 31 109.5v240zM373 890.999l32 -34l-133 -122h-50l-140 124l31 33l130 -81z" />
    <glyph glyph-name="dcaron" unicode="&#x10f;" horiz-adv-x="518" 
d="M480 528h-47l31 89h-28v103h95v-101zM301 47c-14.667 -18.667 -31.334 -32.167 -50.001 -40.5s-39.667 -12.5 -63 -12.5c-32.667 0 -58.834 6.83301 -78.501 20.5s-34.667 32 -45 55s-17.166 49.833 -20.499 80.5s-5 62.667 -5 96c0 30.667 1.83301 61.167 5.5 91.5
s11 57.5 22 81.5s26.833 43.5 47.5 58.5s48 22.5 82 22.5c20 0 38.833 -3.66699 56.5 -11s33.834 -19.333 48.501 -36h2v273h81v-726h-81v46c-0.666992 0 -1 0.166992 -1 0.5s-0.333008 0.5 -1 0.5zM214 420c-20.667 0 -37.167 -4.66895 -49.5 -14.002
s-21.666 -21.833 -27.999 -37.5s-10.5 -34 -12.5 -55s-3 -42.833 -3 -65.5c0 -24 1 -46.667 3 -68s6.33301 -40 13 -56s16 -28.833 28 -38.5s28 -14.5 48 -14.5c24 0 42.333 6.66699 55 20s21.667 29.833 27 49.5s8.16602 40.334 8.49902 62.001s0.5 40.834 0.5 57.501
c0 20.667 -1 40.5 -3 59.5s-6 36 -12 51s-15 27 -27 36s-28 13.5 -48 13.5z" />
    <glyph glyph-name="Dcroat" unicode="&#x110;" horiz-adv-x="521" 
d="M12 391l52 -0.000976562v305h195c46.667 0 86.667 -8.5 120 -25.5s58 -45.5 74 -85.5c10 -26.667 15.5 -59.167 16.5 -97.5s1.5 -82.833 1.5 -133.5c0 -52.667 -0.333008 -98 -1 -136s-6 -70.667 -16 -98c-9.33301 -23.333 -21 -42.666 -35 -57.999s-30 -27.5 -48 -36.5
s-37.667 -15.5 -59 -19.5s-43.333 -6 -66 -6h-182v328h-52v63zM387 466.999c0 54 -11.667 92.833 -35 116.5s-57 35.5 -101 35.5h-103v-228h77v-63h-77v-250h103c49.333 0 84.333 13.167 105 39.5s31 62.833 31 109.5v240z" />
    <glyph glyph-name="dcroat" unicode="&#x111;" horiz-adv-x="433" 
d="M190 624h113v102h81v-102h48v-57h-48v-567h-81v46c-0.666992 0 -1 0.166992 -1 0.5s-0.333008 0.5 -1 0.5c-14.667 -18.667 -31.334 -32.167 -50.001 -40.5s-39.667 -12.5 -63 -12.5c-32.667 0 -58.834 6.83301 -78.501 20.5s-34.667 32 -45 55
s-17.166 49.833 -20.499 80.5s-5 62.667 -5 96c0 30.667 1.83301 61.167 5.5 91.5s11 57.5 22 81.5s26.833 43.5 47.5 58.5s48 22.5 82 22.5c20 0 38.833 -3.66699 56.5 -11s33.834 -19.333 48.501 -36h2v114h-113v57zM214 420c-20.667 0 -37.167 -4.66895 -49.5 -14.002
s-21.666 -21.833 -27.999 -37.5s-10.5 -34 -12.5 -55s-3 -42.833 -3 -65.5c0 -24 1 -46.667 3 -68s6.33301 -40 13 -56s16 -28.833 28 -38.5s28 -14.5 48 -14.5c24 0 42.333 6.66699 55 20s21.667 29.833 27 49.5s8.16602 40.334 8.49902 62.001s0.5 40.834 0.5 57.501
c0 20.667 -1 40.5 -3 59.5s-6 36 -12 51s-15 27 -27 36s-28 13.5 -48 13.5z" />
    <glyph glyph-name="Emacron" unicode="&#x112;" horiz-adv-x="455" 
d="M65 0v696h369v-78h-286v-228h245v-75h-245v-234h286v-81h-369zM120 763v75h248v-75h-248z" />
    <glyph glyph-name="emacron" unicode="&#x113;" horiz-adv-x="424" 
d="M372 89c-13.333 -29.333 -33.167 -52.4961 -59.5 -69.4961s-56.166 -25.5 -89.499 -25.5s-61.666 4.66699 -84.999 14s-42.5 24.166 -57.5 44.499s-26 46.5 -33 78.5s-10.5 70.667 -10.5 116c0 31.333 2.5 62.166 7.5 92.499s14 57.5 27 81.5s30.833 43.333 53.5 58
s51.667 22 87 22c56 0 98.833 -17.833 128.5 -53.5s44.5 -84.834 44.5 -147.501v-77h-267c0 -22 1.33301 -42.5 4 -61.5s7.66699 -35.5 15 -49.5s17.666 -25 30.999 -33s30.666 -12 51.999 -12c18 0 34.5 5.66699 49.5 17s27.167 24.666 36.5 39.999zM304.999 288.004
c0 45.333 -7.83301 79.5 -23.5 102.5s-38.5 34.5 -68.5 34.5c-34.667 0 -58.5 -12.333 -71.5 -37s-20.167 -58 -21.5 -100h185zM99.999 588.004v75h248v-75h-248z" />
    <glyph glyph-name="Ebreve" unicode="&#x114;" horiz-adv-x="455" 
d="M65 0v696h369v-78h-286v-228h245v-75h-245v-234h286v-81h-369zM176 876c0.666992 -6.66699 2.66699 -13.667 6 -21s8 -14.166 14 -20.499s13.167 -11.5 21.5 -15.5s17.5 -6 27.5 -6c11.333 0 21.333 2 30 6s16 9.16699 22 15.5s10.5 13.166 13.5 20.499
s4.5 14.333 4.5 21h67c-1.33301 -13.333 -4.5 -27.333 -9.5 -42s-12.667 -28.167 -23 -40.5s-24 -22.666 -41 -30.999s-38.167 -12.5 -63.5 -12.5c-26 0 -47.667 4.16699 -65 12.5s-31.333 18.666 -42 30.999s-18.5 25.833 -23.5 40.5s-7.5 28.667 -7.5 42h69z" />
    <glyph glyph-name="ebreve" unicode="&#x115;" horiz-adv-x="424" 
d="M372 89c-13.333 -29.333 -33.167 -52.4961 -59.5 -69.4961s-56.166 -25.5 -89.499 -25.5s-61.666 4.66699 -84.999 14s-42.5 24.166 -57.5 44.499s-26 46.5 -33 78.5s-10.5 70.667 -10.5 116c0 31.333 2.5 62.166 7.5 92.499s14 57.5 27 81.5s30.833 43.333 53.5 58
s51.667 22 87 22c56 0 98.833 -17.833 128.5 -53.5s44.5 -84.834 44.5 -147.501v-77h-267c0 -22 1.33301 -42.5 4 -61.5s7.66699 -35.5 15 -49.5s17.666 -25 30.999 -33s30.666 -12 51.999 -12c18 0 34.5 5.66699 49.5 17s27.167 24.666 36.5 39.999zM304.999 288.004
c0 45.333 -7.83301 79.5 -23.5 102.5s-38.5 34.5 -68.5 34.5c-34.667 0 -58.5 -12.333 -71.5 -37s-20.167 -58 -21.5 -100h185zM147.999 699.004c0.666992 -6.66699 2.66699 -13.667 6 -21s8 -14.166 14 -20.499s13.167 -11.5 21.5 -15.5s17.5 -6 27.5 -6
c11.333 0 21.333 2 30 6s16 9.16699 22 15.5s10.5 13.166 13.5 20.499s4.5 14.333 4.5 21h67c-1.33301 -13.333 -4.5 -27.333 -9.5 -42s-12.667 -28.167 -23 -40.5s-24 -22.666 -41 -30.999s-38.167 -12.5 -63.5 -12.5c-26 0 -47.667 4.16699 -65 12.5
s-31.333 18.666 -42 30.999s-18.5 25.833 -23.5 40.5s-7.5 28.667 -7.5 42h69z" />
    <glyph glyph-name="Edotaccent" unicode="&#x116;" horiz-adv-x="455" 
d="M65 0v696h369v-78h-286v-228h245v-75h-245v-234h286v-81h-369zM198 763v84h78v-84h-78z" />
    <glyph glyph-name="edotaccent" unicode="&#x117;" horiz-adv-x="424" 
d="M372 89c-13.333 -29.333 -33.167 -52.4961 -59.5 -69.4961s-56.166 -25.5 -89.499 -25.5s-61.666 4.66699 -84.999 14s-42.5 24.166 -57.5 44.499s-26 46.5 -33 78.5s-10.5 70.667 -10.5 116c0 31.333 2.5 62.166 7.5 92.499s14 57.5 27 81.5s30.833 43.333 53.5 58
s51.667 22 87 22c56 0 98.833 -17.833 128.5 -53.5s44.5 -84.834 44.5 -147.501v-77h-267c0 -22 1.33301 -42.5 4 -61.5s7.66699 -35.5 15 -49.5s17.666 -25 30.999 -33s30.666 -12 51.999 -12c18 0 34.5 5.66699 49.5 17s27.167 24.666 36.5 39.999zM304.999 288.004
c0 45.333 -7.83301 79.5 -23.5 102.5s-38.5 34.5 -68.5 34.5c-34.667 0 -58.5 -12.333 -71.5 -37s-20.167 -58 -21.5 -100h185zM174.999 593.004v84h78v-84h-78z" />
    <glyph glyph-name="Eogonek" unicode="&#x118;" horiz-adv-x="455" 
d="M338 -92c0 13.333 2.66895 27.332 8.00195 41.999s14.666 31.334 27.999 50.001h-309v696h369v-78h-286v-228h245v-75h-245v-234h286v-81c-20.667 -29.333 -31 -55 -31 -77c0 -14 4.16699 -24.833 12.5 -32.5s20.166 -11.5 35.499 -11.5c14.667 0 33.667 5.33301 57 16
l20 -50c-13.333 -7.33301 -28 -13.333 -44 -18s-32.333 -7 -49 -7c-28.667 0 -52 8.66699 -70 26s-27 38 -27 62z" />
    <glyph glyph-name="eogonek" unicode="&#x119;" horiz-adv-x="424" 
d="M256 -33c0 5.33301 0.334961 10.6719 1.00195 16.0049s2 10.666 4 15.999c-13.333 -3.33301 -26 -5 -38 -5c-33.333 0 -61.666 4.66699 -84.999 14s-42.5 24.166 -57.5 44.499s-26 46.5 -33 78.5s-10.5 70.667 -10.5 116c0 31.333 2.5 62.166 7.5 92.499s14 57.5 27 81.5
s30.833 43.333 53.5 58s51.667 22 87 22c56 0 98.833 -17.833 128.5 -53.5s44.5 -84.834 44.5 -147.501v-77h-267c0 -22 1.33301 -42.5 4 -61.5s7.66699 -35.5 15 -49.5s17.666 -25 30.999 -33s30.666 -12 51.999 -12c18 0 34.5 5.66699 49.5 17s27.167 24.666 36.5 39.999
l66 -35c-6.66699 -14.667 -16 -28.667 -28 -42c-15.333 -24 -23 -45.667 -23 -65c0 -14 4.16699 -24.833 12.5 -32.5s20.166 -11.5 35.499 -11.5c14.667 0 33.667 5.33301 57 16l20 -50c-13.333 -7.33301 -28 -13.333 -44 -18s-32.333 -7 -49 -7
c-28.667 0 -52 8.66699 -70 26s-27 38 -27 62zM305.002 288.006c0 45.333 -7.83301 79.5 -23.5 102.5s-38.5 34.5 -68.5 34.5c-34.667 0 -58.5 -12.333 -71.5 -37s-20.167 -58 -21.5 -100h185z" />
    <glyph glyph-name="Ecaron" unicode="&#x11a;" horiz-adv-x="455" 
d="M65 0v696h369v-78h-286v-228h245v-75h-245v-234h286v-81h-369zM369 891l32 -34l-133 -122h-50l-140 124l31 33l130 -81z" />
    <glyph glyph-name="ecaron" unicode="&#x11b;" horiz-adv-x="424" 
d="M372 89c-13.333 -29.333 -33.167 -52.4961 -59.5 -69.4961s-56.166 -25.5 -89.499 -25.5s-61.666 4.66699 -84.999 14s-42.5 24.166 -57.5 44.499s-26 46.5 -33 78.5s-10.5 70.667 -10.5 116c0 31.333 2.5 62.166 7.5 92.499s14 57.5 27 81.5s30.833 43.333 53.5 58
s51.667 22 87 22c56 0 98.833 -17.833 128.5 -53.5s44.5 -84.834 44.5 -147.501v-77h-267c0 -22 1.33301 -42.5 4 -61.5s7.66699 -35.5 15 -49.5s17.666 -25 30.999 -33s30.666 -12 51.999 -12c18 0 34.5 5.66699 49.5 17s27.167 24.666 36.5 39.999zM304.999 288.004
c0 45.333 -7.83301 79.5 -23.5 102.5s-38.5 34.5 -68.5 34.5c-34.667 0 -58.5 -12.333 -71.5 -37s-20.167 -58 -21.5 -100h185zM343.999 732.004l37 -35l-133 -144h-50l-141 146l37 33l125 -100z" />
    <glyph glyph-name="Gcircumflex" unicode="&#x11c;" horiz-adv-x="506" 
d="M253 70c18 0 34.332 3.16504 48.999 9.49805s27.167 14.833 37.5 25.5s18.5 23.334 24.5 38.001s9 30.334 9 47.001v110h-114v74h198v-179c0 -30.667 -5.16699 -58.5 -15.5 -83.5s-24.5 -46.167 -42.5 -63.5s-39.5 -30.833 -64.5 -40.5s-52.167 -14.5 -81.5 -14.5
c-32 0 -60.667 5.16699 -86 15.5s-46.666 24.666 -63.999 42.999s-30.666 40.333 -39.999 66s-14 53.834 -14 84.501v292c0 29.333 4.5 56.666 13.5 81.999s22.333 47.166 40 65.499s39.167 32.833 64.5 43.5s54 16 86 16c47.333 0 88.166 -11.667 122.499 -35
s57.833 -56.666 70.5 -99.999l-80 -27c-6.66699 24.667 -19.667 44.5 -39 59.5s-44 22.5 -74 22.5c-19.333 0 -36.5 -3.5 -51.5 -10.5s-27.667 -16.167 -38 -27.5s-18.166 -24.666 -23.499 -39.999s-8 -31 -8 -47v-299c0 -16.667 2.66699 -32.667 8 -48
s13.166 -28.833 23.499 -40.5s23 -21 38 -28s32.167 -10.5 51.5 -10.5zM247.999 812.998l-130 -80l-31 33l140 123h50l133 -121l-32 -35z" />
    <glyph glyph-name="gcircumflex" unicode="&#x11d;" horiz-adv-x="441" 
d="M385 -4c0 -61.333 -14.501 -110.5 -43.501 -147.5s-74.833 -55.5 -137.5 -55.5c-32 0 -61 7.66699 -87 23s-45.667 37 -59 65l67 39c7.33301 -13.333 18 -25.166 32 -35.499s30.667 -15.5 50 -15.5c34 0 58.667 10 74 30s23 48 23 84v69h-2
c-15.333 -20.667 -33 -35.334 -53 -44.001s-40 -13 -60 -13c-34 0 -61 7.16699 -81 21.5s-35 33 -45 56s-16.5 49.333 -19.5 79s-4.5 60.167 -4.5 91.5c0 32 1.5 63.5 4.5 94.5s9.5 58.667 19.5 83s25 43.833 45 58.5s47 22 81 22c23.333 0 44.333 -4.16699 63 -12.5
s35.334 -21.833 50.001 -40.5c0.666992 0 1 0.166992 1 0.5s0.333008 0.5 1 0.5v46h81v-499zM210.999 75c20 0 36.166 4.5 48.499 13.5s21.833 21 28.5 36s11.167 32 13.5 51s3.5 38.833 3.5 59.5c0 19.333 -0.166992 40 -0.5 62s-3.16602 42.333 -8.49902 61
s-14.333 34.167 -27 46.5s-31 18.5 -55 18.5c-21.333 0 -38.166 -4.66699 -50.499 -14s-21.5 -22 -27.5 -38s-9.83301 -34.667 -11.5 -56s-2.5 -44 -2.5 -68c0 -26.667 1 -50.667 3 -72s6.33301 -39.333 13 -54s15.667 -26 27 -34s26.666 -12 45.999 -12zM224.998 653
l-125 -101l-37 33l141 146h50l133 -144l-37 -34z" />
    <glyph glyph-name="Gbreve" unicode="&#x11e;" horiz-adv-x="506" 
d="M253 70c18 0 34.332 3.16504 48.999 9.49805s27.167 14.833 37.5 25.5s18.5 23.334 24.5 38.001s9 30.334 9 47.001v110h-114v74h198v-179c0 -30.667 -5.16699 -58.5 -15.5 -83.5s-24.5 -46.167 -42.5 -63.5s-39.5 -30.833 -64.5 -40.5s-52.167 -14.5 -81.5 -14.5
c-32 0 -60.667 5.16699 -86 15.5s-46.666 24.666 -63.999 42.999s-30.666 40.333 -39.999 66s-14 53.834 -14 84.501v292c0 29.333 4.5 56.666 13.5 81.999s22.333 47.166 40 65.499s39.167 32.833 64.5 43.5s54 16 86 16c47.333 0 88.166 -11.667 122.499 -35
s57.833 -56.666 70.5 -99.999l-80 -27c-6.66699 24.667 -19.667 44.5 -39 59.5s-44 22.5 -74 22.5c-19.333 0 -36.5 -3.5 -51.5 -10.5s-27.667 -16.167 -38 -27.5s-18.166 -24.666 -23.499 -39.999s-8 -31 -8 -47v-299c0 -16.667 2.66699 -32.667 8 -48
s13.166 -28.833 23.499 -40.5s23 -21 38 -28s32.167 -10.5 51.5 -10.5zM175.999 875.998c0.666992 -6.66699 2.66699 -13.667 6 -21s8 -14.166 14 -20.499s13.167 -11.5 21.5 -15.5s17.5 -6 27.5 -6c11.333 0 21.333 2 30 6s16 9.16699 22 15.5s10.5 13.166 13.5 20.499
s4.5 14.333 4.5 21h67c-1.33301 -13.333 -4.5 -27.333 -9.5 -42s-12.667 -28.167 -23 -40.5s-24 -22.666 -41 -30.999s-38.167 -12.5 -63.5 -12.5c-26 0 -47.667 4.16699 -65 12.5s-31.333 18.666 -42 30.999s-18.5 25.833 -23.5 40.5s-7.5 28.667 -7.5 42h69z" />
    <glyph glyph-name="gbreve" unicode="&#x11f;" horiz-adv-x="441" 
d="M385 -4c0 -61.333 -14.501 -110.5 -43.501 -147.5s-74.833 -55.5 -137.5 -55.5c-32 0 -61 7.66699 -87 23s-45.667 37 -59 65l67 39c7.33301 -13.333 18 -25.166 32 -35.499s30.667 -15.5 50 -15.5c34 0 58.667 10 74 30s23 48 23 84v69h-2
c-15.333 -20.667 -33 -35.334 -53 -44.001s-40 -13 -60 -13c-34 0 -61 7.16699 -81 21.5s-35 33 -45 56s-16.5 49.333 -19.5 79s-4.5 60.167 -4.5 91.5c0 32 1.5 63.5 4.5 94.5s9.5 58.667 19.5 83s25 43.833 45 58.5s47 22 81 22c23.333 0 44.333 -4.16699 63 -12.5
s35.334 -21.833 50.001 -40.5c0.666992 0 1 0.166992 1 0.5s0.333008 0.5 1 0.5v46h81v-499zM210.999 75c20 0 36.166 4.5 48.499 13.5s21.833 21 28.5 36s11.167 32 13.5 51s3.5 38.833 3.5 59.5c0 19.333 -0.166992 40 -0.5 62s-3.16602 42.333 -8.49902 61
s-14.333 34.167 -27 46.5s-31 18.5 -55 18.5c-21.333 0 -38.166 -4.66699 -50.499 -14s-21.5 -22 -27.5 -38s-9.83301 -34.667 -11.5 -56s-2.5 -44 -2.5 -68c0 -26.667 1 -50.667 3 -72s6.33301 -39.333 13 -54s15.667 -26 27 -34s26.666 -12 45.999 -12zM154.998 699
c0.666992 -6.66699 2.66699 -13.667 6 -21s8 -14.166 14 -20.499s13.167 -11.5 21.5 -15.5s17.5 -6 27.5 -6c11.333 0 21.333 2 30 6s16 9.16699 22 15.5s10.5 13.166 13.5 20.499s4.5 14.333 4.5 21h67c-1.33301 -13.333 -4.5 -27.333 -9.5 -42s-12.667 -28.167 -23 -40.5
s-24 -22.666 -41 -30.999s-38.167 -12.5 -63.5 -12.5c-26 0 -47.667 4.16699 -65 12.5s-31.333 18.666 -42 30.999s-18.5 25.833 -23.5 40.5s-7.5 28.667 -7.5 42h69z" />
    <glyph glyph-name="Gdotaccent" unicode="&#x120;" horiz-adv-x="506" 
d="M253 70c18 0 34.332 3.16504 48.999 9.49805s27.167 14.833 37.5 25.5s18.5 23.334 24.5 38.001s9 30.334 9 47.001v110h-114v74h198v-179c0 -30.667 -5.16699 -58.5 -15.5 -83.5s-24.5 -46.167 -42.5 -63.5s-39.5 -30.833 -64.5 -40.5s-52.167 -14.5 -81.5 -14.5
c-32 0 -60.667 5.16699 -86 15.5s-46.666 24.666 -63.999 42.999s-30.666 40.333 -39.999 66s-14 53.834 -14 84.501v292c0 29.333 4.5 56.666 13.5 81.999s22.333 47.166 40 65.499s39.167 32.833 64.5 43.5s54 16 86 16c47.333 0 88.166 -11.667 122.499 -35
s57.833 -56.666 70.5 -99.999l-80 -27c-6.66699 24.667 -19.667 44.5 -39 59.5s-44 22.5 -74 22.5c-19.333 0 -36.5 -3.5 -51.5 -10.5s-27.667 -16.167 -38 -27.5s-18.166 -24.666 -23.499 -39.999s-8 -31 -8 -47v-299c0 -16.667 2.66699 -32.667 8 -48
s13.166 -28.833 23.499 -40.5s23 -21 38 -28s32.167 -10.5 51.5 -10.5zM214.999 762.998v84h78v-84h-78z" />
    <glyph glyph-name="gdotaccent" unicode="&#x121;" horiz-adv-x="441" 
d="M385 -4c0 -61.333 -14.501 -110.5 -43.501 -147.5s-74.833 -55.5 -137.5 -55.5c-32 0 -61 7.66699 -87 23s-45.667 37 -59 65l67 39c7.33301 -13.333 18 -25.166 32 -35.499s30.667 -15.5 50 -15.5c34 0 58.667 10 74 30s23 48 23 84v69h-2
c-15.333 -20.667 -33 -35.334 -53 -44.001s-40 -13 -60 -13c-34 0 -61 7.16699 -81 21.5s-35 33 -45 56s-16.5 49.333 -19.5 79s-4.5 60.167 -4.5 91.5c0 32 1.5 63.5 4.5 94.5s9.5 58.667 19.5 83s25 43.833 45 58.5s47 22 81 22c23.333 0 44.333 -4.16699 63 -12.5
s35.334 -21.833 50.001 -40.5c0.666992 0 1 0.166992 1 0.5s0.333008 0.5 1 0.5v46h81v-499zM210.999 75c20 0 36.166 4.5 48.499 13.5s21.833 21 28.5 36s11.167 32 13.5 51s3.5 38.833 3.5 59.5c0 19.333 -0.166992 40 -0.5 62s-3.16602 42.333 -8.49902 61
s-14.333 34.167 -27 46.5s-31 18.5 -55 18.5c-21.333 0 -38.166 -4.66699 -50.499 -14s-21.5 -22 -27.5 -38s-9.83301 -34.667 -11.5 -56s-2.5 -44 -2.5 -68c0 -26.667 1 -50.667 3 -72s6.33301 -39.333 13 -54s15.667 -26 27 -34s26.666 -12 45.999 -12zM167.998 593v84h78
v-84h-78z" />
    <glyph glyph-name="Gcommaaccent" unicode="&#x122;" horiz-adv-x="506" 
d="M253 70c18 0 34.332 3.16504 48.999 9.49805s27.167 14.833 37.5 25.5s18.5 23.334 24.5 38.001s9 30.334 9 47.001v110h-114v74h198v-179c0 -30.667 -5.16699 -58.5 -15.5 -83.5s-24.5 -46.167 -42.5 -63.5s-39.5 -30.833 -64.5 -40.5s-52.167 -14.5 -81.5 -14.5
c-32 0 -60.667 5.16699 -86 15.5s-46.666 24.666 -63.999 42.999s-30.666 40.333 -39.999 66s-14 53.834 -14 84.501v292c0 29.333 4.5 56.666 13.5 81.999s22.333 47.166 40 65.499s39.167 32.833 64.5 43.5s54 16 86 16c47.333 0 88.166 -11.667 122.499 -35
s57.833 -56.666 70.5 -99.999l-80 -27c-6.66699 24.667 -19.667 44.5 -39 59.5s-44 22.5 -74 22.5c-19.333 0 -36.5 -3.5 -51.5 -10.5s-27.667 -16.167 -38 -27.5s-18.166 -24.666 -23.499 -39.999s-8 -31 -8 -47v-299c0 -16.667 2.66699 -32.667 8 -48
s13.166 -28.833 23.499 -40.5s23 -21 38 -28s32.167 -10.5 51.5 -10.5zM249.999 -254.002h-47l31 89h-28v103h95v-101z" />
    <glyph glyph-name="gcommaaccent" unicode="&#x123;" horiz-adv-x="441" 
d="M385 -4c0 -61.333 -14.501 -110.5 -43.501 -147.5s-74.833 -55.5 -137.5 -55.5c-32 0 -61 7.66699 -87 23s-45.667 37 -59 65l67 39c7.33301 -13.333 18 -25.166 32 -35.499s30.667 -15.5 50 -15.5c34 0 58.667 10 74 30s23 48 23 84v69h-2
c-15.333 -20.667 -33 -35.334 -53 -44.001s-40 -13 -60 -13c-34 0 -61 7.16699 -81 21.5s-35 33 -45 56s-16.5 49.333 -19.5 79s-4.5 60.167 -4.5 91.5c0 32 1.5 63.5 4.5 94.5s9.5 58.667 19.5 83s25 43.833 45 58.5s47 22 81 22c23.333 0 44.333 -4.16699 63 -12.5
s35.334 -21.833 50.001 -40.5c0.666992 0 1 0.166992 1 0.5s0.333008 0.5 1 0.5v46h81v-499zM210.999 75c20 0 36.166 4.5 48.499 13.5s21.833 21 28.5 36s11.167 32 13.5 51s3.5 38.833 3.5 59.5c0 19.333 -0.166992 40 -0.5 62s-3.16602 42.333 -8.49902 61
s-14.333 34.167 -27 46.5s-31 18.5 -55 18.5c-21.333 0 -38.166 -4.66699 -50.499 -14s-21.5 -22 -27.5 -38s-9.83301 -34.667 -11.5 -56s-2.5 -44 -2.5 -68c0 -26.667 1 -50.667 3 -72s6.33301 -39.333 13 -54s15.667 -26 27 -34s26.666 -12 45.999 -12zM207.998 758h47
l-22 -80h25v-104h-95v102z" />
    <glyph glyph-name="Hcircumflex" unicode="&#x124;" horiz-adv-x="532" 
d="M383 0v317h-235v-317h-83v696h83v-306h235v306h84v-696h-84zM260 813l-130 -80l-31 33l140 123h50l133 -121l-32 -35z" />
    <glyph glyph-name="hcircumflex" unicode="&#x125;" horiz-adv-x="438" 
d="M309 0l0.000976562 322.999c0 30 -7.5 53.667 -22.5 71s-37.5 26 -67.5 26c-28 0 -50.333 -8.66699 -67 -26s-25 -41.666 -25 -72.999v-321h-80v726h81v-287h3c14 19.333 31.333 34.333 52 45s43 16 67 16c20 0 38.5 -3.33301 55.5 -10s31.667 -16.5 44 -29.5
s22.166 -28.667 29.499 -47s11 -39.5 11 -63.5v-350h-81zM87.001 812.999l-130 -80l-31 33l140 123h50l133 -121l-32 -35z" />
    <glyph glyph-name="Hbar" unicode="&#x126;" horiz-adv-x="532" 
d="M383 0v317h-235v-317h-83v535h-49v60h49v101h83v-101h235v101h84v-101h49v-60h-49v-535h-84zM383 390v145h-235v-145h235z" />
    <glyph glyph-name="hbar" unicode="&#x127;" horiz-adv-x="438" 
d="M309 0l0.000976562 322.999c0 30 -7.5 53.667 -22.5 71s-37.5 26 -67.5 26c-28 0 -50.333 -8.66699 -67 -26s-25 -41.666 -25 -72.999v-321h-80v583h-47v62h47v81h81v-81h182v-62h-182v-144h3c14 19.333 31.333 34.333 52 45s43 16 67 16c20 0 38.5 -3.33301 55.5 -10
s31.667 -16.5 44 -29.5s22.166 -28.667 29.499 -47s11 -39.5 11 -63.5v-350h-81z" />
    <glyph glyph-name="Itilde" unicode="&#x128;" horiz-adv-x="282" 
d="M99 0v696h84v-696h-84zM78 859c10.667 0 21.3359 -2.16895 32.0029 -6.50195s21 -9.16602 31 -14.499s20 -10.166 30 -14.499s19.667 -6.5 29 -6.5c18 0 37 14 57 42l45 -28c-13.333 -27.333 -28.5 -47.833 -45.5 -61.5s-34.5 -20.5 -52.5 -20.5
c-11.333 0 -22.333 2.16699 -33 6.5s-21.167 9 -31.5 14l-30 14c-9.66699 4.33301 -18.834 6.5 -27.501 6.5c-10 0 -19.5 -3 -28.5 -9s-18.833 -15.667 -29.5 -29l-44 25c11.333 22.667 25.666 42 42.999 58s35.666 24 54.999 24z" />
    <glyph glyph-name="itilde" unicode="&#x129;" horiz-adv-x="282" 
d="M78 689c10.667 0 21.3359 -2.16895 32.0029 -6.50195s21 -9.16602 31 -14.499s20 -10.166 30 -14.499s19.667 -6.5 29 -6.5c18 0 37 14 57 42l45 -28c-13.333 -27.333 -28.5 -47.833 -45.5 -61.5s-34.5 -20.5 -52.5 -20.5c-11.333 0 -22.333 2.16699 -33 6.5
s-21.167 9 -31.5 14l-30 14c-9.66699 4.33301 -18.834 6.5 -27.501 6.5c-10 0 -19.5 -3 -28.5 -9s-18.833 -15.667 -29.5 -29l-44 25c11.333 22.667 25.666 42 42.999 58s35.666 24 54.999 24zM102.002 -0.00195312v495h81v-495h-81z" />
    <glyph glyph-name="Imacron" unicode="&#x12a;" horiz-adv-x="217" 
d="M66 0v696h84v-696h-84zM-13 763v75h248v-75h-248z" />
    <glyph glyph-name="imacron" unicode="&#x12b;" horiz-adv-x="208" 
d="M-20 588v75h248v-75h-248zM65 0v495h81v-495h-81z" />
    <glyph glyph-name="Ibreve" unicode="&#x12c;" horiz-adv-x="296" 
d="M79 881c0.666992 -6.66699 2.66699 -13.667 6 -21s8 -14.166 14 -20.499s13.167 -11.5 21.5 -15.5s17.5 -6 27.5 -6c11.333 0 21.333 2 30 6s16 9.16699 22 15.5s10.5 13.166 13.5 20.499s4.5 14.333 4.5 21h67c-1.33301 -13.333 -4.5 -27.333 -9.5 -42
s-12.667 -28.167 -23 -40.5s-24 -22.666 -41 -30.999s-38.167 -12.5 -63.5 -12.5c-26 0 -47.667 4.16699 -65 12.5s-31.333 18.666 -42 30.999s-18.5 25.833 -23.5 40.5s-7.5 28.667 -7.5 42h69zM107 0v696h84v-696h-84z" />
    <glyph glyph-name="ibreve" unicode="&#x12d;" horiz-adv-x="235" 
d="M49 705c0.666992 -6.66699 2.66699 -13.667 6 -21s8 -14.166 14 -20.499s13.167 -11.5 21.5 -15.5s17.5 -6 27.5 -6c11.333 0 21.333 2 30 6s16 9.16699 22 15.5s10.5 13.166 13.5 20.499s4.5 14.333 4.5 21h67c-1.33301 -13.333 -4.5 -27.333 -9.5 -42
s-12.667 -28.167 -23 -40.5s-24 -22.666 -41 -30.999s-38.167 -12.5 -63.5 -12.5c-26 0 -47.667 4.16699 -65 12.5s-31.333 18.666 -42 30.999s-18.5 25.833 -23.5 40.5s-7.5 28.667 -7.5 42h69zM82 0v495h81v-495h-81z" />
    <glyph glyph-name="Iogonek" unicode="&#x12e;" horiz-adv-x="217" 
d="M39 -92c0 13.333 2.66895 27.332 8.00195 41.999s14.666 31.334 27.999 50.001h-9v696h84v-696h-15c-20.667 -29.333 -31 -55 -31 -77c0 -14 4.16699 -24.833 12.5 -32.5s20.166 -11.5 35.499 -11.5c14.667 0 33.667 5.33301 57 16l20 -50
c-13.333 -7.33301 -28 -13.333 -44 -18s-32.333 -7 -49 -7c-28.667 0 -52 8.66699 -70 26s-27 38 -27 62z" />
    <glyph glyph-name="iogonek" unicode="&#x12f;" horiz-adv-x="197" 
d="M35 -91c0 13.333 2.66797 27.333 8.00098 42s14.333 31 27 49h-12v495h81v-495h-8c-20.667 -28.667 -31 -54 -31 -76c0 -14 4.16699 -24.833 12.5 -32.5s20.166 -11.5 35.499 -11.5c14.667 0 33.667 5.33301 57 16l20 -50c-13.333 -7.33301 -28 -13.333 -44 -18
s-32.333 -7 -49 -7c-28.667 0 -52 8.66699 -70 26s-27 38 -27 62zM58.001 615v81h81v-81h-81z" />
    <glyph glyph-name="Idotaccent" unicode="&#x130;" horiz-adv-x="217" 
d="M66 0v696h84v-696h-84zM70 763v84h78v-84h-78z" />
    <glyph glyph-name="dotlessi" unicode="&#x131;" horiz-adv-x="197" 
d="M58 0v495h81v-495h-81z" />
    <glyph glyph-name="IJ" unicode="&#x132;" horiz-adv-x="612" 
d="M64 0v696h84v-696h-84zM545 182c0 -34 -5 -62.833 -15 -86.5s-23.833 -43 -41.5 -58s-38 -26 -61 -33s-47.5 -10.5 -73.5 -10.5c-32 0 -60.833 6.16699 -86.5 18.5s-46.834 29.5 -63.501 51.5l65 50c9.33301 -11.333 21.333 -21 36 -29s30.334 -12 47.001 -12
c30.667 0 56.5 8.33301 77.5 25s31.5 45 31.5 85v513h84v-514z" />
    <glyph glyph-name="ij" unicode="&#x133;" horiz-adv-x="424" 
d="M58 615v81h81v-81h-81zM58 0v495h81v-495h-81zM279 615v81h81v-81h-81zM360 -73c0 -18.667 -2.66602 -36.001 -7.99902 -52.001s-13.5 -30 -24.5 -42s-24.667 -21.333 -41 -28s-35.5 -10 -57.5 -10h-27v75c1.33301 0 4.66602 -0.166992 9.99902 -0.5
s8.33301 -0.166016 9 0.500977c20.667 0.666992 35.5 7.5 44.5 20.5s13.5 31.167 13.5 54.5v550h81v-568z" />
    <glyph glyph-name="Jcircumflex" unicode="&#x134;" horiz-adv-x="406" 
d="M339 183c0 -34 -5 -62.833 -15 -86.5s-23.833 -43 -41.5 -58s-38 -26 -61 -33s-47.5 -10.5 -73.5 -10.5c-32 0 -60.833 6.16699 -86.5 18.5s-46.834 29.5 -63.501 51.5l65 50c9.33301 -11.333 21.333 -21 36 -29s30.334 -12 47.001 -12c30.667 0 56.5 8.33301 77.5 25
s31.5 45 31.5 85v513h84v-514zM295 815l-130 -80l-31 33l140 123h50l133 -121l-32 -35z" />
    <glyph glyph-name="jcircumflex" unicode="&#x135;" horiz-adv-x="284" 
d="M183 -73c0 -18.667 -2.66602 -36.001 -7.99902 -52.001s-13.5 -30 -24.5 -42s-24.667 -21.333 -41 -28s-35.5 -10 -57.5 -10h-27v75c1.33301 0 4.66602 -0.166992 9.99902 -0.5s8.33301 -0.166016 9 0.500977c20.667 0.666992 35.5 7.5 44.5 20.5s13.5 31.167 13.5 54.5
v550h81v-568zM142.001 652.999l-125 -101l-37 33l141 146h50l133 -144l-37 -34z" />
    <glyph glyph-name="Kcommaaccent" unicode="&#x136;" horiz-adv-x="516" 
d="M415 0l-166.001 345l-50.5 -74.5c-16.333 -25 -33.166 -49.5 -50.499 -73.5v-197h-84v696h84v-365c0.666992 0 1.16699 0.166992 1.5 0.5s0.833008 0.5 1.5 0.5l119 182.5l120 181.5h91l-89.5 -135.5l-89.5 -135.5l205 -425h-92zM258.999 -234h-47l31 89h-28v103h95v-101
z" />
    <glyph glyph-name="kcommaaccent" unicode="&#x137;" horiz-adv-x="440" 
d="M345 0l-131 241l-78 -108v-133h-81v726h81v-470h2l176 239h93l-141 -189l169 -306h-90zM229 -254h-47l31 89h-28v103h95v-101z" />
    <glyph glyph-name="kgreenlandic" unicode="&#x138;" horiz-adv-x="435" 
d="M342 0l-128 241l-78 -110v-131h-81v495h81v-239h2l175 239h94l-141 -190l166 -305h-90z" />
    <glyph glyph-name="Lacute" unicode="&#x139;" horiz-adv-x="442" 
d="M65 0v696h83v-615h278v-81h-361zM71 766l145 118l54 -59l-166 -98z" />
    <glyph glyph-name="lacute" unicode="&#x13a;" horiz-adv-x="227" 
d="M185 -3c-39.333 0 -70.333 8.33301 -93 25s-33.667 47.667 -33 93v611h81v-598c0 -18.667 3.66699 -32.667 11 -42s20.333 -14 39 -14h17v-75h-22zM59 776l145 118l54 -59l-166 -98z" />
    <glyph glyph-name="Lcommaaccent" unicode="&#x13b;" horiz-adv-x="442" 
d="M65 0v696h83v-615h278v-81h-361zM229 -254h-47l31 89h-28v103h95v-101z" />
    <glyph glyph-name="lcommaaccent" unicode="&#x13c;" horiz-adv-x="227" 
d="M185 -3c-39.333 0 -70.333 8.33301 -93 25s-33.667 47.667 -33 93v611h81v-598c0 -18.667 3.66699 -32.667 11 -42s20.333 -14 39 -14h17v-75h-22zM115 -246h-47l31 89h-28v103h95v-101z" />
    <glyph glyph-name="Lcaron" unicode="&#x13d;" horiz-adv-x="442" 
d="M65 0v696h83v-615h278v-81h-361zM304 500h-47l31 89h-28v103h95v-101z" />
    <glyph glyph-name="lcaron" unicode="&#x13e;" horiz-adv-x="278" 
d="M235 529h-47l31 89h-28v103h95v-101zM185 -3c-39.333 0 -70.333 8.33301 -93 25s-33.667 47.667 -33 93v611h81v-598c0 -18.667 3.66699 -32.667 11 -42s20.333 -14 39 -14h17v-75h-22z" />
    <glyph glyph-name="Ldot" unicode="&#x13f;" horiz-adv-x="442" 
d="M65 0v696h83v-615h278v-81h-361zM295 307v84h78v-84h-78z" />
    <glyph glyph-name="ldot" unicode="&#x140;" horiz-adv-x="269" 
d="M200 334v84h78v-84h-78zM185 -3c-39.333 0 -70.333 8.33301 -93 25s-33.667 47.667 -33 93v611h81v-598c0 -18.667 3.66699 -32.667 11 -42s20.333 -14 39 -14h17v-75h-22z" />
    <glyph glyph-name="Lslash" unicode="&#x141;" horiz-adv-x="457" 
d="M80 0v243l-51 -29l-29 49l80 46v387h83v-339l114 66l28 -50l-142 -82v-210h278v-81h-361z" />
    <glyph glyph-name="lslash" unicode="&#x142;" horiz-adv-x="265" 
d="M217 -3c-39.333 0 -70.333 8.33301 -93 25s-33.667 47.667 -33 93v160l-53 -31l-29 49l82 48v385h81v-338l65 38l28 -50l-93 -54v-194c0 -18.667 3.66699 -32.667 11 -42s20.333 -14 39 -14h17v-75h-22z" />
    <glyph glyph-name="Nacute" unicode="&#x143;" horiz-adv-x="562" 
d="M420 0l-199 366l-71 139h-3v-505h-84v696h81l195 -361l74 -143l4 1v503h83v-696h-80zM231 766l145 118l54 -59l-166 -98z" />
    <glyph glyph-name="nacute" unicode="&#x144;" horiz-adv-x="436" 
d="M308 0l0.000976562 323c0 30 -7.66699 53.5 -23 70.5s-38 25.5 -68 25.5c-27.333 0 -49.333 -8.83301 -66 -26.5s-25 -41.5 -25 -71.5v-321h-80v495h81v-55h3c14 19.333 31.333 34.166 52 44.499s43 15.5 67 15.5c20 0 38.5 -3.5 55.5 -10.5s31.667 -17 44 -30
s22.166 -28.667 29.499 -47s11 -39.166 11 -62.499v-350h-81zM155.001 572l70 173l76 -25l-98 -167z" />
    <glyph glyph-name="Ncommaaccent" unicode="&#x145;" horiz-adv-x="562" 
d="M420 0l-199 366l-71 139h-3v-505h-84v696h81l195 -361l74 -143l4 1v503h83v-696h-80zM269 -234h-47l31 89h-28v103h95v-101z" />
    <glyph glyph-name="ncommaaccent" unicode="&#x146;" horiz-adv-x="436" 
d="M308 0l0.000976562 323c0 30 -7.66699 53.5 -23 70.5s-38 25.5 -68 25.5c-27.333 0 -49.333 -8.83301 -66 -26.5s-25 -41.5 -25 -71.5v-321h-80v495h81v-55h3c14 19.333 31.333 34.166 52 44.499s43 15.5 67 15.5c20 0 38.5 -3.5 55.5 -10.5s31.667 -17 44 -30
s22.166 -28.667 29.499 -47s11 -39.166 11 -62.499v-350h-81zM214.001 -254h-47l31 89h-28v103h95v-101z" />
    <glyph glyph-name="Ncaron" unicode="&#x147;" horiz-adv-x="562" 
d="M420 0l-199 366l-71 139h-3v-505h-84v696h81l195 -361l74 -143l4 1v503h83v-696h-80zM416 891l32 -34l-133 -122h-50l-140 124l31 33l130 -81z" />
    <glyph glyph-name="ncaron" unicode="&#x148;" horiz-adv-x="436" 
d="M308 0l0.000976562 323c0 30 -7.66699 53.5 -23 70.5s-38 25.5 -68 25.5c-27.333 0 -49.333 -8.83301 -66 -26.5s-25 -41.5 -25 -71.5v-321h-80v495h81v-55h3c14 19.333 31.333 34.166 52 44.499s43 15.5 67 15.5c20 0 38.5 -3.5 55.5 -10.5s31.667 -17 44 -30
s22.166 -28.667 29.499 -47s11 -39.166 11 -62.499v-350h-81zM331.001 732l37 -35l-133 -144h-50l-141 146l37 33l125 -100z" />
    <glyph glyph-name="napostrophe" unicode="&#x149;" horiz-adv-x="477" 
d="M349 0l0.000976562 323c0 30 -7.66699 53.5 -23 70.5s-38 25.5 -68 25.5c-27.333 0 -49.333 -8.83301 -66 -26.5s-25 -41.5 -25 -71.5v-321h-80v495h81v-55h3c14 19.333 31.333 34.166 52 44.499s43 15.5 67 15.5c20 0 38.5 -3.5 55.5 -10.5s31.667 -17 44 -30
s22.166 -28.667 29.499 -47s11 -39.166 11 -62.499v-350h-81zM37.001 473h-47l31 89h-28v103h95v-101z" />
    <glyph glyph-name="Eng" unicode="&#x14a;" horiz-adv-x="562" 
d="M500 -64c0 -38 -8.83105 -65 -26.498 -81s-40.834 -24 -69.501 -24c-12 0 -23.833 1.16699 -35.5 3.5s-24.834 6.83301 -39.501 13.5l19 57c7.33301 -2 14.5 -3.66699 21.5 -5s13.167 -2 18.5 -2c10 0 17.667 2.83301 23 8.5s8 16.167 8 31.5v66l-198 367l-71 139h-3
v-510h-84v696h81l195 -366l74 -147l4 1v512h83v-760z" />
    <glyph glyph-name="eng" unicode="&#x14b;" horiz-adv-x="436" 
d="M389 -64c0 -38 -8.83105 -64.998 -26.498 -80.998s-40.834 -24 -69.501 -24c-12 0 -23.833 1.16699 -35.5 3.5s-24.834 6.83301 -39.501 13.5l19 57c7.33301 -2 14.5 -3.66699 21.5 -5s13.167 -2 18.5 -2c10 0 17.667 2.83301 23 8.5s8 16.167 8 31.5v385
c0 30 -6.83301 53.5 -20.5 70.5s-36.5 25.5 -68.5 25.5c-27.333 0 -49.666 -9.16699 -66.999 -27.5s-26 -42.5 -26 -72.5v-319h-80v495h81v-55h3c14 19.333 31.667 34.166 53 44.499s44 15.5 68 15.5c41.333 0 74.666 -13.333 99.999 -40s38 -63.334 38 -110.001v-414z" />
    <glyph glyph-name="Omacron" unicode="&#x14c;" horiz-adv-x="497" 
d="M452 203c0 -32 -5.00195 -60.832 -15.002 -86.499s-24 -47.667 -42 -66s-39.5 -32.333 -64.5 -42s-52.5 -14.5 -82.5 -14.5c-36.667 0 -68 6 -94 18s-47.167 28.167 -63.5 48.5s-28.166 43.833 -35.499 70.5s-11 54.667 -11 84v279c0 23.333 3.66699 47.333 11 72
s19 47 35 67s37 36.333 63 49s57.667 19 95 19c35.333 0 65.833 -6 91.5 -18s46.834 -27.833 63.501 -47.5s29 -41.834 37 -66.501s12 -49.667 12 -75v-291zM366.998 493.001c0 10.667 -1.83203 23.333 -5.49902 38s-10 28.667 -19 42s-21.167 24.833 -36.5 34.5
s-35 14.5 -59 14.5s-43.667 -4.5 -59 -13.5s-27.666 -20 -36.999 -33s-15.833 -27.167 -19.5 -42.5s-5.5 -29.333 -5.5 -42l1 -275c0 -20 2.16699 -38.833 6.5 -56.5s11.5 -33 21.5 -46s22.833 -23.333 38.5 -31s34.5 -11.5 56.5 -11.5c16 0 31.167 2.83301 45.5 8.5
s26.666 13.834 36.999 24.501s18.666 23.667 24.999 39s9.5 32.666 9.5 51.999v298zM121.999 763v75h248v-75h-248z" />
    <glyph glyph-name="omacron" unicode="&#x14d;" horiz-adv-x="438" 
d="M222 501c39.333 0 70.335 -7.83594 93.002 -23.5029s40.667 -35.167 54 -58.5c4.66699 -8 8.66699 -18.5 12 -31.5s6 -27.333 8 -43s3.5 -32 4.5 -49s1.5 -33.167 1.5 -48.5c0 -9.33301 -0.333008 -20.666 -1 -33.999s-1.83398 -27.333 -3.50098 -42
s-3.5 -28.667 -5.5 -42s-4.33301 -24 -7 -32c-6 -19.333 -14.833 -35.666 -26.5 -48.999s-25 -24 -40 -32s-31 -13.833 -48 -17.5s-34.5 -5.5 -52.5 -5.5c-38 0 -69.167 8 -93.5 24s-42.5 36.667 -54.5 62c-8.66699 18 -14.667 41.833 -18 71.5s-5 60.834 -5 93.501
c0 31.333 1.5 61.333 4.5 90s8.16699 52 15.5 70c13.333 30 33.666 53.667 60.999 71s61 26 101 26zM220.002 427.997c-19.333 0 -36.668 -4.66504 -52.001 -13.998s-26.666 -23.333 -33.999 -42c-4.66699 -12.667 -8.16699 -30.834 -10.5 -54.501s-3.5 -51.167 -3.5 -82.5
c0 -22 0.5 -42.667 1.5 -62s4.16699 -35.666 9.5 -48.999c7.33301 -18 18 -32 32 -42s31.667 -15 53 -15c20.667 0 38.834 5 54.501 15s27.167 26 34.5 48c3.33301 9.33301 5.66602 25.166 6.99902 47.499s2 47.166 2 74.499c0 23.333 -0.666992 45.5 -2 66.5
s-4 37.5 -8 49.5c-7.33301 20 -18.333 35 -33 45s-31.667 15 -51 15zM100 587.999v75h248v-75h-248z" />
    <glyph glyph-name="Obreve" unicode="&#x14e;" horiz-adv-x="497" 
d="M452 203c0 -32 -5.00195 -60.832 -15.002 -86.499s-24 -47.667 -42 -66s-39.5 -32.333 -64.5 -42s-52.5 -14.5 -82.5 -14.5c-36.667 0 -68 6 -94 18s-47.167 28.167 -63.5 48.5s-28.166 43.833 -35.499 70.5s-11 54.667 -11 84v279c0 23.333 3.66699 47.333 11 72
s19 47 35 67s37 36.333 63 49s57.667 19 95 19c35.333 0 65.833 -6 91.5 -18s46.834 -27.833 63.501 -47.5s29 -41.834 37 -66.501s12 -49.667 12 -75v-291zM366.998 493.001c0 10.667 -1.83203 23.333 -5.49902 38s-10 28.667 -19 42s-21.167 24.833 -36.5 34.5
s-35 14.5 -59 14.5s-43.667 -4.5 -59 -13.5s-27.666 -20 -36.999 -33s-15.833 -27.167 -19.5 -42.5s-5.5 -29.333 -5.5 -42l1 -275c0 -20 2.16699 -38.833 6.5 -56.5s11.5 -33 21.5 -46s22.833 -23.333 38.5 -31s34.5 -11.5 56.5 -11.5c16 0 31.167 2.83301 45.5 8.5
s26.666 13.834 36.999 24.501s18.666 23.667 24.999 39s9.5 32.666 9.5 51.999v298zM180.999 876c0.666992 -6.66699 2.66699 -13.667 6 -21s8 -14.166 14 -20.499s13.167 -11.5 21.5 -15.5s17.5 -6 27.5 -6c11.333 0 21.333 2 30 6s16 9.16699 22 15.5
s10.5 13.166 13.5 20.499s4.5 14.333 4.5 21h67c-1.33301 -13.333 -4.5 -27.333 -9.5 -42s-12.667 -28.167 -23 -40.5s-24 -22.666 -41 -30.999s-38.167 -12.5 -63.5 -12.5c-26 0 -47.667 4.16699 -65 12.5s-31.333 18.666 -42 30.999s-18.5 25.833 -23.5 40.5
s-7.5 28.667 -7.5 42h69z" />
    <glyph glyph-name="obreve" unicode="&#x14f;" horiz-adv-x="438" 
d="M222 501c39.333 0 70.335 -7.83594 93.002 -23.5029s40.667 -35.167 54 -58.5c4.66699 -8 8.66699 -18.5 12 -31.5s6 -27.333 8 -43s3.5 -32 4.5 -49s1.5 -33.167 1.5 -48.5c0 -9.33301 -0.333008 -20.666 -1 -33.999s-1.83398 -27.333 -3.50098 -42
s-3.5 -28.667 -5.5 -42s-4.33301 -24 -7 -32c-6 -19.333 -14.833 -35.666 -26.5 -48.999s-25 -24 -40 -32s-31 -13.833 -48 -17.5s-34.5 -5.5 -52.5 -5.5c-38 0 -69.167 8 -93.5 24s-42.5 36.667 -54.5 62c-8.66699 18 -14.667 41.833 -18 71.5s-5 60.834 -5 93.501
c0 31.333 1.5 61.333 4.5 90s8.16699 52 15.5 70c13.333 30 33.666 53.667 60.999 71s61 26 101 26zM220.002 427.997c-19.333 0 -36.668 -4.66504 -52.001 -13.998s-26.666 -23.333 -33.999 -42c-4.66699 -12.667 -8.16699 -30.834 -10.5 -54.501s-3.5 -51.167 -3.5 -82.5
c0 -22 0.5 -42.667 1.5 -62s4.16699 -35.666 9.5 -48.999c7.33301 -18 18 -32 32 -42s31.667 -15 53 -15c20.667 0 38.834 5 54.501 15s27.167 26 34.5 48c3.33301 9.33301 5.66602 25.166 6.99902 47.499s2 47.166 2 74.499c0 23.333 -0.666992 45.5 -2 66.5
s-4 37.5 -8 49.5c-7.33301 20 -18.333 35 -33 45s-31.667 15 -51 15zM149 698.999c0.666992 -6.66699 2.66699 -13.667 6 -21s8 -14.166 14 -20.499s13.167 -11.5 21.5 -15.5s17.5 -6 27.5 -6c11.333 0 21.333 2 30 6s16 9.16699 22 15.5s10.5 13.166 13.5 20.499
s4.5 14.333 4.5 21h67c-1.33301 -13.333 -4.5 -27.333 -9.5 -42s-12.667 -28.167 -23 -40.5s-24 -22.666 -41 -30.999s-38.167 -12.5 -63.5 -12.5c-26 0 -47.667 4.16699 -65 12.5s-31.333 18.666 -42 30.999s-18.5 25.833 -23.5 40.5s-7.5 28.667 -7.5 42h69z" />
    <glyph glyph-name="Ohungarumlaut" unicode="&#x150;" horiz-adv-x="497" 
d="M452 203c0 -32 -5.00195 -60.832 -15.002 -86.499s-24 -47.667 -42 -66s-39.5 -32.333 -64.5 -42s-52.5 -14.5 -82.5 -14.5c-36.667 0 -68 6 -94 18s-47.167 28.167 -63.5 48.5s-28.166 43.833 -35.499 70.5s-11 54.667 -11 84v279c0 23.333 3.66699 47.333 11 72
s19 47 35 67s37 36.333 63 49s57.667 19 95 19c35.333 0 65.833 -6 91.5 -18s46.834 -27.833 63.501 -47.5s29 -41.834 37 -66.501s12 -49.667 12 -75v-291zM366.998 493.001c0 10.667 -1.83203 23.333 -5.49902 38s-10 28.667 -19 42s-21.167 24.833 -36.5 34.5
s-35 14.5 -59 14.5s-43.667 -4.5 -59 -13.5s-27.666 -20 -36.999 -33s-15.833 -27.167 -19.5 -42.5s-5.5 -29.333 -5.5 -42l1 -275c0 -20 2.16699 -38.833 6.5 -56.5s11.5 -33 21.5 -46s22.833 -23.333 38.5 -31s34.5 -11.5 56.5 -11.5c16 0 31.167 2.83301 45.5 8.5
s26.666 13.834 36.999 24.501s18.666 23.667 24.999 39s9.5 32.666 9.5 51.999v298zM104.999 767l145 117l54 -59l-166 -97zM276.999 767l145 117l54 -59l-166 -97z" />
    <glyph glyph-name="ohungarumlaut" unicode="&#x151;" horiz-adv-x="438" 
d="M222 501c39.333 0 70.335 -7.83594 93.002 -23.5029s40.667 -35.167 54 -58.5c4.66699 -8 8.66699 -18.5 12 -31.5s6 -27.333 8 -43s3.5 -32 4.5 -49s1.5 -33.167 1.5 -48.5c0 -9.33301 -0.333008 -20.666 -1 -33.999s-1.83398 -27.333 -3.50098 -42
s-3.5 -28.667 -5.5 -42s-4.33301 -24 -7 -32c-6 -19.333 -14.833 -35.666 -26.5 -48.999s-25 -24 -40 -32s-31 -13.833 -48 -17.5s-34.5 -5.5 -52.5 -5.5c-38 0 -69.167 8 -93.5 24s-42.5 36.667 -54.5 62c-8.66699 18 -14.667 41.833 -18 71.5s-5 60.834 -5 93.501
c0 31.333 1.5 61.333 4.5 90s8.16699 52 15.5 70c13.333 30 33.666 53.667 60.999 71s61 26 101 26zM220.002 427.997c-19.333 0 -36.668 -4.66504 -52.001 -13.998s-26.666 -23.333 -33.999 -42c-4.66699 -12.667 -8.16699 -30.834 -10.5 -54.501s-3.5 -51.167 -3.5 -82.5
c0 -22 0.5 -42.667 1.5 -62s4.16699 -35.666 9.5 -48.999c7.33301 -18 18 -32 32 -42s31.667 -15 53 -15c20.667 0 38.834 5 54.501 15s27.167 26 34.5 48c3.33301 9.33301 5.66602 25.166 6.99902 47.499s2 47.166 2 74.499c0 23.333 -0.666992 45.5 -2 66.5
s-4 37.5 -8 49.5c-7.33301 20 -18.333 35 -33 45s-31.667 15 -51 15zM131 571.999l70 173l76 -25l-98 -167zM260 571.999l70 173l76 -25l-98 -167z" />
    <glyph glyph-name="OE" unicode="&#x152;" horiz-adv-x="714" 
d="M303 0c-17.333 -4 -35.667 -5.99902 -55 -5.99902c-36.667 0 -68 6 -94 18s-47.167 28 -63.5 48s-28.166 43.167 -35.499 69.5s-11 54.166 -11 83.499v283c0 23.333 3.66699 47.166 11 71.499s19 46.333 35 66s37 35.834 63 48.501s57.667 19 95 19
c9.33301 0 18.166 -0.5 26.499 -1.5s16.5 -2.16699 24.5 -3.5h369v-78h-286v-228h245v-75h-245v-234h286v-81h-365zM247.999 72.001c17.333 0 34.334 3.66797 51.001 11.001v529c-15.333 6.66699 -32.333 10 -51 10c-22.667 0 -41.667 -4 -57 -12
s-27.833 -18.167 -37.5 -30.5s-16.5 -25.833 -20.5 -40.5s-6 -28.334 -6 -41.001v-284c0 -20 2.16699 -38.667 6.5 -56s11.166 -32.333 20.499 -45s21.833 -22.667 37.5 -30s34.5 -11 56.5 -11z" />
    <glyph glyph-name="oe" unicode="&#x153;" horiz-adv-x="702" 
d="M650 89c-13.333 -29.333 -33.165 -52.499 -59.498 -69.499s-56.166 -25.5 -89.499 -25.5c-34.667 0 -64 5 -88 15s-43.667 26 -59 48c-16.667 -23.333 -37.667 -39.833 -63 -49.5s-52 -14.5 -80 -14.5c-38 0 -69.167 8 -93.5 24s-42.5 36.667 -54.5 62
c-8.66699 18 -14.667 41.833 -18 71.5s-5 60.834 -5 93.501c0 31.333 1.5 61.333 4.5 90s8.16699 52 15.5 70c13.333 30 33.666 53.667 60.999 71s61 26 101 26c32 0 59.167 -5.83301 81.5 -17.5s40.833 -27.167 55.5 -46.5c13.333 19.333 30.5 34.833 51.5 46.5
s47.5 17.5 79.5 17.5c56 0 98.833 -17.833 128.5 -53.5s44.5 -84.834 44.5 -147.501v-77h-267c0 -22 1.33301 -42.5 4 -61.5s7.66699 -35.5 15 -49.5s17.666 -25 30.999 -33s30.666 -12 51.999 -12c18 0 34.5 5.66699 49.5 17s27.167 24.666 36.5 39.999zM220.001 428.001
c-19.333 0 -36.5 -4.66797 -51.5 -14.001s-26.5 -23.333 -34.5 -42c-5.33301 -12 -9 -30 -11 -54s-3 -51.667 -3 -83c0 -22 0.5 -42.667 1.5 -62s4.16699 -35.666 9.5 -48.999c7.33301 -18 18 -32 32 -42s31.667 -15 53 -15c20.667 0 38.834 5.66699 54.501 17
s27.167 28 34.5 50c3.33301 9.33301 5.66602 24.5 6.99902 45.5s2 45.167 2 72.5c0 23.333 -0.666992 45.5 -2 66.5s-4 37.5 -8 49.5c-7.33301 20 -18.333 35 -33 45s-31.667 15 -51 15zM583.001 288c0 45.333 -7.83301 79.5 -23.5 102.5s-38.5 34.5 -68.5 34.5
c-34.667 0 -58.5 -12.333 -71.5 -37s-20.167 -58 -21.5 -100h185z" />
    <glyph glyph-name="Racute" unicode="&#x154;" horiz-adv-x="506" 
d="M381 0l-116 306h-117v-306h-83v696h218c56.667 0 101.334 -16.833 134.001 -50.5s49 -81.5 49 -143.5c0 -44 -9.83301 -81.833 -29.5 -113.5s-49.834 -55.167 -90.501 -70.5l126 -318h-91zM382 502c0 38.667 -9.16797 68 -27.501 88s-47.166 30 -86.499 30h-120v-241h122
c37.333 0 65.333 11 84 33s28 52 28 90zM164.999 766l145 118l54 -59l-166 -98z" />
    <glyph glyph-name="racute" unicode="&#x155;" horiz-adv-x="311" 
d="M142 435c15.333 26 32.668 43.5 52.001 52.5s42.333 13.5 69 13.5c19.333 -1.33301 34.333 -5 45 -11l-18 -87c-16 7.33301 -32.333 11 -49 11c-30.667 0 -55.334 -8.5 -74.001 -25.5s-28 -44.167 -28 -81.5v-307h-80v494h80v-59h3zM133.002 572l70 173l76 -25l-98 -167z
" />
    <glyph glyph-name="Rcommaaccent" unicode="&#x156;" horiz-adv-x="506" 
d="M381 0l-116 306h-117v-306h-83v696h218c56.667 0 101.334 -16.833 134.001 -50.5s49 -81.5 49 -143.5c0 -44 -9.83301 -81.833 -29.5 -113.5s-49.834 -55.167 -90.501 -70.5l126 -318h-91zM382 502c0 38.667 -9.16797 68 -27.501 88s-47.166 30 -86.499 30h-120v-241h122
c37.333 0 65.333 11 84 33s28 52 28 90zM248.999 -234h-47l31 89h-28v103h95v-101z" />
    <glyph glyph-name="rcommaaccent" unicode="&#x157;" horiz-adv-x="311" 
d="M142 435c15.333 26 32.668 43.5 52.001 52.5s42.333 13.5 69 13.5c19.333 -1.33301 34.333 -5 45 -11l-18 -87c-16 7.33301 -32.333 11 -49 11c-30.667 0 -55.334 -8.5 -74.001 -25.5s-28 -44.167 -28 -81.5v-307h-80v494h80v-59h3zM93.002 -254h-47l31 89h-28v103h95
v-101z" />
    <glyph glyph-name="Rcaron" unicode="&#x158;" horiz-adv-x="506" 
d="M381 0l-116 306h-117v-306h-83v696h218c56.667 0 101.334 -16.833 134.001 -50.5s49 -81.5 49 -143.5c0 -44 -9.83301 -81.833 -29.5 -113.5s-49.834 -55.167 -90.501 -70.5l126 -318h-91zM382 502c0 38.667 -9.16797 68 -27.501 88s-47.166 30 -86.499 30h-120v-241h122
c37.333 0 65.333 11 84 33s28 52 28 90zM366.999 891l32 -34l-133 -122h-50l-140 124l31 33l130 -81z" />
    <glyph glyph-name="rcaron" unicode="&#x159;" horiz-adv-x="311" 
d="M142 435c15.333 26 32.668 43.5 52.001 52.5s42.333 13.5 69 13.5c19.333 -1.33301 34.333 -5 45 -11l-18 -87c-16 7.33301 -32.333 11 -49 11c-30.667 0 -55.334 -8.5 -74.001 -25.5s-28 -44.167 -28 -81.5v-307h-80v494h80v-59h3zM281.002 732l37 -35l-133 -144h-50
l-141 146l37 33l125 -100z" />
    <glyph glyph-name="Sacute" unicode="&#x15a;" horiz-adv-x="478" 
d="M444 190c0 -60.667 -18.1689 -108.669 -54.502 -144.002s-87.166 -53 -152.499 -53c-54 0 -99 11 -135 33s-62.667 52 -80 90l74 43c13.333 -23.333 31.333 -43.333 54 -60s52 -25 88 -25c42.667 0 73.334 11 92.001 33s28 49.667 28 83
c0 18.667 -2.83301 34.5 -8.5 47.5s-13.834 24.167 -24.501 33.5s-23.667 17.5 -39 24.5s-32.333 13.5 -51 19.5c-34.667 10.667 -64.167 21.834 -88.5 33.501s-44.166 25.167 -59.499 40.5s-26.5 32.833 -33.5 52.5s-10.5 42.834 -10.5 69.501c0 28 4.66699 53.667 14 77
s22.833 43.5 40.5 60.5s38.834 30.167 63.501 39.5s52.334 14 83.001 14c51.333 0 92.666 -9.16699 123.999 -27.5s54.666 -41.5 69.999 -69.5l-71 -49c-13.333 23.333 -30 40.166 -50 50.499s-45.667 15.5 -77 15.5c-38.667 0 -67 -10.667 -85 -32s-27 -47.666 -27 -78.999
c0 -18 4 -33.333 12 -46s19 -23.5 33 -32.5s30.333 -17 49 -24s39 -13.833 61 -20.5c30 -9.33301 55.333 -20 76 -32s37.167 -26 49.5 -42s21.333 -34.167 27 -54.5s8.5 -43.5 8.5 -69.5zM188.998 765.998l145 118l54 -59l-166 -98z" />
    <glyph glyph-name="sacute" unicode="&#x15b;" horiz-adv-x="405" 
d="M93 136c10.667 -21.333 24.8311 -37.999 42.498 -49.999s39.834 -18 66.501 -18c28 0 49.833 5.83301 65.5 17.5s23.5 30.5 23.5 56.5c0 12.667 -2.33301 23 -7 31s-11.167 14.667 -19.5 20s-18.166 9.83301 -29.499 13.5l-37 11.5c-24 6 -45.667 12.833 -65 20.5
s-36 17 -50 28s-24.667 24 -32 39s-11 33.167 -11 54.5c0 44 14.333 78.5 43 103.5s68 37.5 118 37.5c44.667 0 79.5 -8.33301 104.5 -25s43.167 -40 54.5 -70l-63 -39c-19.333 40 -51.666 60 -96.999 60c-30 0 -50.833 -6.83301 -62.5 -20.5s-17.5 -29.167 -17.5 -46.5
c0 -11.333 3 -20.666 9 -27.999s14.167 -13.5 24.5 -18.5s22.333 -9.5 36 -13.5l42.5 -12c23.333 -5.33301 43.666 -11.833 60.999 -19.5s31.833 -17.334 43.5 -29.001s20.334 -25.5 26.001 -41.5s8.5 -35.333 8.5 -58c0 -44.667 -15 -80.334 -45 -107.001s-72 -40 -126 -40
c-42.667 0 -78.334 9 -107.001 27s-50.667 44 -66 78zM149.997 572.001l70 173l76 -25l-98 -167z" />
    <glyph glyph-name="Scircumflex" unicode="&#x15c;" horiz-adv-x="478" 
d="M444 190c0 -60.667 -18.1689 -108.669 -54.502 -144.002s-87.166 -53 -152.499 -53c-54 0 -99 11 -135 33s-62.667 52 -80 90l74 43c13.333 -23.333 31.333 -43.333 54 -60s52 -25 88 -25c42.667 0 73.334 11 92.001 33s28 49.667 28 83
c0 18.667 -2.83301 34.5 -8.5 47.5s-13.834 24.167 -24.501 33.5s-23.667 17.5 -39 24.5s-32.333 13.5 -51 19.5c-34.667 10.667 -64.167 21.834 -88.5 33.501s-44.166 25.167 -59.499 40.5s-26.5 32.833 -33.5 52.5s-10.5 42.834 -10.5 69.501c0 28 4.66699 53.667 14 77
s22.833 43.5 40.5 60.5s38.834 30.167 63.501 39.5s52.334 14 83.001 14c51.333 0 92.666 -9.16699 123.999 -27.5s54.666 -41.5 69.999 -69.5l-71 -49c-13.333 23.333 -30 40.166 -50 50.499s-45.667 15.5 -77 15.5c-38.667 0 -67 -10.667 -85 -32s-27 -47.666 -27 -78.999
c0 -18 4 -33.333 12 -46s19 -23.5 33 -32.5s30.333 -17 49 -24s39 -13.833 61 -20.5c30 -9.33301 55.333 -20 76 -32s37.167 -26 49.5 -42s21.333 -34.167 27 -54.5s8.5 -43.5 8.5 -69.5zM239.998 812.998l-130 -80l-31 33l140 123h50l133 -121l-32 -35z" />
    <glyph glyph-name="scircumflex" unicode="&#x15d;" horiz-adv-x="405" 
d="M93 136c10.667 -21.333 24.8311 -37.999 42.498 -49.999s39.834 -18 66.501 -18c28 0 49.833 5.83301 65.5 17.5s23.5 30.5 23.5 56.5c0 12.667 -2.33301 23 -7 31s-11.167 14.667 -19.5 20s-18.166 9.83301 -29.499 13.5l-37 11.5c-24 6 -45.667 12.833 -65 20.5
s-36 17 -50 28s-24.667 24 -32 39s-11 33.167 -11 54.5c0 44 14.333 78.5 43 103.5s68 37.5 118 37.5c44.667 0 79.5 -8.33301 104.5 -25s43.167 -40 54.5 -70l-63 -39c-19.333 40 -51.666 60 -96.999 60c-30 0 -50.833 -6.83301 -62.5 -20.5s-17.5 -29.167 -17.5 -46.5
c0 -11.333 3 -20.666 9 -27.999s14.167 -13.5 24.5 -18.5s22.333 -9.5 36 -13.5l42.5 -12c23.333 -5.33301 43.666 -11.833 60.999 -19.5s31.833 -17.334 43.5 -29.001s20.334 -25.5 26.001 -41.5s8.5 -35.333 8.5 -58c0 -44.667 -15 -80.334 -45 -107.001s-72 -40 -126 -40
c-42.667 0 -78.334 9 -107.001 27s-50.667 44 -66 78zM203.997 653.001l-125 -101l-37 33l141 146h50l133 -144l-37 -34z" />
    <glyph glyph-name="Scedilla" unicode="&#x15e;" horiz-adv-x="478" 
d="M444 190c0 -56.667 -16.0029 -102.335 -48.0029 -137.002s-77 -54.334 -135 -59.001l-12 -41c17.333 -1.33301 31.666 -4.66602 42.999 -9.99902s20.5 -12 27.5 -20s11.833 -16.333 14.5 -25s4 -17 4 -25s-1.66699 -16.667 -5 -26s-8.66602 -17.833 -15.999 -25.5
s-17 -14 -29 -19s-26.333 -7.5 -43 -7.5h-14c-6.66699 0 -14.167 0.5 -22.5 1.5s-17.166 2.66699 -26.499 5s-18 5.5 -26 9.5l14 37c12.667 -6 24.834 -9.66699 36.501 -11s22.167 -2 31.5 -2c11.333 0 21.5 3.33301 30.5 10s13.5 15.667 13.5 27
c0 13.333 -5.16699 24 -15.5 32s-26.5 11.333 -48.5 10l-18 15l19 65c-48.667 2.66699 -89.5 14.667 -122.5 36s-57.833 50 -74.5 86l74 43c13.333 -23.333 31.333 -43.333 54 -60s52 -25 88 -25c42.667 0 73.334 11 92.001 33s28 49.667 28 83
c0 18.667 -2.83301 34.5 -8.5 47.5s-13.834 24.167 -24.501 33.5s-23.667 17.5 -39 24.5s-32.333 13.5 -51 19.5c-34.667 10.667 -64.167 21.834 -88.5 33.501s-44.166 25.167 -59.499 40.5s-26.5 32.833 -33.5 52.5s-10.5 42.834 -10.5 69.501c0 28 4.66699 53.667 14 77
s22.833 43.5 40.5 60.5s38.834 30.167 63.501 39.5s52.334 14 83.001 14c51.333 0 92.666 -9.16699 123.999 -27.5s54.666 -41.5 69.999 -69.5l-71 -49c-13.333 23.333 -30 40.166 -50 50.499s-45.667 15.5 -77 15.5c-38.667 0 -67 -10.667 -85 -32s-27 -47.666 -27 -78.999
c0 -18 4 -33.333 12 -46s19 -23.5 33 -32.5s30.333 -17 49 -24s39 -13.833 61 -20.5c30 -9.33301 55.333 -20 76 -32s37.167 -26 49.5 -42s21.333 -34.167 27 -54.5s8.5 -43.5 8.5 -69.5z" />
    <glyph glyph-name="scedilla" unicode="&#x15f;" horiz-adv-x="405" 
d="M93 136c10.667 -21.333 24.8291 -38.001 42.4961 -50.001s39.834 -18 66.501 -18c28 0 49.833 5.83301 65.5 17.5s23.5 30.5 23.5 56.5c0 12.667 -2.33301 23 -7 31s-11.167 14.667 -19.5 20s-18.166 9.83301 -29.499 13.5l-37 11.5c-24 6 -45.667 12.833 -65 20.5
s-36 17 -50 28s-24.667 24 -32 39s-11 33.167 -11 54.5c0 44 14.333 78.5 43 103.5s68 37.5 118 37.5c44.667 0 79.5 -8.33301 104.5 -25s43.167 -40 54.5 -70l-63 -39c-19.333 40 -51.666 60 -96.999 60c-30 0 -50.833 -6.83301 -62.5 -20.5s-17.5 -29.167 -17.5 -46.5
c0 -11.333 3 -20.666 9 -27.999s14.167 -13.5 24.5 -18.5s22.333 -9.5 36 -13.5l42.5 -12c23.333 -5.33301 43.666 -11.833 60.999 -19.5s31.833 -17.334 43.5 -29.001s20.334 -25.5 26.001 -41.5s8.5 -35.333 8.5 -58c0 -42 -13.5 -76 -40.5 -102s-64.5 -40.667 -112.5 -44
l-12 -41c17.333 -1.33301 31.666 -4.66602 42.999 -9.99902s20.5 -12 27.5 -20s11.833 -16.333 14.5 -25s4 -17 4 -25s-1.66699 -16.667 -5 -26s-8.66602 -17.833 -15.999 -25.5s-17 -14 -29 -19s-26.333 -7.5 -43 -7.5h-14c-6.66699 0 -14.167 0.5 -22.5 1.5
s-17.166 2.66699 -26.499 5s-18 5.5 -26 9.5l14 37c12.667 -6 24.834 -9.66699 36.501 -11s22.167 -2 31.5 -2c11.333 0 21.5 3.33301 30.5 10s13.5 15.667 13.5 27c0 13.333 -5.16699 24 -15.5 32s-26.5 11.333 -48.5 10l-18 15l19 65
c-70.667 6 -120.334 40.667 -149.001 104z" />
    <glyph glyph-name="Scaron" unicode="&#x160;" horiz-adv-x="478" 
d="M444 190c0 -60.667 -18.1689 -108.669 -54.502 -144.002s-87.166 -53 -152.499 -53c-54 0 -99 11 -135 33s-62.667 52 -80 90l74 43c13.333 -23.333 31.333 -43.333 54 -60s52 -25 88 -25c42.667 0 73.334 11 92.001 33s28 49.667 28 83
c0 18.667 -2.83301 34.5 -8.5 47.5s-13.834 24.167 -24.501 33.5s-23.667 17.5 -39 24.5s-32.333 13.5 -51 19.5c-34.667 10.667 -64.167 21.834 -88.5 33.501s-44.166 25.167 -59.499 40.5s-26.5 32.833 -33.5 52.5s-10.5 42.834 -10.5 69.501c0 28 4.66699 53.667 14 77
s22.833 43.5 40.5 60.5s38.834 30.167 63.501 39.5s52.334 14 83.001 14c51.333 0 92.666 -9.16699 123.999 -27.5s54.666 -41.5 69.999 -69.5l-71 -49c-13.333 23.333 -30 40.166 -50 50.499s-45.667 15.5 -77 15.5c-38.667 0 -67 -10.667 -85 -32s-27 -47.666 -27 -78.999
c0 -18 4 -33.333 12 -46s19 -23.5 33 -32.5s30.333 -17 49 -24s39 -13.833 61 -20.5c30 -9.33301 55.333 -20 76 -32s37.167 -26 49.5 -42s21.333 -34.167 27 -54.5s8.5 -43.5 8.5 -69.5zM355.998 890.998l32 -34l-133 -122h-50l-140 124l31 33l130 -81z" />
    <glyph glyph-name="scaron" unicode="&#x161;" horiz-adv-x="405" 
d="M93 136c10.667 -21.333 24.8311 -37.999 42.498 -49.999s39.834 -18 66.501 -18c28 0 49.833 5.83301 65.5 17.5s23.5 30.5 23.5 56.5c0 12.667 -2.33301 23 -7 31s-11.167 14.667 -19.5 20s-18.166 9.83301 -29.499 13.5l-37 11.5c-24 6 -45.667 12.833 -65 20.5
s-36 17 -50 28s-24.667 24 -32 39s-11 33.167 -11 54.5c0 44 14.333 78.5 43 103.5s68 37.5 118 37.5c44.667 0 79.5 -8.33301 104.5 -25s43.167 -40 54.5 -70l-63 -39c-19.333 40 -51.666 60 -96.999 60c-30 0 -50.833 -6.83301 -62.5 -20.5s-17.5 -29.167 -17.5 -46.5
c0 -11.333 3 -20.666 9 -27.999s14.167 -13.5 24.5 -18.5s22.333 -9.5 36 -13.5l42.5 -12c23.333 -5.33301 43.666 -11.833 60.999 -19.5s31.833 -17.334 43.5 -29.001s20.334 -25.5 26.001 -41.5s8.5 -35.333 8.5 -58c0 -44.667 -15 -80.334 -45 -107.001s-72 -40 -126 -40
c-42.667 0 -78.334 9 -107.001 27s-50.667 44 -66 78zM316.997 732.001l37 -35l-133 -144h-50l-141 146l37 33l125 -100z" />
    <glyph glyph-name="Tcommaaccent" unicode="&#x162;" horiz-adv-x="403" 
d="M243 620v-620h-83v620h-159v76h401v-76h-159zM201 -254h-47l31 89h-28v103h95v-101z" />
    <glyph glyph-name="tcommaaccent" unicode="&#x163;" horiz-adv-x="249" 
d="M185 0c-38 0 -66.5 10.833 -85.5 32.5s-28.5 48.5 -28.5 80.5v316h-55v66h55v127h81v-127h70v-66h-70v-293c0 -20.667 4 -36.167 12 -46.5s21 -15.5 39 -15.5h27v-74h-45zM124 -254h-47l31 89h-28v103h95v-101z" />
    <glyph glyph-name="Tcaron" unicode="&#x164;" horiz-adv-x="403" 
d="M243 620v-620h-83v620h-159v76h401v-76h-159zM333 891l32 -34l-133 -122h-50l-140 124l31 33l130 -81z" />
    <glyph glyph-name="tcaron" unicode="&#x165;" horiz-adv-x="296" 
d="M253 555h-47l31 89h-28v103h95v-101zM185 0c-38 0 -66.5 10.833 -85.5 32.5s-28.5 48.5 -28.5 80.5v316h-55v66h55v127h81v-127h70v-66h-70v-293c0 -20.667 4 -36.167 12 -46.5s21 -15.5 39 -15.5h27v-74h-45z" />
    <glyph glyph-name="Tbar" unicode="&#x166;" horiz-adv-x="403" 
d="M243 620v-228h123v-70h-123v-322h-83v322h-122v70h122v228h-159v76h401v-76h-159z" />
    <glyph glyph-name="tbar" unicode="&#x167;" horiz-adv-x="249" 
d="M185 0c-38 0 -66.5 10.833 -85.5 32.5s-28.5 48.5 -28.5 80.5v156h-55v63h55v97h-55v66h55v127h81v-127h70v-66h-70v-97h70v-63h-70v-133c0 -20.667 4 -36.167 12 -46.5s21 -15.5 39 -15.5h27v-74h-45z" />
    <glyph glyph-name="Utilde" unicode="&#x168;" horiz-adv-x="519" 
d="M464 696l0.000976562 -493.998c0 -32 -5 -60.833 -15 -86.5s-24 -47.5 -42 -65.5s-39.5 -31.833 -64.5 -41.5s-52.5 -14.5 -82.5 -14.5c-32 0 -60.5 5.16699 -85.5 15.5s-46.333 24.666 -64 42.999s-31.167 40.333 -40.5 66s-14 53.5 -14 83.5v494h83v-497
c0 -16.667 2.83301 -32.5 8.5 -47.5s13.667 -28.333 24 -40s23 -21 38 -28s31.833 -10.5 50.5 -10.5c35.333 0 64.166 11.167 86.499 33.5s33.5 53.166 33.5 92.499v497h84zM194.001 859.002c10.667 0 21.3359 -2.16895 32.0029 -6.50195s21 -9.16602 31 -14.499
s20 -10.166 30 -14.499s19.667 -6.5 29 -6.5c18 0 37 14 57 42l45 -28c-13.333 -27.333 -28.5 -47.833 -45.5 -61.5s-34.5 -20.5 -52.5 -20.5c-11.333 0 -22.333 2.16699 -33 6.5s-21.167 9 -31.5 14l-30 14c-9.66699 4.33301 -18.834 6.5 -27.501 6.5
c-10 0 -19.5 -3 -28.5 -9s-18.833 -15.667 -29.5 -29l-44 25c11.333 22.667 25.666 42 42.999 58s35.666 24 54.999 24z" />
    <glyph glyph-name="utilde" unicode="&#x169;" horiz-adv-x="442" 
d="M309 0l-0.00195312 53.001h-3c-14 -20 -31.5 -34.833 -52.5 -44.5s-43.167 -14.5 -66.5 -14.5c-20 0 -38.667 3.5 -56 10.5s-32.166 17 -44.499 30s-22.166 28.667 -29.499 47s-11 39.166 -11 62.499v350h81v-323c0 -30 8.16699 -53.833 24.5 -71.5
s38.5 -26.5 66.5 -26.5c27.333 0 49.333 9 66 27s25 42.333 25 73v321h80v-494h-80zM148.998 689.001c10.667 0 21.3359 -2.16895 32.0029 -6.50195s21 -9.16602 31 -14.499s20 -10.166 30 -14.499s19.667 -6.5 29 -6.5c18 0 37 14 57 42l45 -28
c-13.333 -27.333 -28.5 -47.833 -45.5 -61.5s-34.5 -20.5 -52.5 -20.5c-11.333 0 -22.333 2.16699 -33 6.5s-21.167 9 -31.5 14l-30 14c-9.66699 4.33301 -18.834 6.5 -27.501 6.5c-10 0 -19.5 -3 -28.5 -9s-18.833 -15.667 -29.5 -29l-44 25
c11.333 22.667 25.666 42 42.999 58s35.666 24 54.999 24z" />
    <glyph glyph-name="Umacron" unicode="&#x16a;" horiz-adv-x="519" 
d="M464 696l0.000976562 -493.998c0 -32 -5 -60.833 -15 -86.5s-24 -47.5 -42 -65.5s-39.5 -31.833 -64.5 -41.5s-52.5 -14.5 -82.5 -14.5c-32 0 -60.5 5.16699 -85.5 15.5s-46.333 24.666 -64 42.999s-31.167 40.333 -40.5 66s-14 53.5 -14 83.5v494h83v-497
c0 -16.667 2.83301 -32.5 8.5 -47.5s13.667 -28.333 24 -40s23 -21 38 -28s31.833 -10.5 50.5 -10.5c35.333 0 64.166 11.167 86.499 33.5s33.5 53.166 33.5 92.499v497h84zM140.001 763.002v75h248v-75h-248z" />
    <glyph glyph-name="umacron" unicode="&#x16b;" horiz-adv-x="442" 
d="M309 0l-0.00195312 53.001h-3c-14 -20 -31.5 -34.833 -52.5 -44.5s-43.167 -14.5 -66.5 -14.5c-20 0 -38.667 3.5 -56 10.5s-32.166 17 -44.499 30s-22.166 28.667 -29.499 47s-11 39.166 -11 62.499v350h81v-323c0 -30 8.16699 -53.833 24.5 -71.5
s38.5 -26.5 66.5 -26.5c27.333 0 49.333 9 66 27s25 42.333 25 73v321h80v-494h-80zM96.998 588.001v75h248v-75h-248z" />
    <glyph glyph-name="Ubreve" unicode="&#x16c;" horiz-adv-x="519" 
d="M464 696l0.000976562 -493.998c0 -32 -5 -60.833 -15 -86.5s-24 -47.5 -42 -65.5s-39.5 -31.833 -64.5 -41.5s-52.5 -14.5 -82.5 -14.5c-32 0 -60.5 5.16699 -85.5 15.5s-46.333 24.666 -64 42.999s-31.167 40.333 -40.5 66s-14 53.5 -14 83.5v494h83v-497
c0 -16.667 2.83301 -32.5 8.5 -47.5s13.667 -28.333 24 -40s23 -21 38 -28s31.833 -10.5 50.5 -10.5c35.333 0 64.166 11.167 86.499 33.5s33.5 53.166 33.5 92.499v497h84zM197.001 849.002c0.666992 -6.66699 2.66699 -13.667 6 -21s8 -14.166 14 -20.499
s13.167 -11.5 21.5 -15.5s17.5 -6 27.5 -6c11.333 0 21.333 2 30 6s16 9.16699 22 15.5s10.5 13.166 13.5 20.499s4.5 14.333 4.5 21h67c-1.33301 -13.333 -4.5 -27.333 -9.5 -42s-12.667 -28.167 -23 -40.5s-24 -22.666 -41 -30.999s-38.167 -12.5 -63.5 -12.5
c-26 0 -47.667 4.16699 -65 12.5s-31.333 18.666 -42 30.999s-18.5 25.833 -23.5 40.5s-7.5 28.667 -7.5 42h69z" />
    <glyph glyph-name="ubreve" unicode="&#x16d;" horiz-adv-x="442" 
d="M309 0l-0.00195312 53.001h-3c-14 -20 -31.5 -34.833 -52.5 -44.5s-43.167 -14.5 -66.5 -14.5c-20 0 -38.667 3.5 -56 10.5s-32.166 17 -44.499 30s-22.166 28.667 -29.499 47s-11 39.166 -11 62.499v350h81v-323c0 -30 8.16699 -53.833 24.5 -71.5
s38.5 -26.5 66.5 -26.5c27.333 0 49.333 9 66 27s25 42.333 25 73v321h80v-494h-80zM156.998 699.001c0.666992 -6.66699 2.66699 -13.667 6 -21s8 -14.166 14 -20.499s13.167 -11.5 21.5 -15.5s17.5 -6 27.5 -6c11.333 0 21.333 2 30 6s16 9.16699 22 15.5
s10.5 13.166 13.5 20.499s4.5 14.333 4.5 21h67c-1.33301 -13.333 -4.5 -27.333 -9.5 -42s-12.667 -28.167 -23 -40.5s-24 -22.666 -41 -30.999s-38.167 -12.5 -63.5 -12.5c-26 0 -47.667 4.16699 -65 12.5s-31.333 18.666 -42 30.999s-18.5 25.833 -23.5 40.5
s-7.5 28.667 -7.5 42h69z" />
    <glyph glyph-name="Uring" unicode="&#x16e;" horiz-adv-x="519" 
d="M464 696l0.000976562 -493.998c0 -32 -5 -60.833 -15 -86.5s-24 -47.5 -42 -65.5s-39.5 -31.833 -64.5 -41.5s-52.5 -14.5 -82.5 -14.5c-32 0 -60.5 5.16699 -85.5 15.5s-46.333 24.666 -64 42.999s-31.167 40.333 -40.5 66s-14 53.5 -14 83.5v494h83v-497
c0 -16.667 2.83301 -32.5 8.5 -47.5s13.667 -28.333 24 -40s23 -21 38 -28s31.833 -10.5 50.5 -10.5c35.333 0 64.166 11.167 86.499 33.5s33.5 53.166 33.5 92.499v497h84zM262.001 713.002c-25.333 0 -46.501 8.16699 -63.501 24.5s-25.5 36.166 -25.5 59.499
c0 12 2.33301 23.167 7 33.5s11 19.333 19 27s17.333 13.834 28 18.501s22.334 7 35.001 7c11.333 0 22.166 -2.33301 32.499 -7s19.333 -10.834 27 -18.501s13.834 -16.667 18.501 -27s7 -21.5 7 -33.5c0 -23.333 -8.33301 -43.166 -25 -59.499s-36.667 -24.5 -60 -24.5z
M262 842.002c-13.333 0 -24.5 -4.33301 -33.5 -13s-13.5 -19.334 -13.5 -32.001c0 -12 4.5 -22.167 13.5 -30.5s20.167 -12.5 33.5 -12.5c12 0 22.333 4.16699 31 12.5s13 18.5 13 30.5c0 12.667 -4.33301 23.334 -13 32.001s-19 13 -31 13z" />
    <glyph glyph-name="uring" unicode="&#x16f;" horiz-adv-x="442" 
d="M309 0l-0.00195312 53.001h-3c-14 -20 -31.5 -34.833 -52.5 -44.5s-43.167 -14.5 -66.5 -14.5c-20 0 -38.667 3.5 -56 10.5s-32.166 17 -44.499 30s-22.166 28.667 -29.499 47s-11 39.166 -11 62.499v350h81v-323c0 -30 8.16699 -53.833 24.5 -71.5
s38.5 -26.5 66.5 -26.5c27.333 0 49.333 9 66 27s25 42.333 25 73v321h80v-494h-80zM225.998 551.001c-25.333 0 -46.501 8.16699 -63.501 24.5s-25.5 36.166 -25.5 59.499c0 12 2.33301 23.167 7 33.5s11 19.333 19 27s17.333 13.834 28 18.501s22.334 7 35.001 7
c11.333 0 22.166 -2.33301 32.499 -7s19.333 -10.834 27 -18.501s13.834 -16.667 18.501 -27s7 -21.5 7 -33.5c0 -23.333 -8.33301 -43.166 -25 -59.499s-36.667 -24.5 -60 -24.5zM225.997 680.001c-13.333 0 -24.5 -4.33301 -33.5 -13s-13.5 -19.334 -13.5 -32.001
c0 -12 4.5 -22.167 13.5 -30.5s20.167 -12.5 33.5 -12.5c12 0 22.333 4.16699 31 12.5s13 18.5 13 30.5c0 12.667 -4.33301 23.334 -13 32.001s-19 13 -31 13z" />
    <glyph glyph-name="Uhungarumlaut" unicode="&#x170;" horiz-adv-x="519" 
d="M464 696l0.000976562 -493.998c0 -32 -5 -60.833 -15 -86.5s-24 -47.5 -42 -65.5s-39.5 -31.833 -64.5 -41.5s-52.5 -14.5 -82.5 -14.5c-32 0 -60.5 5.16699 -85.5 15.5s-46.333 24.666 -64 42.999s-31.167 40.333 -40.5 66s-14 53.5 -14 83.5v494h83v-497
c0 -16.667 2.83301 -32.5 8.5 -47.5s13.667 -28.333 24 -40s23 -21 38 -28s31.833 -10.5 50.5 -10.5c35.333 0 64.166 11.167 86.499 33.5s33.5 53.166 33.5 92.499v497h84zM126.001 767.002l145 117l54 -59l-166 -97zM298.001 767.002l145 117l54 -59l-166 -97z" />
    <glyph glyph-name="uhungarumlaut" unicode="&#x171;" horiz-adv-x="442" 
d="M309 0l-0.00195312 53.001h-3c-14 -20 -31.5 -34.833 -52.5 -44.5s-43.167 -14.5 -66.5 -14.5c-20 0 -38.667 3.5 -56 10.5s-32.166 17 -44.499 30s-22.166 28.667 -29.499 47s-11 39.166 -11 62.499v350h81v-323c0 -30 8.16699 -53.833 24.5 -71.5
s38.5 -26.5 66.5 -26.5c27.333 0 49.333 9 66 27s25 42.333 25 73v321h80v-494h-80zM123.998 572.001l70 173l76 -25l-98 -167zM252.998 572.001l70 173l76 -25l-98 -167z" />
    <glyph glyph-name="Uogonek" unicode="&#x172;" horiz-adv-x="519" 
d="M196 -90c0 12.667 2.50293 25.835 7.50293 39.502s13.167 29.167 24.5 46.5c-54 6.66699 -96.167 28.667 -126.5 66s-45.5 84 -45.5 140v494h83v-497c0 -16.667 2.83301 -32.5 8.5 -47.5s13.667 -28.333 24 -40s23 -21 38 -28s31.833 -10.5 50.5 -10.5
c35.333 0 64.166 11.167 86.499 33.5s33.5 53.166 33.5 92.499v497h84v-494c0 -29.333 -4.16699 -56.166 -12.5 -80.499s-20.333 -45.333 -36 -63s-34.334 -31.834 -56.001 -42.501s-45.5 -17.334 -71.5 -20.001c-18 -27.333 -27 -51 -27 -71
c0 -14 4.16699 -24.833 12.5 -32.5s20.166 -11.5 35.499 -11.5c14.667 0 33.667 5.33301 57 16l20 -50c-13.333 -7.33301 -28 -13.333 -44 -18s-32.333 -7 -49 -7c-28.667 0 -52 8.66699 -70 26s-27 38 -27 62z" />
    <glyph glyph-name="uogonek" unicode="&#x173;" horiz-adv-x="442" 
d="M273 -90c0 13.333 2.66699 27.334 8 42.001s14.666 31 27.999 49v52h-3c-14 -20 -31.5 -34.833 -52.5 -44.5s-43.167 -14.5 -66.5 -14.5c-20 0 -38.667 3.5 -56 10.5s-32.166 17 -44.499 30s-22.166 28.667 -29.499 47s-11 39.166 -11 62.499v350h81v-323
c0 -30 8.16699 -53.833 24.5 -71.5s38.5 -26.5 66.5 -26.5c27.333 0 49.333 9 66 27s25 42.333 25 73v321h80v-494h-21c-20 -29.333 -30 -54.333 -30 -75c0 -14 4.16699 -24.833 12.5 -32.5s20.166 -11.5 35.499 -11.5c14.667 0 33.667 5.33301 57 16l20 -50
c-13.333 -7.33301 -28 -13.333 -44 -18s-32.333 -7 -49 -7c-28.667 0 -52 8.66699 -70 26s-27 38 -27 62z" />
    <glyph glyph-name="Wcircumflex" unicode="&#x174;" horiz-adv-x="702" 
d="M545 0h-74l-78 338l-41 191h-3l-40 -187l-78 -342h-74l-138 696h87l58 -319l32 -198h3l42 195l75 322h71l75 -323l42 -194h3l31 194l57 323h88zM349 813l-130 -80l-31 33l140 123h50l133 -121l-32 -35z" />
    <glyph glyph-name="wcircumflex" unicode="&#x175;" horiz-adv-x="635" 
d="M490 0l-79 -0.000976562l-32.5 119.5c-11 39.667 -21.5 79.834 -31.5 120.501l-31 115h-2l-16 -64.5l-16 -63.5l-60 -227h-80l-134 495h86l32.5 -131l31.5 -131l24 -102h4l25 101l33 130.5l34 132.5h79l32.5 -128l31.5 -128l27 -113h4l25 108l30.5 130.5l30.5 130.5h87z
M316 652.999l-125 -101l-37 33l141 146h50l133 -144l-37 -34z" />
    <glyph glyph-name="Ycircumflex" unicode="&#x176;" horiz-adv-x="442" 
d="M223 386l51 134l72 176h87l-172 -406v-290h-81v290l-173 406h88l37 -90l37 -90c8 -20 16.167 -41.667 24.5 -65l23.5 -65h6zM218 813l-130 -80l-31 33l140 123h50l133 -121l-32 -35z" />
    <glyph glyph-name="ycircumflex" unicode="&#x177;" horiz-adv-x="384" 
d="M206 -99c-10.667 -35.333 -26.999 -61.333 -48.999 -78s-48.667 -25 -80 -25h-26v70h24c31.333 0 52.666 23.667 63.999 71l21 73l-159 483h86l61 -198l47 -167h3l44 167l58 198h84zM189.001 653l-125 -101l-37 33l141 146h50l133 -144l-37 -34z" />
    <glyph glyph-name="Ydieresis" unicode="&#x178;" horiz-adv-x="442" 
d="M223 386l51 134l72 176h87l-172 -406v-290h-81v290l-173 406h88l37 -90l37 -90c8 -20 16.167 -41.667 24.5 -65l23.5 -65h6zM98 748v84h79v-84h-79zM265 748v84h78v-84h-78z" />
    <glyph glyph-name="Zacute" unicode="&#x179;" horiz-adv-x="413" 
d="M27 0v77l271 543h-260v76h350v-72l-271 -545h270v-79h-360zM155 766l145 118l54 -59l-166 -98z" />
    <glyph glyph-name="zacute" unicode="&#x17a;" horiz-adv-x="370" 
d="M29 0v71l222 352h-208v71h299v-69l-221 -349h221v-76h-313zM155 572l70 173l76 -25l-98 -167z" />
    <glyph glyph-name="Zdotaccent" unicode="&#x17b;" horiz-adv-x="413" 
d="M27 0v77l271 543h-260v76h350v-72l-271 -545h270v-79h-360zM184 763v84h78v-84h-78z" />
    <glyph glyph-name="zdotaccent" unicode="&#x17c;" horiz-adv-x="370" 
d="M29 0v71l222 352h-208v71h299v-69l-221 -349h221v-76h-313zM164 593v84h78v-84h-78z" />
    <glyph glyph-name="Zcaron" unicode="&#x17d;" horiz-adv-x="413" 
d="M27 0v77l271 543h-260v76h350v-72l-271 -545h270v-79h-360zM342 891l32 -34l-133 -122h-50l-140 124l31 33l130 -81z" />
    <glyph glyph-name="zcaron" unicode="&#x17e;" horiz-adv-x="370" 
d="M29 0v71l222 352h-208v71h299v-69l-221 -349h221v-76h-313zM314 732l37 -35l-133 -144h-50l-141 146l37 33l125 -100z" />
    <glyph glyph-name="florin" unicode="&#x192;" horiz-adv-x="440" 
d="M107 419l88.0068 -0.000976562l11 81c2.66699 22.667 7.33398 45.834 14.001 69.501s16.167 45 28.5 64s28.5 34.5 48.5 46.5s44.667 18 74 18c13.333 0 26.166 -1.16699 38.499 -3.5s23.166 -5.5 32.499 -9.5l-9 -36.5c-2.66699 -11 -5.33398 -23.167 -8.00098 -36.5
c-8.66699 3.33301 -18.334 5.83301 -29.001 7.5s-20.334 2.5 -29.001 2.5c-13.333 0 -24.833 -3.16699 -34.5 -9.5s-17.667 -14.666 -24 -24.999s-11.333 -22.666 -15 -36.999s-6.5 -29.5 -8.5 -45.5l-12 -86h94v-69h-103l-31 -236c-4 -32 -9.33301 -60.5 -16 -85.5
s-15.834 -46.333 -27.501 -64s-26 -31.167 -43 -40.5s-37.833 -14 -62.5 -14c-12.667 0 -26.834 1.66699 -42.501 5s-29.834 7.66602 -42.501 12.999c4 13.333 7.66699 24.166 11 32.499l12 31.5c10 -4 19.5 -6.83301 28.5 -8.5s17.167 -2.5 24.5 -2.5
c25.333 0 43.5 11.5 54.5 34.5s19.167 55.5 24.5 97.5l31 237h-78v69z" />
    <glyph glyph-name="Ohorn" unicode="&#x1a0;" horiz-adv-x="518" 
d="M452 203c0 -32 -5.00098 -60.833 -15.001 -86.5s-24 -47.667 -42 -66s-39.5 -32.333 -64.5 -42s-52.5 -14.5 -82.5 -14.5c-36.667 0 -68 6 -94 18s-47.167 28.167 -63.5 48.5s-28.166 43.833 -35.499 70.5s-11 54.667 -11 84v279c0 23.333 3.66699 47.333 11 72
s19 47 35 67s37 36.333 63 49s57.667 19 95 19c30.667 0 57.5 -4.66699 80.5 -14s42.833 -21.666 59.5 -36.999c21.333 2 36 9.5 44 22.5s12 35.833 12 68.5v34h73v-37c0 -42 -6.66699 -75.333 -20 -100s-35 -41.334 -65 -50.001c13.333 -30.667 20 -62 20 -94v-291z
M366.999 493c0 10.667 -1.83203 23.333 -5.49902 38s-10 28.667 -19 42s-21.167 24.833 -36.5 34.5s-35 14.5 -59 14.5s-43.667 -4.5 -59 -13.5s-27.666 -20 -36.999 -33s-15.833 -27.167 -19.5 -42.5s-5.5 -29.333 -5.5 -42l1 -275c0 -20 2.16699 -38.833 6.5 -56.5
s11.5 -33 21.5 -46s22.833 -23.333 38.5 -31s34.5 -11.5 56.5 -11.5c16 0 31.167 2.83301 45.5 8.5s26.666 13.834 36.999 24.501s18.666 23.667 24.999 39s9.5 32.666 9.5 51.999v298z" />
    <glyph glyph-name="ohorn" unicode="&#x1a1;" horiz-adv-x="474" 
d="M222 501c28.667 0 52.6699 -4.33691 72.0029 -13.0039s35.666 -20 48.999 -34c22.667 1.33301 38.334 8.5 47.001 21.5s13 36.167 13 69.5v33h73v-36c0 -44.667 -7.5 -79.667 -22.5 -105s-39.5 -41.666 -73.5 -48.999c5.33301 -19.333 9.16602 -41.833 11.499 -67.5
s3.5 -50.167 3.5 -73.5c0 -9.33301 -0.333008 -20.666 -1 -33.999s-1.83398 -27.333 -3.50098 -42s-3.5 -28.667 -5.5 -42s-4.33301 -24 -7 -32c-6 -19.333 -14.833 -35.666 -26.5 -48.999s-25 -24 -40 -32s-31 -13.833 -48 -17.5s-34.5 -5.5 -52.5 -5.5
c-38 0 -69.167 8 -93.5 24s-42.5 36.667 -54.5 62c-8.66699 18 -14.667 41.833 -18 71.5s-5 60.834 -5 93.501c0 31.333 1.5 61.333 4.5 90s8.16699 52 15.5 70c13.333 30 33.666 53.667 60.999 71s61 26 101 26zM220.003 427.996
c-19.333 0 -36.668 -4.66504 -52.001 -13.998s-26.666 -23.333 -33.999 -42c-4.66699 -12.667 -8.16699 -30.834 -10.5 -54.501s-3.5 -51.167 -3.5 -82.5c0 -22 0.5 -42.667 1.5 -62s4.16699 -35.666 9.5 -48.999c7.33301 -18 18 -32 32 -42s31.667 -15 53 -15
c20.667 0 38.834 5 54.501 15s27.167 26 34.5 48c3.33301 9.33301 5.66602 25.166 6.99902 47.499s2 47.166 2 74.499c0 23.333 -0.666992 45.5 -2 66.5s-4 37.5 -8 49.5c-7.33301 20 -18.333 35 -33 45s-31.667 15 -51 15z" />
    <glyph glyph-name="Uhorn" unicode="&#x1af;" horiz-adv-x="564" 
d="M464 696l0.000976562 -44.998c19.333 2 32.833 9.66699 40.5 23s11.5 36 11.5 68v33h73v-37c0 -50 -9.66699 -87.833 -29 -113.5s-51.333 -40.167 -96 -43.5v-379c0 -32 -5 -60.833 -15 -86.5s-24 -47.5 -42 -65.5s-39.5 -31.833 -64.5 -41.5s-52.5 -14.5 -82.5 -14.5
c-32 0 -60.5 5.16699 -85.5 15.5s-46.333 24.666 -64 42.999s-31.167 40.333 -40.5 66s-14 53.5 -14 83.5v494h83v-497c0 -16.667 2.83301 -32.5 8.5 -47.5s13.667 -28.333 24 -40s23 -21 38 -28s31.833 -10.5 50.5 -10.5c35.333 0 64.166 11.167 86.499 33.5
s33.5 53.166 33.5 92.499v497h84z" />
    <glyph glyph-name="uhorn" unicode="&#x1b0;" horiz-adv-x="506" 
d="M309 0l-0.00292969 53.001h-3c-14 -20 -31.5 -34.833 -52.5 -44.5s-43.167 -14.5 -66.5 -14.5c-20 0 -38.667 3.5 -56 10.5s-32.166 17 -44.499 30s-22.166 28.667 -29.499 47s-11 39.166 -11 62.499v350h81v-323c0 -30 8.16699 -53.833 24.5 -71.5
s38.5 -26.5 66.5 -26.5c27.333 0 49.333 9 66 27s25 42.333 25 73v321h80v-39c19.333 2 33 9.5 41 22.5s12 35.5 12 67.5v33h73v-36c0 -50.667 -9.66699 -89 -29 -115s-51.666 -40.333 -96.999 -43v-384h-80z" />
    <glyph glyph-name="AEacute" unicode="&#x1fc;" horiz-adv-x="801" 
d="M395 193h-206l-96 -193h-86l173 348l174 348h411v-78h-286v-228h245v-75h-245v-235h286v-80h-370v193zM226 268h169v349h-1zM474 766l145 118l54 -59l-166 -98z" />
    <glyph glyph-name="aeacute" unicode="&#x1fd;" horiz-adv-x="690" 
d="M637 82c-13.333 -29.333 -32.9932 -51.333 -58.9932 -66s-55.667 -22 -89 -22c-36.667 0 -67.167 5.5 -91.5 16.5s-44.166 28.833 -59.499 53.5c-14.667 -16 -29.334 -28.667 -44.001 -38s-28.834 -16.333 -42.501 -21s-26.834 -7.66699 -39.501 -9s-24 -2 -34 -2
c-24 0 -45 3.83301 -63 11.5s-32.833 18.167 -44.5 31.5s-20.334 28.833 -26.001 46.5s-8.5 36.167 -8.5 55.5c0 44 13.667 80.5 41 109.5s71 43.5 131 43.5h91v61c0 22.667 -7.5 40.334 -22.5 53.001s-37.167 19 -66.5 19c-19.333 0 -37.5 -3.5 -54.5 -10.5
s-29.167 -19.167 -36.5 -36.5l-31.5 18.5l-31.5 19.5c13.333 27.333 33.833 48.333 61.5 63s58.5 22 92.5 22c30 0 57.667 -4.16699 83 -12.5s45.666 -22.5 60.999 -42.5c13.333 17.333 30 30.833 50 40.5s44.667 14.5 74 14.5c56 0 98.833 -17.833 128.5 -53.5
s44.5 -84.834 44.5 -147.501v-77h-267c0 -22 1.33301 -42.5 4 -61.5s7.66699 -35.5 15 -49.5s17.666 -25 30.999 -33s30.666 -12 51.999 -12c18 0 34.667 4.5 50 13.5s27.666 21.167 36.999 36.5zM299.007 223h-97c-26 0 -47.333 -6.16699 -64 -18.5s-25 -32.5 -25 -60.5
c0 -22 7.33301 -39.833 22 -53.5s37 -20.5 67 -20.5c28 0 51.167 6.33301 69.5 19s27.5 34.667 27.5 66v68zM571.007 288c0 45.333 -7.83301 79.5 -23.5 102.5s-38.5 34.5 -68.5 34.5c-34.667 0 -58.5 -12.333 -71.5 -37s-20.167 -58 -21.5 -100h185zM315.007 572l70 173
l76 -25l-98 -167z" />
    <glyph glyph-name="Oslashacute" unicode="&#x1fe;" horiz-adv-x="497" 
d="M452 203c0 -32 -4.99805 -60.834 -14.998 -86.501s-24 -47.667 -42 -66s-39.5 -32.333 -64.5 -42s-52.5 -14.5 -82.5 -14.5c-32 0 -60 4.66699 -84 14s-44 22 -60 38l-28 -50l-37 25l35 64c-10.667 18.667 -18.334 39 -23.001 61s-7 45 -7 69v279
c0 23.333 3.66699 47.333 11 72s19 47 35 67s37 36.333 63 49s57.667 19 95 19c30.667 0 57.5 -4.66699 80.5 -14s42.833 -21.666 59.5 -36.999l28 51l39 -24l-36 -64c11.333 -18 19.666 -37.167 24.999 -57.5s8 -40.833 8 -61.5v-291zM367.002 492.999
c0 3.33301 -0.165039 6.83301 -0.498047 10.5s-0.833008 7.5 -1.5 11.5l-218 -391c9.33301 -16.667 22.5 -29.667 39.5 -39s38.167 -14 63.5 -14c16 0 31.167 2.83301 45.5 8.5s26.666 13.834 36.999 24.501s18.666 23.667 24.999 39s9.5 32.666 9.5 51.999v298z
M127.004 215.999l-0.00195312 -17.001c0 -5.33301 0.666992 -10.666 2 -15.999l215 388c-9.33301 14 -21.666 26 -36.999 36s-35.333 15 -60 15c-24 0 -43.667 -4.5 -59 -13.5s-27.666 -20 -36.999 -33s-15.833 -27.167 -19.5 -42.5s-5.5 -29.333 -5.5 -42zM175.002 765.998
l145 118l54 -59l-166 -98z" />
    <glyph glyph-name="oslashacute" unicode="&#x1ff;" horiz-adv-x="438" 
d="M222 501c25.333 0 47.002 -3.50293 65.002 -10.5029s33.667 -16.5 47 -28.5l28 42l35 -26l-34 -50l6 -9c4.66699 -8 8.66699 -18.5 12 -31.5s6 -27.333 8 -43s3.5 -32 4.5 -49s1.5 -33.167 1.5 -48.5c0 -9.33301 -0.333008 -20.666 -1 -33.999
s-1.83398 -27.333 -3.50098 -42s-3.5 -28.667 -5.5 -42s-4.33301 -24 -7 -32c-6 -19.333 -14.833 -35.666 -26.5 -48.999s-25 -24 -40 -32s-31 -13.833 -48 -17.5s-34.5 -5.5 -52.5 -5.5c-25.333 0 -47.5 3.5 -66.5 10.5s-35.167 16.833 -48.5 29.5l-23 -34l-33 26l29 43
l-6 11c-8.66699 18 -14.667 41.833 -18 71.5s-5 60.834 -5 93.501c0 31.333 1.5 61.333 4.5 90s8.16699 52 15.5 70c13.333 30 33.666 53.667 60.999 71s61 26 101 26zM314.002 251.997c0 17.333 -0.333008 34.334 -1 51.001s-2 31.334 -4 44.001l-167 -245
c16 -23.333 40.667 -35 74 -35c20.667 0 38.834 5 54.501 15s27.167 26 34.5 48c3.33301 9.33301 5.66602 25.166 6.99902 47.499s2 47.166 2 74.499zM220.002 427.998c-19.333 0 -36.668 -4.66602 -52.001 -13.999s-26.666 -23.333 -33.999 -42
c-4.66699 -12.667 -8.16699 -30.834 -10.5 -54.501s-3.5 -51.167 -3.5 -82.5c0 -15.333 0.166992 -30.333 0.5 -45s1.5 -28 3.5 -40l165 246c-8 10.667 -18 18.667 -30 24s-25 8 -39 8zM175 571.999l70 173l76 -25l-98 -167z" />
    <glyph glyph-name="Scommaaccent" unicode="&#x218;" horiz-adv-x="477" 
d="M444 190c0 -60.667 -18.1689 -108.669 -54.502 -144.002s-87.166 -53 -152.499 -53c-54 0 -99 11 -135 33s-62.667 52 -80 90l74 43c13.333 -23.333 31.333 -43.333 54 -60s52 -25 88 -25c42.667 0 73.334 11 92.001 33s28 49.667 28 83
c0 18.667 -2.83301 34.5 -8.5 47.5s-13.834 24.167 -24.501 33.5s-23.667 17.5 -39 24.5s-32.333 13.5 -51 19.5c-34.667 10.667 -64.167 21.834 -88.5 33.501s-44.166 25.167 -59.499 40.5s-26.5 32.833 -33.5 52.5s-10.5 42.834 -10.5 69.501c0 28 4.66699 53.667 14 77
s22.833 43.5 40.5 60.5s38.834 30.167 63.501 39.5s52.334 14 83.001 14c51.333 0 92.666 -9.16699 123.999 -27.5s54.666 -41.5 69.999 -69.5l-71 -49c-13.333 23.333 -30 40.166 -50 50.499s-45.667 15.5 -77 15.5c-38.667 0 -67 -10.667 -85 -32s-27 -47.666 -27 -78.999
c0 -18 4 -33.333 12 -46s19 -23.5 33 -32.5s30.333 -17 49 -24s39 -13.833 61 -20.5c30 -9.33301 55.333 -20 76 -32s37.167 -26 49.5 -42s21.333 -34.167 27 -54.5s8.5 -43.5 8.5 -69.5zM224.998 -254.002h-47l31 89h-28v103h95v-101z" />
    <glyph glyph-name="scommaaccent" unicode="&#x219;" horiz-adv-x="405" 
d="M93 136c10.667 -21.333 24.8311 -37.999 42.498 -49.999s39.834 -18 66.501 -18c28 0 49.833 5.83301 65.5 17.5s23.5 30.5 23.5 56.5c0 12.667 -2.33301 23 -7 31s-11.167 14.667 -19.5 20s-18.166 9.83301 -29.499 13.5l-37 11.5c-24 6 -45.667 12.833 -65 20.5
s-36 17 -50 28s-24.667 24 -32 39s-11 33.167 -11 54.5c0 44 14.333 78.5 43 103.5s68 37.5 118 37.5c44.667 0 79.5 -8.33301 104.5 -25s43.167 -40 54.5 -70l-63 -39c-19.333 40 -51.666 60 -96.999 60c-30 0 -50.833 -6.83301 -62.5 -20.5s-17.5 -29.167 -17.5 -46.5
c0 -11.333 3 -20.666 9 -27.999s14.167 -13.5 24.5 -18.5s22.333 -9.5 36 -13.5l42.5 -12c23.333 -5.33301 43.666 -11.833 60.999 -19.5s31.833 -17.334 43.5 -29.001s20.334 -25.5 26.001 -41.5s8.5 -35.333 8.5 -58c0 -44.667 -15 -80.334 -45 -107.001s-72 -40 -126 -40
c-42.667 0 -78.334 9 -107.001 27s-50.667 44 -66 78zM185.997 -253.999h-47l31 89h-28v103h95v-101z" />
    <glyph glyph-name="schwa" unicode="&#x259;" horiz-adv-x="419" 
d="M46 407c13.333 29.333 34.165 52.4971 62.498 69.4971s59.166 25.5 92.499 25.5c62.667 0 108.334 -19.5 137.001 -58.5s43 -103.833 43 -194.5c0 -31.333 -2.5 -62.166 -7.5 -92.499s-14 -57.5 -27 -81.5s-30.833 -43.333 -53.5 -58s-51.667 -22 -87 -22
c-56 0 -98.833 17.833 -128.5 53.5s-44.5 84.834 -44.5 147.501v77h267c0 22 -1.33301 42.5 -4 61.5s-7.66699 35.5 -15 49.5s-17.666 25 -30.999 33s-30.666 12 -51.999 12c-18 0 -34.5 -5.66699 -49.5 -17s-27.167 -24.666 -36.5 -39.999zM112.999 207.997
c0 -45.333 7.83301 -79.5 23.5 -102.5s38.5 -34.5 68.5 -34.5c34.667 0 58.5 12.333 71.5 37s20.167 58 21.5 100h-185z" />
    <glyph glyph-name="primemod" unicode="&#x2b9;" horiz-adv-x="250" 
d="M239 670l-138 -266l-54 18l99 272z" />
    <glyph glyph-name="circumflex" unicode="&#x2c6;" horiz-adv-x="491" 
d="M250 653l-125 -101l-37 33l141 146h50l133 -144l-37 -34z" />
    <glyph glyph-name="caron" unicode="&#x2c7;" horiz-adv-x="426" 
d="M344 732l37 -35l-133 -144h-50l-141 146l37 33l125 -100z" />
    <glyph glyph-name="breve" unicode="&#x2d8;" horiz-adv-x="426" 
d="M155 699c0.666992 -6.66699 2.66699 -13.667 6 -21s8 -14.166 14 -20.499s13.167 -11.5 21.5 -15.5s17.5 -6 27.5 -6c11.333 0 21.333 2 30 6s16 9.16699 22 15.5s10.5 13.166 13.5 20.499s4.5 14.333 4.5 21h67c-1.33301 -13.333 -4.5 -27.333 -9.5 -42
s-12.667 -28.167 -23 -40.5s-24 -22.666 -41 -30.999s-38.167 -12.5 -63.5 -12.5c-26 0 -47.667 4.16699 -65 12.5s-31.333 18.666 -42 30.999s-18.5 25.833 -23.5 40.5s-7.5 28.667 -7.5 42h69z" />
    <glyph glyph-name="dotaccent" unicode="&#x2d9;" horiz-adv-x="426" 
d="M189 593v84h78v-84h-78z" />
    <glyph glyph-name="ring" unicode="&#x2da;" horiz-adv-x="426" 
d="M230 551c-25.333 0 -46.501 8.16699 -63.501 24.5s-25.5 36.166 -25.5 59.499c0 12 2.33301 23.167 7 33.5s11 19.333 19 27s17.333 13.834 28 18.501s22.334 7 35.001 7c11.333 0 22.166 -2.33301 32.499 -7s19.333 -10.834 27 -18.501s13.834 -16.667 18.501 -27
s7 -21.5 7 -33.5c0 -23.333 -8.33301 -43.166 -25 -59.499s-36.667 -24.5 -60 -24.5zM229.999 680c-13.333 0 -24.5 -4.33301 -33.5 -13s-13.5 -19.334 -13.5 -32.001c0 -12 4.5 -22.167 13.5 -30.5s20.167 -12.5 33.5 -12.5c12 0 22.333 4.16699 31 12.5s13 18.5 13 30.5
c0 12.667 -4.33301 23.334 -13 32.001s-19 13 -31 13z" />
    <glyph glyph-name="ogonek" unicode="&#x2db;" horiz-adv-x="281" 
d="M59 -92c0 13.333 3.00098 27.832 9.00098 43.499s16 33.167 30 52.5h58l1 -2c-22 -31.333 -33 -57.666 -33 -78.999c0 -14 4.16699 -24.833 12.5 -32.5s20.166 -11.5 35.499 -11.5c14.667 0 33.667 5.33301 57 16l20 -50c-13.333 -7.33301 -28 -13.333 -44 -18
s-32.333 -7 -49 -7c-28.667 0 -52 8.66699 -70 26s-27 38 -27 62z" />
    <glyph glyph-name="tilde" unicode="&#x2dc;" horiz-adv-x="427" 
d="M151 689c10.667 0 21.3359 -2.16895 32.0029 -6.50195s21 -9.16602 31 -14.499s20 -10.166 30 -14.499s19.667 -6.5 29 -6.5c18 0 37 14 57 42l45 -28c-13.333 -27.333 -28.5 -47.833 -45.5 -61.5s-34.5 -20.5 -52.5 -20.5c-11.333 0 -22.333 2.16699 -33 6.5
s-21.167 9 -31.5 14l-30 14c-9.66699 4.33301 -18.834 6.5 -27.501 6.5c-10 0 -19.5 -3 -28.5 -9s-18.833 -15.667 -29.5 -29l-44 25c11.333 22.667 25.666 42 42.999 58s35.666 24 54.999 24z" />
    <glyph glyph-name="hungarumlaut" unicode="&#x2dd;" horiz-adv-x="426" 
d="M130 572l70 173l76 -25l-98 -167zM259 572l70 173l76 -25l-98 -167z" />
    <glyph glyph-name="tonos" unicode="&#x384;" horiz-adv-x="426" 
d="M202 572l70 173l76 -25l-98 -167z" />
    <glyph glyph-name="dieresistonos" unicode="&#x385;" horiz-adv-x="426" 
d="M283 589v85h78v-85h-78zM62 589v85h78v-85h-78zM149 572l70 173l76 -25l-98 -167z" />
    <glyph glyph-name="Alphatonos" unicode="&#x386;" horiz-adv-x="497" 
d="M403 0l-44 158h-222l-43 -158h-85l202 696h75l203 -696h-86zM289 413l-39 154h-4l-39 -153l-51 -181h184zM-21 552l70 173l76 -25l-98 -167z" />
    <glyph glyph-name="anoteleia" unicode="&#x387;" horiz-adv-x="216" 
d="M58 292v102h95v-102h-95z" />
    <glyph glyph-name="Epsilontonos" unicode="&#x388;" horiz-adv-x="455" 
d="M65 0v696h369v-78h-286v-228h245v-75h-245v-234h286v-81h-369zM-108 552l70 173l76 -25l-98 -167z" />
    <glyph glyph-name="Etatonos" unicode="&#x389;" horiz-adv-x="532" 
d="M383 0v317h-235v-317h-83v696h83v-306h235v306h84v-696h-84zM-111 552l70 173l76 -25l-98 -167z" />
    <glyph glyph-name="Iotatonos" unicode="&#x38a;" horiz-adv-x="217" 
d="M66 0v696h84v-696h-84zM-113 552l70 173l76 -25l-98 -167z" />
    <glyph glyph-name="Omicrontonos" unicode="&#x38c;" horiz-adv-x="497" 
d="M452 203c0 -32 -5.00195 -60.832 -15.002 -86.499s-24 -47.667 -42 -66s-39.5 -32.333 -64.5 -42s-52.5 -14.5 -82.5 -14.5c-36.667 0 -68 6 -94 18s-47.167 28.167 -63.5 48.5s-28.166 43.833 -35.499 70.5s-11 54.667 -11 84v279c0 23.333 3.66699 47.333 11 72
s19 47 35 67s37 36.333 63 49s57.667 19 95 19c35.333 0 65.833 -6 91.5 -18s46.834 -27.833 63.501 -47.5s29 -41.834 37 -66.501s12 -49.667 12 -75v-291zM366.998 493.001c0 10.667 -1.83203 23.333 -5.49902 38s-10 28.667 -19 42s-21.167 24.833 -36.5 34.5
s-35 14.5 -59 14.5s-43.667 -4.5 -59 -13.5s-27.666 -20 -36.999 -33s-15.833 -27.167 -19.5 -42.5s-5.5 -29.333 -5.5 -42l1 -275c0 -20 2.16699 -38.833 6.5 -56.5s11.5 -33 21.5 -46s22.833 -23.333 38.5 -31s34.5 -11.5 56.5 -11.5c16 0 31.167 2.83301 45.5 8.5
s26.666 13.834 36.999 24.501s18.666 23.667 24.999 39s9.5 32.666 9.5 51.999v298zM-90.001 552l70 173l76 -25l-98 -167z" />
    <glyph glyph-name="Upsilontonos" unicode="&#x38e;" horiz-adv-x="442" 
d="M223 386l51 134l72 176h87l-172 -406v-290h-81v290l-173 406h88l37 -90l37 -90c8 -20 16.167 -41.667 24.5 -65l23.5 -65h6zM-147 552l70 173l76 -25l-98 -167z" />
    <glyph glyph-name="Omegatonos" unicode="&#x38f;" horiz-adv-x="497" 
d="M291 93c24.667 8.66699 43.668 23.9971 57.001 45.9971s20 49 20 81v270c0 38.667 -10.667 70.167 -32 94.5s-50.666 36.5 -87.999 36.5c-39.333 0 -69.333 -12.667 -90 -38s-31 -56.333 -31 -93v-270c0 -29.333 6.83301 -55.5 20.5 -78.5s33.167 -39.167 58.5 -48.5
l-1 -93h-172v78h71c-22.667 14.667 -38.334 36 -47.001 64s-13 57 -13 87v262c0 30.667 4.83301 58.834 14.5 84.501s23.5 47.834 41.5 66.501s39.5 33.334 64.5 44.001s52.833 16 83.5 16c28.667 0 55.5 -5 80.5 -15s46.667 -24.167 65 -42.5s32.666 -40.5 42.999 -66.5
s15.5 -55 15.5 -87v-262c0 -32 -4.5 -61 -13.5 -87s-24.5 -47.333 -46.5 -64h71v-78h-172v93zM-97.999 551.997l70 173l76 -25l-98 -167z" />
    <glyph glyph-name="iotadieresistonos" unicode="&#x390;" horiz-adv-x="217" 
d="M176 -1c-21.333 -2 -39.5 -1.66797 -54.5 0.999023s-27.167 8 -36.5 16s-16.166 19.167 -20.499 33.5s-6.5 32.5 -6.5 54.5v390h81v-379c0 -19.333 2.66699 -31.666 8 -36.999s15.666 -8 30.999 -8zM170 588.999v85h78v-85h-78zM-51 588.999v85h78v-85h-78zM36 571.999
l70 173l76 -25l-98 -167z" />
    <glyph glyph-name="Alpha" unicode="&#x391;" horiz-adv-x="497" 
d="M403 0l-44 158h-222l-43 -158h-85l202 696h75l203 -696h-86zM289 413l-39 154h-4l-39 -153l-51 -181h184z" />
    <glyph glyph-name="Beta" unicode="&#x392;" horiz-adv-x="506" 
d="M465 199c0 -65.333 -16.833 -114.831 -50.5 -148.498s-79.167 -50.5 -136.5 -50.5h-213v696h200c64 0 111.5 -16.5 142.5 -49.5s46.5 -77.5 46.5 -133.5c0 -32 -6 -60.333 -18 -85s-35.667 -45.667 -71 -63v-3c18 -4.66699 33.333 -12.334 46 -23.001
s23 -23.167 31 -37.5s13.833 -30.333 17.5 -48s5.5 -35.834 5.5 -54.501zM148 620.002v-223h109c40 0 69.167 10.333 87.5 31s27.5 48 27.5 82c0 33.333 -9.16699 60 -27.5 80s-47.5 30 -87.5 30h-109zM148 325.002l-0.00195312 -244h121c22 0 40.333 3.33301 55 10
s26.334 15.667 35.001 27s14.834 24.5 18.501 39.5s5.5 31.167 5.5 48.5c0 34.667 -8.83301 63.167 -26.5 85.5s-47.5 33.5 -89.5 33.5h-119z" />
    <glyph glyph-name="Gamma" unicode="&#x393;" horiz-adv-x="441" 
d="M148 618v-618h-83v696h361v-78h-278z" />
    <glyph glyph-name="Delta" unicode="&#x394;" horiz-adv-x="497" 
d="M9 0l202 696h75l202 -696h-479zM381 75l-14.499 54.498l-24.5 90l-29.5 106.5l-28.5 105l-23 84.5c-6.66699 23.667 -10.667 38.834 -12 45.501h-2c-4.66699 -13.333 -10.834 -35.166 -18.501 -65.499l-25.5 -102.5l-45.5 -163.5l-43.5 -154.5h267z" />
    <glyph glyph-name="Delta" unicode="&#x2206;" horiz-adv-x="497" 
d="M9 0l202 696h75l202 -696h-479zM381 75l-14.499 54.498l-24.5 90l-29.5 106.5l-28.5 105l-23 84.5c-6.66699 23.667 -10.667 38.834 -12 45.501h-2c-4.66699 -13.333 -10.834 -35.166 -18.501 -65.499l-25.5 -102.5l-45.5 -163.5l-43.5 -154.5h267z" />
    <glyph glyph-name="Epsilon" unicode="&#x395;" horiz-adv-x="455" 
d="M65 0v696h369v-78h-286v-228h245v-75h-245v-234h286v-81h-369z" />
    <glyph glyph-name="Zeta" unicode="&#x396;" horiz-adv-x="413" 
d="M27 0v77l271 543h-260v76h350v-72l-271 -545h270v-79h-360z" />
    <glyph glyph-name="Eta" unicode="&#x397;" horiz-adv-x="532" 
d="M383 0v317h-235v-317h-83v696h83v-306h235v306h84v-696h-84z" />
    <glyph glyph-name="Theta" unicode="&#x398;" horiz-adv-x="497" 
d="M156 391h185v-74h-185v74zM452 204c0 -32 -5.00195 -61 -15.002 -87s-24 -48 -42 -66s-39.5 -32 -64.5 -42s-52.5 -15 -82.5 -15c-36.667 0 -68 6 -94 18s-47.167 28.333 -63.5 49s-28.166 44.334 -35.499 71.001s-11 54.667 -11 84v279
c0 23.333 3.66699 47.166 11 71.499s19 46.5 35 66.5s37 36.333 63 49s57.667 19 95 19c35.333 0 65.833 -6 91.5 -18s46.834 -27.667 63.501 -47s29 -41.333 37 -66s12 -49.667 12 -75v-291zM366.998 494c0 10.667 -1.66504 23.3359 -4.99805 38.0029s-9.5 28.667 -18.5 42
s-21.167 24.666 -36.5 33.999s-35 14 -59 14c-22.667 0 -41.834 -4.33301 -57.501 -13s-28.167 -19.334 -37.5 -32.001s-16.166 -26.5 -20.499 -41.5s-6.5 -28.833 -6.5 -41.5l1 -277c0 -20 2.16699 -39 6.5 -57s11.5 -33.5 21.5 -46.5s22.833 -23.333 38.5 -31
s34.5 -11.5 56.5 -11.5c16 0 31.167 2.83301 45.5 8.5s26.666 14 36.999 25s18.666 24.167 24.999 39.5s9.5 32.666 9.5 51.999v298z" />
    <glyph glyph-name="Iota" unicode="&#x399;" horiz-adv-x="217" 
d="M66 0v696h84v-696h-84z" />
    <glyph glyph-name="Kappa" unicode="&#x39a;" horiz-adv-x="516" 
d="M415 0l-166.001 345l-50.5 -74.5c-16.333 -25 -33.166 -49.5 -50.499 -73.5v-197h-84v696h84v-365c0.666992 0 1.16699 0.166992 1.5 0.5s0.833008 0.5 1.5 0.5l119 182.5l120 181.5h91l-89.5 -135.5l-89.5 -135.5l205 -425h-92z" />
    <glyph glyph-name="Lambda" unicode="&#x39b;" horiz-adv-x="497" 
d="M403 0l-46 165.001l-14 49.5l-20.5 73l-30.5 109l-43 156.5h-2c-9.33301 -36 -17.333 -65.167 -24 -87.5l-17 -57.5l-24.5 -93l-18.5 -68.5l-14 -50c-4 -13.667 -7.33301 -25.834 -10 -36.501l-46 -160h-84l202 696h75l202 -696h-85z" />
    <glyph glyph-name="Mu" unicode="&#x39c;" horiz-adv-x="656" 
d="M514 0v486l-4 -1l-55 -134l-96 -215h-57l-97 219l-53 131l-4 -1v-485h-83v696h84l115 -263l66 -161h3l68 163l113 261h83v-696h-83z" />
    <glyph glyph-name="Nu" unicode="&#x39d;" horiz-adv-x="562" 
d="M420 0l-199 366l-71 139h-3v-505h-84v696h81l195 -361l74 -143l4 1v503h83v-696h-80z" />
    <glyph glyph-name="Xi" unicode="&#x39e;" horiz-adv-x="463" 
d="M47 618v78h370v-78h-370zM87 315v75h290v-75h-290zM47 0v81h370v-81h-370z" />
    <glyph glyph-name="Omicron" unicode="&#x39f;" horiz-adv-x="497" 
d="M452 203c0 -32 -5.00195 -60.832 -15.002 -86.499s-24 -47.667 -42 -66s-39.5 -32.333 -64.5 -42s-52.5 -14.5 -82.5 -14.5c-36.667 0 -68 6 -94 18s-47.167 28.167 -63.5 48.5s-28.166 43.833 -35.499 70.5s-11 54.667 -11 84v279c0 23.333 3.66699 47.333 11 72
s19 47 35 67s37 36.333 63 49s57.667 19 95 19c35.333 0 65.833 -6 91.5 -18s46.834 -27.833 63.501 -47.5s29 -41.834 37 -66.501s12 -49.667 12 -75v-291zM366.998 493.001c0 10.667 -1.83203 23.333 -5.49902 38s-10 28.667 -19 42s-21.167 24.833 -36.5 34.5
s-35 14.5 -59 14.5s-43.667 -4.5 -59 -13.5s-27.666 -20 -36.999 -33s-15.833 -27.167 -19.5 -42.5s-5.5 -29.333 -5.5 -42l1 -275c0 -20 2.16699 -38.833 6.5 -56.5s11.5 -33 21.5 -46s22.833 -23.333 38.5 -31s34.5 -11.5 56.5 -11.5c16 0 31.167 2.83301 45.5 8.5
s26.666 13.834 36.999 24.501s18.666 23.667 24.999 39s9.5 32.666 9.5 51.999v298z" />
    <glyph glyph-name="Pi" unicode="&#x3a0;" horiz-adv-x="525" 
d="M377 0v623h-229v-623h-83v696h396v-696h-84z" />
    <glyph glyph-name="Rho" unicode="&#x3a1;" horiz-adv-x="484" 
d="M466 487c0 -26.667 -3.66699 -52.5 -11 -77.5s-18.833 -47 -34.5 -66s-36.167 -34.333 -61.5 -46s-56 -17.5 -92 -17.5h-119v-280h-83v696h198c64.667 0 114.667 -17.167 150 -51.5s53 -86.833 53 -157.5zM382 488c0 40 -9.33105 71.666 -27.998 94.999
s-49.667 35 -93 35h-113v-260h114c23.333 0 42.666 3.66699 57.999 11s27.666 17 36.999 29s15.833 25.833 19.5 41.5s5.5 31.834 5.5 48.501z" />
    <glyph glyph-name="Sigma" unicode="&#x3a3;" horiz-adv-x="408" 
d="M25 0v72l134 286l-135 269v69h351v-76h-260l136 -262l-135 -281h271v-77h-362z" />
    <glyph glyph-name="Tau" unicode="&#x3a4;" horiz-adv-x="403" 
d="M243 620v-620h-83v620h-159v76h401v-76h-159z" />
    <glyph glyph-name="Upsilon" unicode="&#x3a5;" horiz-adv-x="442" 
d="M223 386l51 134l72 176h87l-172 -406v-290h-81v290l-173 406h88l37 -90l37 -90c8 -20 16.167 -41.667 24.5 -65l23.5 -65h6z" />
    </font>
</defs>
</svg>
